<?xml version='1.0' encoding='utf-8'?>
<svg xmlns="http://www.w3.org/2000/svg" enable-background="new 0 0 5000 4941.9126" version="1.1" viewBox="0 0 5e3 4941.9"> <path d="m4350.7 1362.8c-0.4297-0.0293-0.8643-0.0623-1.2969-0.0939-0.3848 0.2874-0.7788 0.5748-1.1616 0.8621l2.4585-0.7682z"/> <path d="m353.16 1486.3c69.353 152.37 202.37 273.9 359.56 332.09 242.17 89.641 456.69-39.336 531.45-250.9 90.458-255.99 4.375-529.66-242.68-614.69-177.64-61.142-383.67-18.164-441 159.21-28.908 89.464 6.2188 202.95 97.171 256.36l-13.809-19.792c-37.304-53.084-48.849-145.15-37.816-207.62 22.67-128.33 142.54-179.83 257.07-157.51 197.1 38.417 295.02 247.19 259.97 421.88-40.918 203.93-244.35 315.73-429.4 275.24-82.445-18.044-144.29-57.764-206.43-113.84-15.072-13.602-59.226-54.599-64.879-76.721 13.194 13.048 24.497 27.379 38.373 39.905 147.35 133.04 449.98 84.833 513.89-128.12 19.191-63.966 13.668-140.31-18.772-199.34-82.055-149.31-273.38-128.63-309.69 9.7202-9.9542 37.933-6.0652 85.636 14.185 119.86 18.796 31.761 43.486 44.335 78.336 52.952-9.1101-9.9297-20.855-16.654-30.414-26.237-39.443-39.538-42.054-124.63 0.1806-162.14 31.512-27.986 109.72-27.853 160.68 31.771 58.041 67.91 51.806 185.83-32.669 252.85-45.715 36.265-117.72 57.863-191.18 48-195.79-25.212-278.21-238.31-260.79-413.17 13.005-130.52 95.41-263.8 263.61-350.43 133.35-68.701 242.87-76.092 407.62-59.955-231.59 45.503-201.34 34.449-253.74 46.936-53.904 12.853-102.15 33.21-149.24 62.156 22.134-3.567 43.682-9.6276 66.04-12.37 87.97-10.794 141.61 12.74 202 10.652 91.384-3.152 170.62-58.574 230.53-123.47-76.955-42.823-175.93-60.96-263.28-56.335-110.82 5.8705-222.74 61.063-314.58 120.68-115.01 74.668-99.534 82.612-146.46 132.89 4.9925-30.804 65.619-114.95 153.86-178.03 123.64-88.378 289.07-125.05 438.95-99.303 50.342 8.6511 100.19 21.572 151.25 25.642 289.07 23.026 497.26-66.212 862.47 160.43 31.346 19.45 64.234 39.1 93.204 61.926 48.7 38.372 121.72 118.9 127.27 131.88-16.117-8.5755-22.408-17.303-35.148-26.882-11.155-8.3879-24.11-15.234-36.309-21.963-188.59-104.06-323.86-113.85-465.45-76.14-221.56 59.011-314.08 234.73-286.51 331.5 4.1818 14.678 11.277 29.228 25.359 36.528 15.98 8.2854 40.081 6.7435 56.676 0.771 55.389-19.924 78.872-83.503 90.076-92.355-6.1823 31.453-36.06 69.006-62.121 86.963-25.281 17.415-58.145 21.768-87.958 16.078-93.629-17.859-150.71-128.64-208.36-195.6-194.27-225.63-450.97-242.93-599.71-146.17-74.652 48.571-135.46 135.11-154.07 222.78-28.642 134.93 64.442 245.04 133.78 237.2-1.3076-5.3186 0.1074-2.9717-4.5283-6.5923-84.495-66.076-120.9-215.4-33.098-325.6 123.93-155.55 391.56-146.4 544.74-22.012 78.949 64.1 105.94 133.19 138.38 184.01 49.962 78.268 118.23 137.52 216.02 128.97 153.75-13.438 139.12-239.63 286.6-340.22 108.57-74.027 344.87-63.095 498.99 59.277 107.3 85.202 183.38 211.99 227.05 340.88 60.648-158.15 155.71-322.8 316.87-394.39 103.26-45.868 238.12-70.895 346.89-29.35 145.58 55.604 205.12 248.99 260.1 313.36 44.213 51.767 106.08 58.286 166.02 32 198.65-87.119 226.13-334.14 507.7-385.86 282.64-51.915 467.9 216.71 317.83 405.22-23.503 29.517-32.74 31.483-63.152 40.986 21.221 1.4487 38.698 0.032 60.512-10.581 45.385-22.08 77.629-66.123 93.419-113.39 54.603-163.42-103.44-444.16-425.05-382.12-181.98 35.092-246.72 129.37-308.63 203.72-61.541 73.915-132.1 148.17-218.28 193.46l10.608-32.571c16.737-62.819-2.5911-133.31-35.001-187.9-52.704-88.769-162.77-147.41-260.34-171.95-140.61-35.373-277.06-21.286-446.61 76.101-57.633 33.11-52.64 39.502-78.707 54.192 6.0847-10.652 18.591-21.768 26.979-31.127 158.16-176.58 371.91-281.37 564.32-312.1 168.43-26.899 494.51 23.989 625.43-71.037 84.782-61.526 145.96-153.9 161.85-258.09 17.587-115.33-47.84-224.21-168.8-243.06-28.638-4.4635-59.764-3.0308-87.441 5.8143-42.93 13.718-66.157 38.956-86.544 77.64l-1.7957-1.0356c9.9932-31.399 34.04-58.688 62.882-74.203 96.164-51.736 223.78-2.3673 270.07 88.765 67.082 132.08-1.438 301.02-93.433 377.79-28.682 23.934-60.985 41.194-93.995 58.071 33.864-4.0204 67.811-10.612 101.91-12.325 197.43-9.9233 387.19 65.818 509.51 224.38 13.473 17.463 28.907 37.123 35.854 58.34-11.121-8.1297-21.738-25.218-30.989-35.786-42.595-48.665-84.962-73.612-143.5-108.99-281.02-169.9-419.44-102.41-553.18-81.737 56.378 68.664 109.62 169.53 282.65 158.39 84.261-8.8296 149.08-20.443 238.45 4.0892-11.013-9.9205-25.876-17.781-38.631-25.388-129.55-77.272-260.51-38.484-386.46-83.557-19.786-7.0803-40.085-14.746-55.582-29.443 25.984 6.5629 49.893 15.678 76.701 19.489 67.059 9.535 135.09 0.3268 202.43 6.8606 243.99 23.675 531.15 253.85 448.54 566.28-56.745 214.54-211.49 297.28-373.82 251.46-114.77-32.398-162.91-136.06-133.75-234.79 25.591-86.673 105.89-126.11 157.54-109.81 77.765 24.554 96.745 142.42 2.459 192.26l-1.2393 2.8154c12.497 3.6791 30.814-2.5129 41.861-8.6027 29.566-16.302 45.473-47.405 53.758-78.946 21.97-83.642-33.931-160.49-111.69-180.38-97.122-24.834-195.78 49.191-217.94 144.18-35.37 151.64 68.025 315.11 238.93 353.03 105.08 23.319 219.89-12.432 284.76-81.898 6.314-6.7534 13.535-17.298 21.099-22.075-7.6172 25.783-42.789 57.076-62.014 75.155-184.43 173.39-414.38 144.6-553.55-4.2159-121.79-130.21-100.41-394.23 26.525-512.14 57.623-53.524 125.9-87.349 205.54-84.045 129.23 5.3676 219.43 94.766 212.47 223.82-2.4438 45.336-14.551 106.98-41.974 144.38-5.8696 8.0072-14.375 14.995-21.723 21.636 4.2798 0.4379 8.3564 0.8099 12.316 1.0994 13.5-10.069 28.238-20.123 40.211-31.855 135.17-132.44 38.044-378.7-179.91-407.23-238.35-31.2-454.51 170.41-483.18 413.28-14.151 119.89 19.689 264.95 96.03 360.02 63.673 79.292 171.34 140.87 272.82 151 136.67 13.653 275.69-46.692 379.7-132.73 140.78-116.46 213.91-277.66 229.9-457.31 12.805-143.8-17.293-271.26-83.976-397.98-22.881-43.467-48.01-85.373-79.747-123.05-28.135-33.395-58.579-66.45-92.98-93.428-71.929-56.412-174.04-97.561-265.4-105.12-37.378-3.0994-66.85-7.6128-98.708 3.9865l-0.708-2.9227c23.51-31.939 134.26-129.27 106.4-313.01-24.098-158.88-184.74-242.19-305.64-222.85-99.159 15.867-187.27 104.55-167.64 211.08 21.592 117.1 178.96 155.97 216.31 94.194 7.2217-11.94 10.15-32.579 6.5046-46.277-2.2446-8.4402-5.7678-16.347-10.389-23.728 10.608-1.217 23.119 6.5891 31.239 12.82 50.836 39.01 46.254 116.49 5.1968 166.45-118.31 143.96-385.8 98.247-569.08 111.54-251.54 18.25-505.23 141.73-668.28 334.59-49.581 58.647-86.704 124.37-120.95 192.88-77.026 154.08-88.194 205.05-108.63 279.29-29.56-145.18-138-353.95-206.31-446.29-132.7-179.35-378.36-312.99-599.18-352.18-197.91-35.123-287.38 5.0573-473.06-37.128-58.54-13.307-110.51-32.737-155.3-74.207-85.966-79.59-48.172-164.74-3.0645-172.32 6.0994-1.024 8.998-2.4873 14.302 0.9018-11.863 13.92-17.8 26.883-14.322 52.455 4.2719 31.437 56.46 57.137 98.947 48.473 40.695-8.3006 83.44-39.411 105.47-74.09 88.476-139.25-61.758-326.38-257.81-272.45-166.82 45.888-221.06 201.62-176.87 359.6 20.626 73.755 69.943 129.55 121.21 184.04-13.175-5.0652-27.13-11.257-41.042-13.834-35.71-6.6228-161.24 4.4044-274.4 54.928-308.89 137.93-411.07 612.63-283.88 892.09zm350.67 269.01c32.054 4.6846 62.727 8.7784 95.283 8.2513 104.9-1.703 219.27-46.024 292.19-122.68 79.044-83.089 113.49-207.09 109.06-319.61-3.5328-89.681-46.819-190.69-110.77-253.54-31.284-30.732-47.193-33.889-62.487-48.961 10.963 1.5446 22.037 8.6347 32.059 14.492 42.023 24.554 75.462 64.522 101.59 104.96 115.77 179.17 47.334 457.62-132.82 570.53-97.494 61.1-226.79 77.234-325.31 48.308l1.21-1.7423zm896.43-646.3c-28.272 38.065-59.77 82.864-108.38 95.405-4.733 1.0054-2.2933 1.015-7.3192-0.2877 4.5624-24.808 20.157-55.734 31.17-78.556 42.511-88.115 131.67-135.2 219.96-166.61l7.8756-0.5319c-28.576 29.356-46.419 20.117-143.3 150.58zm256.48-209.55c-304.38 10.71-354.33 184.71-375.84 204.48 4.9532-54.288 127.05-250.94 464.77-205.97l2.9717 2.6107c-30.517 1.3808-61.199-2.2104-91.896-1.1273zm1199.2-6.6116c244.92-18.711 505.45 104.98 465.22 346.4-6.5728-1.7906-14.253-9.027-19.757-13.253-114.02-87.629-127.11-195.54-294.51-285.99 27.966 5.4858 90.198 30.876 115.11 44.428 138.91 75.562 161.46 196.88 193.6 246.86l-1.4639-67.391c-7.1096-66.967-43.379-126.12-95.468-167.79-120.75-96.595-287.23-105.87-434.99-88.91 21.172-10.515 48.971-12.458 72.261-14.356zm1202.6 866.75c-111.86 20.85-218.79-4.2061-312.07-68.514-201.13-138.68-213.34-515.38-13.516-667.66 7.0115-5.3431 15.238-12.404 23.9-14.282-20.529 23.104-41.114 36.984-58.876 58.833-69.748 85.782-91.282 199.03-87.158 306.97 4.1963 109.88 45.804 212.11 127.25 286.86 71.046 65.2 179.53 102.42 275.62 97.747l64.347-7.1487c-6.0851 3.3277-12.922 5.0943-19.499 7.2022zm-894.19-1176.1c122.61-13.789 246.94-7.4996 369.26-23.934 322.81-43.366 330.63-271 235.73-336.05-47.02-32.233-115.34-19.917-96.293 34.587 9.1567 8.3892 12.485 8.2329 26.838 8.6875l0.8635 5.3634c-3.1521 9.5636-7.49 20.432-17.42 24.769-26.2 11.448-57.129-11.968-66.118-39.221-13.107-39.69 8.2593-91.258 80.434-114.6 33.742-3.1273 65.527 1.5874 92.828 23.054 41.037 32.26 64.464 79.357 70.919 130.59 12.391 98.426-68.328 198.08-138.49 239.08-149.71 87.492-417.95 39.938-593.85 61.663-162.7 20.105-387.52 120.82-550.55 294.18-39.417 41.915-72.393 91.174-107.58 136.72 72.628-175.67 361.05-407.5 693.43-444.89zm-2184.8-282.83c-24.432 25.538-61.709 23.795-72.295 12.152-6.5823-7.2344-7.5876-14.195-7.3386-23.594 9.0416-12.712 24.037-17.932 34.811-28.953 10.84-11.093 10.894-31.965-8.3392-44.892-29.409-19.753-80.838-12.521-116.52 42.593-62.272 96.185 9.1952 279.04 328.88 309.64 82.671 7.918 187.32-5.6313 323.2 15.443 235.7 36.574 485.82 173.93 625.26 373.49 12.169 17.42 30.033 41.037 35.235 61.716-10.096-8.6454-66.379-98.791-139.41-166.49-149.57-138.66-349-239.06-552.84-259.88-75.677-7.7285-150.48-3.874-226.19-1.2733-544.58 18.716-522.41-452.4-308.68-450.04 53.939 0.5961 105.45 43.037 105.45 113.95-3.4891 16.299-9.4566 33.842-21.216 46.132zm-269.12-158.72c33.537-44.172 86.363-70.729 140.85-78.018 92.863-12.423 174.52 45.486 182.99 117.85 3.172 4.5183 2.3324 6.8902 2.5472 12.276-2.713-4.3821-2.3031-7.2388-2.5472-12.276-7.7252-14.367-19.678-66.76-87.471-95.378-91.641-38.685-206.64 4.7158-245.16 100.03-24.715 61.147-13.287 148.51 12.916 207.72 33.615 75.96 95.883 135.75 169.01 173.87 24.9 12.974 51.113 22.045 77.16 32.288-30.557-0.6539-111.53-24.856-161.78-62.253-118.5-88.189-166.18-293.8-88.52-396.11z"/> <path d="m1916.9 779.37c68.309 25.332 35.455 10.149 144.47 65.318 11.252 6.0063 24.812 16.697 36.631 20.25-8.157-8.4984-10.236-8.9709-81.371-53.465-146.03-89.183-301.95-151.14-475-155.39-33.991-0.834-69.69 4.5964-102.81 11.794-68.455 14.882-127.53 38.319-178.7 87.71-27.018 26.071-64.976 72.642-64.834 112.08 0.078 22.363 14.834 38.797 30.268 53.26 37.538 35.157 90.891 58.647 142.51 56.085 81.671-4.0524 160.88-74.584 211.9-137.37l31.483-42.37c6.8264-8.3341 17.278-16.059 22.719-25.09-36.792 6.6511-72.164 11.008-107.3 24.525-83.914 32.272-167.32 100.3-232.21 92.682 165.9-191.97 385.24-197.86 622.25-110.02zm-387.19 58.847c-10.101 11.331-24.461 19.738-36.963 28.384-44.418 30.712-82.366 52.396-137.48 55.051-15.248 0.7319-36.348 1.0931-48.766-9.0124l-0.9563-1.1469c118.06 15.968 192.82-63.708 224.17-73.276zm-236.65-44.501c-24.3 18.562-43.984 38.519-63.995 61.517 3.03-12.453 10.096-21.968 18.015-31.756 66.201-81.83 178.8-112.5 279.23-123.41 6.6897-1.9714 17.678-1.1277 25.003-1.3954 27.935-1.0298 60.291-2.3719 87.422 4.7428-123.5 1.244-242.41 16.624-345.67 90.305z"/> <path d="m3700 730.2c-145.37-120.94-407.12-75.031-579.03 2.9861-78.943 35.832-246.64 134.79-278.44 173.37 3.4746-1.2296 2.2253-0.4783 5.1089-2.713 147.8-114.45 342.8-171.08 472.01-179.74 104.89-7.0264 212.46 16.898 300.71 75.847 38.758 25.886 74.598 58.847 109.71 89.501l-0.844 3.6596c-61.024 17.874-176.6-67.206-238.04-89.188-48.673-17.415-96.317-23.587-147.51-27.282 63.776 46.678 88.391 81.01 139.92 123.16 54.895 39.495 149.6 83.508 219.48 70.866 48.512-8.7736 78.473-43.316 105.39-81.698-9.2417-62.99-61.472-119.68-108.47-158.78zm45.409 171.96c-53.913 45.362-139.07 9.1909-199.24-27.989-11.091-6.8558-24.271-13.897-32.937-23.754 18.765 3.7402 94.483 64.645 171.94 60.092 39.993-2.3549 40.102-14.372 57.31-16.083 4.9822-0.4926 2.9475-0.9222 6.9827 2.3472l-4.0503 5.3871zm11.199-13.926-3.7085 0.1806c-5.4407-11.291-9.1494-22.29-15.927-33.088-50.381-80.258-130.27-120-220.06-140.32 3.6641-1.1762 7.1338-1.3226 10.954-0.927 126.11 12.952 235.18 124.34 228.74 174.15z"/> <path d="m472.15 3210.8c52.924-30.238 101.2-69.353 143.54-113.07l-141.66-164.78c-106.28-136.2-229.74-368.89-270.04-491.33 131.58 220.04 163.92 244.03 311.02 372.34 61.859 53.951 126.15 108.2 147.85 196.9 3.2206 13.146 4.4357 26.525 8.793 39.388 25.27-15.287 28.014-104.85 24.49-134.31-30.978-258.56-284.75-290.28-420.38-457.92-88.197-109.02-152.72-338.29-163.66-429.74 4.5202 7.1484 6.6298 19.894 9.3476 28.218 26.385 80.817 43.376 110.44 90.275 184.97 59.688 94.845 69.34 109.62 179.52 188.46 101.51 72.633 237.42 150.5 295.73 387.61 12.973-74.38-6.9161-164.97-31.849-235.91-96.728-275.21-242.05-263.65-348.3-362.12-93.514-86.656-145.7-212.3-174.34-334.27-6.2264-26.506-14.12-55.71-14.951-82.918l-0.0342-2.2933c16.794 41.954 30.274 82.386 52.936 122.01 62.33 108.96 127.19 148.67 210.12 204.55 136.41 91.918 212.12 156.32 269.72 293.36 7.9147 18.84 14.024 38.558 23.749 56.578-1.2783-61.141-21.699-127.76-40.759-185.42-105.34-318.72-324.14-326.96-444.98-524.9-74.752-122.45-81.359-271.99-48.046-408.95 1.903 6.0946 0.6412 15.434 0.6642 21.89l0.5527 53.197c4.4002 123.83 74.175 248.27 162.25 336.56 45.685 45.797 122.23 100.61 218.61 217.15 92.982 112.45 94.781 152.74 122.7 192.94-35.422-195.5-198.5-311.36-291.74-432.55-104.69-136.06-123.68-253.95-127.26-395.23-3.6216-142.92 8.6475-288.06 76.523-416.53 79.387-150.26 95.712-139.45 122.5-185.32l1.9518-3.4352c-15.206 12.375-28.248 27.554-42.157 41.369-137.78 136.81-273.72 363.24-329.25 608.75-103.85 459.16-63.635 962.79 133.02 1392.3 68.924 150.54 153.19 280.72 283.55 422.44z"/> <path d="m4996.7 1771.2c-16.884-318.98-62.635-552.09-233.18-802.09-53.274-78.108-73.119-109.05-196.33-225.86 25.478 38.062 82.191 90.936 152.1 226.14 52.84 102.18 58.496 221.74 58.413 334.41-0.0483 64.19-2.2246 130.56-14.941 193.69-45.117 223.92-230.99 375.52-301.99 469.93-32.576 43.316-57.134 91.335-76.545 141.81-7.627 19.83-19.293 46.741-19.401 68.172 23.471-40.212 40.642-82.898 66.845-122.01 66.947-99.933 163.52-177.34 246.73-262.84 91.594-94.116 166.84-216.44 182.18-348.74 3.2983-28.467 2.1665-57.871 1.7808-86.514 18.85 59.316 23.383 129.35 19.44 191.39-17.532 276.4-222.57 369.4-332.34 466.16-133.98 118.1-212.19 284.71-223.31 463.17 64.006-187.12 137.88-241.82 313.02-357.91 50.352-33.376 98.367-68.06 137.07-115.06 78.795-95.71 99.695-185.5 115.3-220.26l0.293 2.957c-1.854 27.842-11.462 59.364-17.64 86.724-90.16 399.29-285.41 384.3-405.98 498.73-96.346 91.438-142.75 223.21-155.45 352.93-2.9087 29.701-2.4155 60.203-3.3032 90.037 7.3335-23.7 12.598-48.263 21.006-71.554 49.472-137.12 118.96-207.41 241.03-286.21 137.1-88.515 161.84-128.78 204.73-194.2 89.591-136.65 85.851-169.3 109.6-235.05 1.5615 5.8214-2.7324 21.416-3.8057 27.74-6.8511 39.715-15.059 79.473-25.691 118.35-61.336 224.27-126.61 299.7-230.13 374.45-100.1 72.299-238.33 136.04-283.17 241.99-36.572 86.402-27.925 178.84 6.5435 264 0.2144-32.824 2.2251-66.357 13.814-97.376 36.868-98.673 176.88-179.05 270.35-281.17 63.829-69.738 109.27-148.91 160.08-227.86-20.607 63.522-52.216 126.76-82.996 185.98-158.68 305.35-262.16 382.66-340.23 466.37 7.4951 13.154 87.216 83.439 159.41 117.41l3.5083-1.6204c7.1543-4.782 117.19-149.17 110.38-139.73 266.29-369.16 377.24-844.72 352.8-1306.5z"/> <path d="m2098 864.94c2.3813 2.0247 4.304 4.2201 7.3193 5.1671-1.8638-2.4839-4.6648-3.6107-7.3193-5.1671z"/> <path d="m349.66 873.6c-113.09 164.54-110.13 362.5-74.908 551.42 11.379 61.038 27.784 123.48 54.523 179.69 100.31 210.89 389.62 404.68 645.85 354.19 309.91-61.076 440.81-441.19 339.86-655.77-9.2368-19.938-18.332-39.958-31.092-57.94 24.586 91.864 35.168 105.43 34.132 199.38-2.7664 246.29-144.47 428.95-329.66 477.37-133.19 34.83-266.59-11.325-380.58-78.907-147.29-87.324-269.52-230.93-311.63-398.67-13.861-55.217-18.151-113.12-18.936-169.87-3.6452-263.43 80.489-388.35 72.432-400.89z"/> <path d="m4708.6 1502c39.159-140.19 45.488-289.98 43.804-338.13-5.1357-146.66-62.171-231.92-102.28-298.27 27.58 98.058 54.518 114.7 71.968 285.1 11.433 111.66 8.5151 229.52-29.194 336.2-58.149 164.51-190.34 306.38-347.05 380.66-49.112 23.275-99.704 45.453-152.98 57.174-169.7 37.329-367.11-47.031-454.75-234.67-50.089-107.25-65.688-246.36-36.762-361.34 10.642-42.31 28.584-81.181 43.408-121.95-22.524 15.473-51.601 90.228-59.779 117.56-74.6 249.34 46.374 554.07 300.77 627.44 267.2 77.069 630.27-118.27 722.85-449.76z"/> <path d="m3147.3 2041.9c16.673-9.6467 35.45-19.606 53.904-25.33 68.016-21.09 157.89-14.214 226.09 4.3135 197.16 53.57 429.89 296.89 557.28 490.06l119.03 199.02c11.657 21.002 20.879 43.204 32.971 63.956-69.206-248.14-211.37-472.54-396.69-650.4-92.872-89.134-189.56-169.78-264.17-276.14-90.352-128.8-131.59-296.59-175.88-392.7-47.659-103.38-116.79-192.49-226.9-232.38-138.98-50.349-323.85-15.648-379.23 132.16l-22.134 69.309c34.084-5.5579 70.953-11.384 103.55-22.89 47.239-16.678 84.382-58.188 139.14-50.02 36.489 5.4407 56.925 30.751 89.13 43.35 17.225 6.7435 35.347 8.1637 53.577 10.057l-13.399 14.585c-12.702 10.164-48.122 2.0446-63.082-1.0831-2.9817 21.758-6.7634 42.286-22.426 58.72-13.97 14.653-30.853 23.046-51.118 23.675-18.874 0.5857-32.8-3.1472-46.356-17.088-19.801-20.362-19.465-51.962-19.445-78.668l-57.013 11.955c-25.432 4.0988-49.922 3.7036-73.359 15.936-5.5625 8.0708-6.5481 11.97-4.5037 21.958 2.8643 13.96 12.253 29.57 19.113 41.964 46.662 84.237 118.54 141.24 111.91 259.32-6.4739 115.4-118.83 277.53-156.74 459.23-17.588 84.324-19.334 139.1 19.981 272.72 49.757 169.09 143.96 303.86 278.99 416.14 38.807 32.263 80.996 60.726 123.1 88.461 160.5 105.72 251.35 137.98 383.4 177.54 72.964 21.865 157.82 41.749 234.52 34.522l-141.52-162.4c-7.9148-8.9541-21.997-30.116-31.566-35.831-4.2014-2.5081-26.418-2.5422-32.986-3.2935-172.6-19.743-452.36-152.25-609.71-409.23-174.07-284.25-140.05-362.4-77.517-622.14 17.849 50.518 40.681 89.998 84.992 121.12l46.873-193.31c6.9045 11.999 13.775 22.788 23.475 32.756 26.759 27.496 77.57 58.247 116.67 58.564-8.8511-34.216-8.0024-73.501-1.7366-108.18 11.194 73.25 19.111 103.55 91.974 133.37-94.471 24.144-156.51-0.0592-224.98-50.02-26.105 167.15 30.336 162.51 87.729 202.6 21.519-53.87 43.228-96.264 95.074-126.26zm-32.918-171.59c-18.194-24.145-11.969-9.2184-32.747-92.614 26.612 47.81 23.306 42.057 24.959 44.423 72.207 102.17 128.24 132.32 213.22 147.24l-60.277-196.59c23.582 31.575 33.999 115.85 219.49 215.64 23.251 12.511 48.444 23.617 70.617 37.743-16.439-1.0782-36.943-13.004-52.128-19.704-125.63-55.418-110.86-53.109-157.15-85.543-6.0264-4.2209-8.9199-7.5829-16.244-6.2313-1.0442 5.5284-0.1658 9.6129 1.2493 14.98 11.072 41.954 60.145 60.711 93.867 80.478-115.62-30.964-212.38-17.178-304.86-139.83z"/> <path d="m2329 1423.3c-3.0107 73.618-55.959 134.2-98.806 190.61 130.06-39.348 175.53-21.368 232.98 7.0315-2.3906-17.225-2.2249-35.05-5.46-52.123-16.318-86.172-106.62-124.38-128.44-148.39-10.542-11.589-3.1702-51.906-36.972-104.94-76.252-119.63-280.62-152.49-427.47-53.187-157.43 106.44-191.71 258.7-241.99 385.9-150.4 380.43-324.99 371.23-543.34 690.92-76.038 111.33-127.48 229.86-175.03 335.29-7.4851 17.435-17.722 35.45-21.26 54.104 24.123-25.663 47.634-108.07 217.35-326.72 66.63-85.851 140.47-173.92 226.82-240.76 119.69-92.658 268.12-165.86 423.52-145.34 141.89 18.759 172.15 102.32 197.78 150.59 24.793-16.146 63.132-29.848 78.126-55.827 23.485-40.695 19.084-102.52 6.6509-145.93l-13.834 11.96c-65.997 52.157-153.53 59.818-224.05 28.789 22.68-1.8689 45.58-1.5518 64.674-15.941 34.659-26.13 37.162-68.143 42.203-107.67 6.2606 34.518 8.0221 70.963-0.766 105.04l23.08-3.6742c50.884-11.272 85.626-42.247 113.38-84.826l55.695 191.7c42.013-36.265 63.39-66.093 74.642-121.07 9.2566 19.494 14.443 41.613 20.597 62.302 66.976 225 38.919 335.14-61.087 504.8-96.543 163.79-149.15 216.7-261.16 301.25-123.22 93.012-237.46 159.82-407.64 168.68l-181.04 213.03c33.044-8.5686 67.367-11.93 101.06-17.186 163.75-25.541 221.21-45.934 338.57-104.17 158.98-78.888 301.42-176.2 421.54-307.64 74.813-83.786 123.28-173.27 157.49-280.02 50.562-157.82 53.397-247.93-21.724-443.43-69.889-173.16-125.16-275.52-101.55-376.78 22.601-96.927 106.61-174.38 124.46-233.15 1.1858-3.9083 3.9136-13.17 1.5125-16.576-11.816-16.748-60.559-21.26-135.55-34.088-2.8792 26.857 5.4307 49.918-14.849 72.803-10.116 11.408-24.408 20.592-39.993 21.304-21.402 0.9806-38.075-2.4446-53.875-18.084-20.24-20.026-19.011-46.473-19.733-72.783-59.392 26.778-67.279 19.82-97.796 1.2783 78.082-10.329 94.782-47.518 142.54-57.144 58.54-11.799 101.6 32.312 152.62 50.284 30.35 10.691 64.4 14.599 96.142 19.782zm-426.27 420.37c-6.1608 15.987-41.633 64.612-85.07 97.386-86.059 64.92-217.3 70.248-234.33 56.368-29.165 10.862-69.099 29.55-99.83 31.141 3.2742-1.9419 6.329-3.5768 9.9054-4.9087 159.33-59.33 228.13-188.88 253.19-211.95-7.6218 52.411-40.217 110.8-82.645 142.79-23.407 17.654-48.142 28.745-74.642 40.695 114.82-20.66 222.25-49.63 293.16-150.79 12.721-18.142 21.499-38.202 31.888-57.661-2.6396 18.615-4.8355 39.329-11.623 56.924z"/> <path d="m2111.2 1388.3c34.841 9.3016 42.69 51.717 18.188 73.583-30.27 27.014-79.21-1.6002-70.612-41.187 4.6431-21.376 27.647-39.011 52.424-32.396z"/> <path d="m2893.3 1468.7c-21.805-7.2551-37.563-31.768-27.362-56.662 6.7874-16.564 24.884-27.749 42.735-26.412s34.081 15.091 38.326 32.482c7.7374 31.696-22.26 61.054-53.699 50.593z"/> <path d="m2537.2 1622.8c34.474-15.453 63.644-27.647 101.62-30.79 52.49-0.2977 95.078 6.7922 143.09 28.789-64.585-84.068-96.575-113.97-110.38-197.04-8.8616 2.7861-16.918 9.6371-24.471 15.044-117.95 84.41-99.725 126.59-109.86 184z"/> <path d="m4641.6 3294.4c-376.15-115.87-508.07-512.23-674.76-756.26-23.588-34.532-50.557-66.869-76.633-99.523-83.245-104.23-173.24-201.42-282.74-278.55-155.4-109.47-384.46-196.78-491.76-38.588-85.092 125.46 34.485 305.26 117.41 432.69 123.14 189.24 266.43 362.93 420.14 528l-128.66-446.22c6.4314 9.3345 10.408 24.09 14.663 34.732 62.059 150.26 74.518 190.71 266.54 397.23 127.01 136.61 316.52 330.51 505.51 402.79 108.3 41.413 249.89 33.937 354.86-13.302-52.348 10.457-99.484 7.0752-149.46-12.189-104.56-40.286-338.85-192.12-514.11-435.28-52.542-74.481-50.04-69.637-55.08-82.948 19.174 12.55 290.47 388.39 568.68 459.56 104.57 26.75 215.38 16.62 314.9-25.052 32.898-13.775 62.901-31.605 93.448-49.786l-33.23 7.1777c-81.259 13.848-171.44-0.366-249.72-24.476z"/> <path d="m1017.7 3237c108.7-98.166 218.63-196.72 305.4-315.44 83.838-114.73 101.6-155.32 122.55-357.19 15.487 160.34-30.721 323.83-79.053 477.51-4.4796 12.399-14.931 30.551-15.093 43.081 14.707-11.101 26.584-27.618 38.632-41.603 283.86-332.06 336.68-419.03 474.72-651.62 47.495-88.262 80.951-179.38 20.64-259.99-98.328-131.4-350.3-86.668-534.47 58.794-96.382 76.132-238.14 224.92-347.74 385.96l-118.29 188.16c-82.054 140.62-159.53 286.44-288.9 390.8-46.512 37.524-99.792 66.991-152.1 95.517-93.242 50.855-203.56 83.908-310.89 71.817l-49.707-8.0415c11.611 11.784 32.136 21.909 46.888 29.253 136.91 68.201 258.48 75.302 357.86 45.497 224.32-67.287 510.83-422.56 546.07-440.7-8.6984 16.152-17.198 22.884-28.36 36.601-154.66 189.73-335.46 406.45-576.86 469.06-44.064 11.433-86.15 14.151-131.41 14.468 91.93 16.533 325.13 76.248 519.9-63.673 70.07-50.342 136.24-110.5 200.22-168.28z"/> <path d="m2201.4 2140.9c-4.3174-30.232-24.872-50.451-62.604-47.99-33.9 7.0242-59.14 25.536-50.752 56.33 9.042 33.142 38.629 57.76 40.637 137.94 4.7283-3.167 5.7139-5.8848 8.5977-10.75 29.804-38.017 71.676-82.645 64.122-135.53z"/> <path d="m2864.2 2095.1-18.576-0.1807c-20.138 7.5049-32.117 15.61-40.988 36.153-7.7632 17.981-2.1177 45.921 5.6553 63.498 15.673 35.445 35.23 51.699 65.259 74.574 2.9473-16.234 5.4458-33.147 10.711-48.825 9.6909-28.867 41.598-71.758 21.333-101.38-9.5104-13.912-27.213-21.641-43.394-23.837z"/> <path d="m2035.6 2168.5-27.345-2.3127c-19.743 2.7422-35.347 8.4463-52.85 17.869 26.49 123.54 1.6594 157.71 4.6307 165.53 76.371-40.803 120.33-59.785 132.46-109.41 8.8252-36.127-20.581-65.11-56.896-71.671z"/> <path d="m3042.6 2199.8c0.1951-1.2834 2.093-10.486 1.7859-11.194-2.0981-4.8511-31.043-20.829-60.087-19.992-25.442 3.8403-48.029 9.2078-64.127 31.283-26.988 37.015-7.5376 75.478 30.292 100.66 68.071 37.554 46.035 25.067 97.708 55.178-23.087-48.853-12.327-108.23-5.5722-155.94z"/> <path d="m2971.2 2229.2-7.1973-0.3025c3.6401 2.2639 5.6553 4.0061 10.003 4.4209l-2.8056-4.1184z"/> <path d="m2094.2 2490.1c31.214-25.476 79.239-74.496 81.615-117.86 0.7173-13.136-8.0366-26.535-16.923-35.362-21.942-21.811-39.448-25.812-58.983-24.725-80.11 21.37-48.538 91.852-45.99 137.37 1.3711 24.515-0.2534 48-5.2991 71.997l45.58-31.419z"/> <path d="m2942.1 2330.9c-15.541-15.248-33.098-17.708-54.012-18.303-23.197 2.9817-40.124 9.9204-54.87 28.863-7.4951 9.6318-9.4419 19.391-7.3484 31.404 9.8347 56.455 60.182 108.99 106.88 146.09-0.5027-16.293-1.9473-33.234 1.1858-49.327 7.8364-40.246 43.154-104.39 8.1682-138.73z"/> <path d="m3079.2 2390.6c-13.975-10.94-26.052-13.76-43.477-14.912-20.88 7.0752-39.841 19.85-50.284 39.934-20.787 39.971-11.574 98.506 30.434 119.92 11.716 5.9778 24.242 9.5688 37.192 11.628 18.24-2.176 32.073-5.2847 43.745-20.616 12.711-16.703 17.762-41.149 15.078-61.585-3.8303-29.184-7.7534-54.856-32.688-74.374z"/> <path d="m1897.8 2425.3c-16.723 41.11-11.386 103.16 33.244 118.01 12.967 4.3093 22.288 1.2214 33.79-0.678 78.614-39.123 77.443-149 8.6514-164.1-9.0514-1.9858-19.381-1.0344-28.599-0.644-23.129 10.086-37.402 23.602-47.088 47.41z"/> <path d="m3268 2668.1 6.5535-1.6052c-30.424-50.542-67.743-99.836-102.18-147.88-9.032-12.604-24.764-40.11-39.071-44.477-4.2405 9.9592-3.7864 22.876-4.5234 33.708-1.6101 23.748-6.875 54.085 2.2839 76.652 19.883 49.008 85.286 67.896 136.93 83.606z"/> <path d="m1871 2592.9c16.559-32.31 13.379-91.494-20.826-87.095-37.24 14.116-54.992 62.302-72.988 94.975l-36.04 63.088c49.068-10.708 106.92-26.223 129.85-70.968z"/> <path d="m3065.5 2735.2 20.114-34.528c13.819-20.157 41.242-53.621 36.479-79.039-6.2971-33.582-94.918-50.688-128.13-58.652-13.356-3.2058-26.057-8.1831-39.558-10.818-6.9534 18.874 6.324 60.16 14.644 78.448 20.084 44.155 58.403 75.94 96.454 104.59z"/> <path d="m1888.7 2653.6c6.3971 19.772 16.444 35.518 27.877 52.694 4.8892 9.5344 9.8712 18.801 13.272 28.994 57.056-43.34 102.73-80.669 113.93-156.06 1.0782-7.2559 0.7074-14.878 0.4391-22.182-2.313-1.3176-3.5571-2.3618-6.2704-2.4397-42.637 11.989-94.068 17.688-132.3 40.744-23.901 14.408-28.953 21.158-16.952 58.247z"/> <path d="m3124.7 2766.9c8.8625 47.042 50.291 67.4 89.769 89.062l36.304 14.502c6.1987-50.476 38.79-115.73 6.9829-157.93-22.176-29.421-50.422-28.296-64.459-29.174-44.188 7.3181-76.337 42.466-68.596 83.542z"/> <path d="m1731.5 2817.1c8.0217 22.182 14.912 41.3 18.508 64.747l43.501-21.265c35.777-21.602 73.896-50.244 83.63-93.394 8.2537-36.627-21.863-74.509-60.062-81.327-7.4561-1.332-15.019-0.7463-22.534-0.2488-69.298 23.941-85.918 68.25-63.044 131.49z"/> <path d="m3294.7 2703.4c-13.043 18.644-8.0708 81.981-4.0403 103.56 1.5615 8.3293 3.3428 14.146 8.5298 20.865 15.84 9.0571 82.46 14.31 100.58 15.278l6.0505-1.9614c-22.421-35.284-52.06-67.874-78.453-100.25-8.6709-10.632-21.162-30.658-32.669-37.499z"/> <path d="m1710.3 2782.1c-3.0887-18.796-11.848-34.679-22.295-50.293l-92.389 122.25c91.396-12.225 125.97-3.3071 114.68-71.954z"/> <path d="m3323.7 2903.5c10.277 24.486 9.2483 24.459 48.669 40.149 68.033 27.073 79.182 26.561 150.29 39.998l-95.034-119.05-124.39-8.9639 20.46 47.864z"/> <path d="m1504.8 2970.4c22.09 0.6245 42.603 0.6687 64.498-2.8054 62.937-13.956 97.392-45.016 125.98-95.088-21.524-8.105-42.11-8.3586-64.864-6.4653-15.419 3.645-29.955 7.4851-43.608 15.966-32.259 20.03-58.14 59.013-82.006 88.393z"/> <path d="m1385.5 2864.3c-63.963 112.56-105.1 169.01-245.81 303.59-217.63 191.7-300.51 270.58-369.87 301.79l2.3469 2.615c161.29-11.813 322.23-79.044 429.08-203.59 73.884-86.134 118.09-150.11 164.09-322.25 7.0461-26.379 17.552-55.026 20.167-82.142z"/> <path d="m3743.8 3040.5c-44.101-50.606-88.329-100.68-128.18-154.78 42.467 198.13 142.84 378.28 315.08 490.65 71.868 46.879 216.8 104.26 336.39 104.54-149.9-81.584-296.98-180.74-523.29-440.4z"/> <path d="m3289.2 3549.2c13.223-12.648 23.246-28.755 36.572-41.159 54.424-50.647 178.15-49.698 267.22 52.933-14.302-52.377-41.012-101.81-90.1-129.15-49.24-27.433-98.221-24.71-152.51-21.294 70.604-145.79 108.28-161.43 152.59-215.92-154.52-50.909-164.73-52.431-195.4-68.162 18.688 71.101 62.547 169.69-0.1121 237.62-10.723 9.7771-24.822 21.853-38.973 25.491-61.434-25.749-127.38-43.765-192.11-17.42-40.28 16.39-70.177 53.284-86.934 92.565-7.1877 16.839-9.8613 33.884-12.662 51.821 26.242-32.176 52.871-80.989 135.36-89.305 30.058-3.03 69.192-2.4888 98.581 3.8306-43.974 8.3538-89.954 26.32-116.1 64.971-49.569 73.287-18.78 173.86 9.1934 190.08l1.9224 0.844 1.22-2.7617c-24.081-52.646 7.1809-155.73 85.392-184.15 19.387-7.0413 41.798-8.417 62.258-9.9983-68.605 40.433-96.973 134.62-48.688 210.02 13.245 20.685 42.414 51.588 67.782 56.002-30.375-39.788-50.572-79.858-43.438-131.34 7.3801-53.262 33.733-51.427 58.935-75.516z"/> <path d="m2035.2 3568.2c3.4841-26.613 2.6106-51.191-6.3872-76.613-17.493-49.43-61.731-91.814-108.65-113.68-67.499-31.463-128.11-10.584-193.48 13.043l-25.33 4.4111c-19.138-34.149-72.123-108.53-26.442-257.32-20.466 1.7705 13.665 3.54-156.68 50.942 48.59 66.24 104.24 125.6 111.87 211.2-9.0104 8.3555-13.604 12.536-23.592 17.435-28.968 14.498-101.45-14.013-156.02 44.204-28.004 29.877-38.436 68.347-36.587 108.35 15.902-28.77 29.033-54.056 57.881-72.042 77.453-48.29 220.64-9.7258 267.16 68.948 49.962 84.502-17.415 184.14-23.856 213.14 14.653-8.4219 30.507-28.111 42.618-40.642 33.391-34.552 64.073-80.468 62.936-130.2-1.0441-45.887-30.282-80.278-61.809-110.04 40.046 1.4883 75.721 10.696 104.51 40.246 20.509 21.05 35.738 54.602 39.231 83.392 2.2058 18.161 0.449 38.055 0.1464 56.383 40.314-55.166 43.719-108.36 19.406-157.4-24.637-49.698-59.75-66.03-109.78-82.913 119.84-24.303 194.34 11.292 222.85 129.18z"/> <path d="m4035.3 3458c-19.946-6.666-12.711-8.0061-23.758 2.9475-178.57 173.92-388.86 313.13-608.31 427.13-26.852 13.95-51.986 31.26-80.312 36.392 19.672-18.583 43.232-27.661 65.43-42.067l109.36-75.696c204.12-145.75 387.73-317.27 451.58-391.04-47.546-27.794-90.681-59.242-132.06-95.561-111.02 163.32-196.53 258.52-271 343.71-84.094 87.807-178.74 167.86-277.44 238.68-290.11 195.6-402.57 266.9-473.98 330.54-82.114 77.329-74.364 72.265-81.483 76.716 5.3284-17.62 20.445-35.854 31.063-50.991 123.4-175.92 383.54-325.58 551.69-464.02-138.06-5.3823-272.05-8.0269-393.33 68.963-163.06 103.51-257.97 269.47-329.6 443.51-28.687 69.7-55.607 143.63-71.846 217.37-64.409-266.39-202.38-539.27-438.38-675.32-154.76-89.237-230.78-54.609-377.85-15.112 81.173 8.7585 132.92 58.002 206.3 108.12 123.2 84.135 291.27 174.77 393.07 365.58-2.7488-1.0635 0.189 0.6484-38.246-37.514-211.82-195.47-436.78-265.72-464.48-287.33-39.402-30.741-74.218-71.485-110.27-106.07-141.21-129.86-280.47-265.37-411.29-446.06-25.442-35.138-52.245-68.868-67.22-108.82-56.508 47.334-73.427 65.111-152.07 109.47 727.21 558.05 693.19 531.87 695.87 534.12-44.97-16.241-91.228-46.56-133.4-69.899-440.12-243.5-628.88-432.03-638.58-432.15-6.4458-0.0879-30.155 12.97-38.065 15.873-39.002 14.334-98.399 27.164-156.08 29.672-13.512 0.5854-28.365-2.3374-41.51-0.3218 787.64 673.04 1349.7 678.38 1670.5 1205.1 41.856 68.724 81.635 148.82 97.971 227.97h5.1824c16.117-64.605 43.135-126.26 74.188-185.04 288.55-546.14 984.51-621.31 1684.8-1249.4-95.058-6.7655-166.14-29.975-226.46-49.439zm-1791.9 715.7c-132.95-184.12-294.42-224.61-308.6-284.56-2.0249-8.5732-0.1903-11.477 4.7772-18.249 16.444-11.295 42.394-0.4761 59.54 9.7444 122.37 72.961 268.82 295.48 281.91 348.52-13.458-17.669-24.564-37.367-37.626-55.456zm499.73 2.854c59.106-109.79 138.65-215.24 243.85-284.76 16.327-10.789 46.204-30.532 66.357-26.994 3.0842 0.5415 5.6797 2.186 8.3342 3.718 5.4114 9.3445 6.7195 16.781 3.4353 27.287-10.113 32.367-47.463 34.529-107.81 76.872-72.486 50.884-138.4 114.84-190.49 186.58l-35.269 53.104c-5.3728 8.4067-10.974 20.016-18.352 26.578 4.1963-20.923 19.791-43.515 29.95-62.39z"/> </svg>