<?xml version='1.0' encoding='utf-8'?>
<svg xmlns="http://www.w3.org/2000/svg" version="1.1" width="1080px" height="2132px" viewBox="0 0 1080 2132"> <g id="layer1"> <g style="fill:rgb(255,255,255); fill-opacity:1.0; stroke-linejoin: miter"> <path d="M-203.00098,525.21014C-203.21019,525.21014,-203.41084,525.2933,-203.55878,525.4412C-203.70671,525.5892,-203.78984,525.7898,-203.78984,525.999L-203.78883,1588.0C-203.78883,1588.4357,-203.43564,1588.7888,-202.99997,1588.7888L1283.001,1588.7898C1283.2102,1588.7898,1283.4109,1588.7068,1283.5588,1588.5588C1283.7068,1588.4109,1283.7898,1588.2102,1283.7898,1588.001L1283.7888,526.0C1283.7888,525.56433,1283.4357,525.2111,1283.0,525.2111L-203.00098,525.21014 Z"/> </g> <g style="fill:rgb(220,239,235); fill-opacity:1.0; stroke-linejoin: miter"> <path d="M114.500084,1458.6097L0.48302072,1461.0461Q-60.1881,1281.7997,-59.257236,1234.294Q-67.85625,1157.3048,-29.639395,1107.1942Q-25.51384,1097.8478,17.313313,1060.7197Q147.44835,967.0669,157.62447,952.09564Q168.35587,943.8963,211.66861,891.0357L301.55057,771.2788Q334.99277,734.969,341.18906,734.3741Q363.2535,721.0611,388.25745,723.79224Q402.45694,724.32635,456.75546,742.3782Q472.4803,745.0502,478.10562,743.1107Q487.04727,741.1434,495.3481,735.3007L540.63684,694.6057Q551.2302,685.4441,564.2982,677.5025Q585.985,661.1073,638.9281,657.46356Q752.5874,660.97797,828.032,711.0029Q854.073,728.0454,863.209,754.58344Q866.9597,766.9996,867.4332,779.699Q867.59766,830.2421,869.1433,829.7046Q876.92053,859.2673,884.8815,863.9798Q884.917,869.99133,930.5917,893.1441Q1049.4536,939.0942,1077.227,957.2769Q1127.6663,984.69025,1155.1216,1031.2264Q1216.8608,1118.5105,1102.9965,1460.0663L114.500084,1458.6097"/> </g> <g style="fill:rgb(154,223,155); fill-opacity:1.0; stroke-linejoin: miter"> <path d="M688.7484,1409.8691L711.2477,1402.464Q812.7739,1369.3206,857.0194,1343.0354Q912.35486,1312.7599,940.4153,1265.56Q976.97595,1197.66,959.0123,1147.426Q938.7883,1101.274,870.63025,1123.7883Q839.36707,1135.0264,809.7522,1160.5398Q793.553,1172.7716,768.1648,1209.1263Q733.85596,1255.0599,688.7484,1409.8691"/> </g> <g style="fill:rgb(140,182,140); fill-opacity:1.0; stroke-linejoin: miter"> <path d="M861.92175,1312.5798L845.33997,1313.606Q829.07385,1315.2317,814.06885,1319.2562L799.37976,1323.8799Q770.6315,1334.3273,746.9298,1354.3689Q699.48083,1396.5969,688.3955,1448.6619L1035.4476,1448.6619Q1024.3619,1396.5966,976.9137,1354.3689Q929.51,1314.2853,861.92175,1312.5798 Z"/> </g> <g style="fill:rgb(140,182,140); fill-opacity:1.0; stroke-linejoin: miter"> <path d="M491.30588,1432.9161L468.80652,1425.511Q357.41708,1389.2753,311.07477,1359.1455Q264.58145,1330.5618,239.63898,1288.6066Q223.38986,1258.429,217.91084,1231.741Q215.1715,1218.3969,215.12451,1205.9247L215.75082,1193.6714Q217.05013,1181.6354,221.04213,1170.4725Q225.53632,1160.216,232.39758,1153.3514L239.85059,1147.3346Q247.89545,1142.1647,258.30737,1140.3866Q279.13123,1136.8295,309.4238,1146.8353Q345.58435,1160.7361,374.0153,1186.6027Q395.13895,1206.0704,419.64706,1243.7249Q451.2101,1295.3083,491.30588,1432.9161"/> </g> <g style="fill:rgb(154,223,155); fill-opacity:1.0; stroke-linejoin: miter"> <path d="M314.0224,1312.5798L297.4407,1313.606Q281.17444,1315.2317,266.16965,1319.2562L251.48029,1323.8799Q222.73228,1334.3273,199.03041,1354.3689Q151.58168,1396.5969,140.49619,1448.6619L487.54852,1448.6619Q476.463,1396.5966,429.01443,1354.3689Q381.61078,1314.2853,314.0224,1312.5798 Z"/> </g> <g style="fill:rgb(99,192,197); fill-opacity:1.0; stroke-linejoin: miter"> <path d="M1109.6005,1461.4042L1104.516,1465.2904Q1068.3663,1477.035,892.97034,1484.0764Q716.3602,1491.1123,477.0296,1489.7825Q248.6196,1487.9237,111.67526,1478.9052Q67.79679,1475.9897,39.39035,1472.552L15.515518,1469.0177Q-4.159522,1465.3699,-4.3807282,1461.4042Q1.5920436,1449.2341,158.75806,1441.153Q315.92404,1433.0718,552.60986,1432.7646Q789.2958,1433.0718,946.4617,1441.153Q1103.6276,1449.2341,1109.6005,1461.4042"/> </g> <g style="fill:rgb(0,0,0); fill-opacity:1.0; stroke-linejoin: miter"> <path d="M342.66043,1018.2372L342.66043,1018.23773L342.66043,1018.2382L342.66043,1018.23773L342.66043,1018.2372L342.66043,1018.23773L342.66043,1018.2382Q342.66043,1018.23773,342.66043,1018.2372 Z"/> </g> <g style="fill:rgb(0,0,0); fill-opacity:1.0; stroke-linejoin: miter"> <path d="M327.9621,1090.2745L327.9621,1090.275L327.9621,1090.2754L327.9621,1090.275L327.9621,1090.2745L327.9621,1090.275L327.9621,1090.2754Q327.9621,1090.275,327.9621,1090.2745 Z"/> </g> <g style="fill:rgb(0,0,0); fill-opacity:1.0; stroke-linejoin: miter"> <path d="M327.9621,1090.2745L327.9621,1090.275L327.9621,1090.2754L327.9621,1090.275L327.9621,1090.2745L327.9621,1090.275L327.9621,1090.2754Q327.9621,1090.275,327.9621,1090.2745 Z"/> </g> <g style="fill:rgb(0,0,0); fill-opacity:1.0; stroke-linejoin: miter"> <path d="M514.93384,1291.3727L520.7162,1291.3733L526.4984,1291.3739Q526.4984,1375.7943,526.4983,1460.2148Q520.71606,1460.2155,514.93384,1460.2155Q514.93384,1375.7943,514.93384,1291.3727 Z"/> </g> <g style="fill:rgb(0,0,0); fill-opacity:1.0; stroke-linejoin: miter"> <path d="M473.81766,1289.4103L481.57983,1289.7063L489.34186,1290.0015Q487.38055,1341.5404,485.41934,1393.0797Q477.6574,1392.7853,469.89517,1392.4901Q471.8564,1340.95,473.81766,1289.4103 Z"/> </g> <g style="fill:rgb(0,0,0); fill-opacity:1.0; stroke-linejoin: miter"> <path d="M320.8313,1286.3914L326.6137,1286.3918L332.39612,1286.3925Q332.3961,1370.8125,332.39584,1455.2336Q326.61353,1455.2339,320.831,1455.2344Q320.8312,1370.8125,320.8313,1286.3914 Z"/> </g> <g style="fill:rgb(0,0,0); fill-opacity:1.0; stroke-linejoin: miter"> <path d="M315.92984,1248.4489L426.8538,1254.4066L537.7776,1260.3638Q536.5762,1282.7379,535.3744,1305.1116Q424.45038,1299.1548,313.52655,1293.198Q314.72824,1270.8237,315.92984,1248.4489 Z"/> </g> <g style="fill:rgb(0,0,0); fill-opacity:1.0; stroke-linejoin: miter"> <path d="M334.1288,1091.9364L434.34836,1095.8611L534.568,1099.7845Q531.0681,1189.173,527.56885,1278.5612Q427.34906,1274.6385,327.12946,1270.7156Q330.6291,1181.3259,334.1288,1091.9364 Z"/> </g> <g style="fill:rgb(99,112,121); fill-opacity:1.0; stroke-linejoin: miter"> <path d="M414.45886,1038.9696L414.45886,1038.9706Q405.72202,1044.4269,401.05457,1042.0878Q398.27496,1040.4923,396.89703,1038.0763Q394.33542,1034.012,392.44727,1027.1099Q390.5591,1020.20795,389.8729,1012.3174Q389.39764,1002.65656,389.8085,1000.93604Q389.66177,998.84515,391.79028,990.957Q393.84857,984.964,397.25464,980.5514Q408.8239,966.18243,426.5031,965.23566Q433.33344,965.2572,440.01813,968.2705Q447.09296,971.37854,457.9784,979.1051L414.45886,1038.9696 Z"/> </g> <g style="fill:rgb(0,0,0); fill-opacity:1.0; stroke-linejoin: miter"> <path d="M389.39832,1391.0662L390.23175,1394.2155Q396.15314,1414.9751,394.7529,1426.1315Q394.41278,1428.5978,393.72095,1430.8359L392.95996,1433.0171Q392.12054,1435.1415,391.04373,1437.0396Q389.51474,1440.1395,384.84045,1445.1177Q379.71838,1450.3384,374.23755,1452.472Q371.4541,1453.9546,360.1104,1455.2957Q349.78925,1456.3849,342.37244,1455.223Q338.7959,1454.4686,338.31757,1454.1516Q337.11597,1453.6892,336.1706,1453.069Q334.20465,1451.6532,333.76666,1450.2316Q332.6414,1447.106,334.16302,1442.5104Q335.82608,1436.898,343.34882,1424.2808L352.69504,1391.7477L389.39832,1391.0662 Z"/> </g> <g style="fill:rgb(0,0,0); fill-opacity:1.0; stroke-linejoin: miter"> <path d="M468.47418,1400.1174L461.8362,1444.7532Q459.37173,1450.4927,461.4789,1453.4972Q463.39316,1455.5706,464.39218,1455.8766Q467.19965,1457.3176,471.8917,1458.385Q486.66693,1461.5704,507.0944,1462.1387Q517.22266,1461.7615,517.92883,1457.6116Q518.2606,1456.2573,517.8617,1454.4572Q518.0194,1453.7749,515.35205,1448.2566Q512.36914,1442.546,502.9061,1429.7703L501.7069,1409.867L468.47418,1400.1174 Z"/> </g> <g style="fill:rgb(20,101,105); fill-opacity:1.0; stroke-linejoin: miter"> <path d="M391.47238,1393.8597L377.6809,1400.9504L349.09723,1396.1133L322.62216,1322.7197Q313.88947,1290.3008,311.83527,1274.1505Q308.7813,1256.757,316.2311,1244.9248Q319.29932,1237.9487,353.0399,1219.0233L401.6253,1234.2561Q419.3304,1237.9741,431.59592,1237.771Q443.213,1237.3805,453.4056,1234.403Q460.4611,1232.7849,482.90076,1224.3561L514.24915,1215.7181Q514.4363,1218.3953,518.0502,1222.8173L530.8169,1236.3705Q536.8412,1243.2379,537.9087,1245.0162Q545.4916,1256.4209,546.245,1262.4833Q548.19336,1268.0277,545.84717,1282.8739Q543.82996,1293.573,535.8063,1314.0485L511.79233,1417.1187L473.62595,1410.3044L464.16632,1402.2734L480.08008,1301.8594L452.572,1280.1827L428.38287,1280.7863L378.7472,1290.7229L383.90836,1312.1963L391.47238,1393.8597 Z"/> </g> <g style="fill:rgb(33,50,96); fill-opacity:1.0; stroke-linejoin: miter"> <path d="M516.50964,1217.4733L468.8308,1232.5282Q436.90195,1241.2014,418.80566,1238.2158Q399.6783,1236.6869,351.37802,1219.6006Q336.3878,1114.341,341.68582,1092.2Q342.83853,1080.8065,352.58542,1070.9486Q358.55875,1064.0492,385.87897,1055.1912L397.9559,1051.5919L485.0583,1061.8975Q499.83273,1069.4808,506.20657,1078.1543Q511.44498,1084.7543,514.7539,1096.0463Q515.94727,1097.9785,518.23413,1116.5902Q521.1472,1138.5134,516.50964,1217.4733 Z"/> </g> <g style="fill:rgb(255,255,255); fill-opacity:1.0; stroke-linejoin: miter"> <path d="M443.52338,1090.1854L443.52338,1090.1869Q416.70258,1075.249,406.46664,1067.4867Q398.21875,1061.3605,398.13962,1055.7184Q398.18903,1053.6909,398.7017,1051.8068L406.812,1040.6952L450.44376,1038.9069L467.5176,1059.579L443.52338,1090.1854 Z"/> </g> <g style="fill:rgb(255,189,144); fill-opacity:1.0; stroke-linejoin: miter"> <path d="M429.05096,1076.0477L408.9567,1048.202L409.69928,1034.9606L405.61682,1020.14636L413.18686,1006.8416L423.8391,1018.335L428.4452,1014.93463L422.7309,999.13165L451.1723,973.07227Q460.18768,979.124,463.12332,983.79144Q466.33942,988.16595,469.62772,1000.1974Q478.55948,1009.60754,479.6099,1013.62695Q480.05743,1016.1829,477.3054,1017.1836Q475.19977,1018.10876,469.21152,1018.7054L475.94928,1026.3839L471.0454,1029.5204L472.19385,1031.7562L472.59738,1036.104Q475.0247,1040.4608,475.6911,1043.2538Q476.36462,1046.8732,475.46182,1048.8274Q473.59964,1053.0785,469.7939,1054.517Q465.23898,1056.4186,455.73532,1057.2826L429.05096,1076.0477 Z"/> </g> <g style="fill:rgb(255,187,155); fill-opacity:1.0; stroke-linejoin: miter"> <path d="M436.09073,1126.2411L436.09073,1126.2418L417.98355,1116.1693L429.92804,1082.4823Q430.8624,1072.0375,432.7323,1068.9005Q434.88525,1063.9645,440.14862,1060.0652Q447.7427,1054.6849,455.34833,1053.0182Q459.58615,1051.9222,462.26797,1053.8723Q464.2846,1055.3546,464.20474,1061.3854Q464.1793,1062.7328,464.11496,1064.1151L454.32733,1061.6649Q448.26855,1063.5232,446.19156,1068.3073Q444.91125,1071.6691,444.95114,1077.2113Q444.9069,1081.7015,445.7339,1091.2828L436.09073,1126.2411 Z"/> </g> <g style="fill:rgb(255,189,144); fill-opacity:1.0; stroke-linejoin: miter"> <path d="M468.4989,1123.3754L468.4989,1123.3762L462.7004,1103.1058L455.42218,1095.1483L458.63998,1076.8273L456.8852,1061.961L465.64136,1056.5197L478.3331,1068.036L481.53717,1096.5833L486.11505,1115.4478L468.4989,1123.3754 Z"/> </g> <g style="fill:rgb(0,0,0); fill-opacity:1.0; stroke-linejoin: miter"> <path d="M441.57,1133.8185L446.02322,1134.2043L450.47653,1134.5906Q436.21164,1299.4186,421.9469,1464.2479Q417.4936,1463.8635,413.0402,1463.4784Q427.30502,1298.6482,441.57,1133.8185 Z"/> </g> <g style="fill:rgb(61,14,7); fill-opacity:1.0; stroke-linejoin: miter"> <path d="M442.66904,1134.4327L442.66904,1134.4332Q492.44223,1034.5677,442.66904,1134.4327 Z"/> </g> <g style="fill:rgb(61,14,7); fill-opacity:1.0; stroke-linejoin: miter"> <path d="M446.41843,1078.464L451.95248,1079.0391L457.48642,1079.6139Q454.3675,1109.668,451.2484,1139.7227Q445.71414,1139.1484,440.18005,1138.575Q443.2992,1108.5194,446.41843,1078.464 Z"/> </g> <g style="fill:rgb(61,14,7); fill-opacity:1.0; stroke-linejoin: miter"> <path d="M463.9547,1073.3813L463.6729,1074.7328Q462.4458,1078.7643,458.93585,1080.7941Q455.4042,1082.8192,451.15024,1081.7501Q447.11908,1080.5232,445.08905,1077.0128Q444.43994,1075.8793,444.09543,1074.601L443.8374,1073.3007Q443.6609,1071.9706,443.85104,1070.578Q444.55432,1066.3217,447.78625,1063.881Q451.0181,1061.4401,455.30457,1061.9279Q459.56094,1062.6312,462.00177,1065.8629Q464.44266,1069.0948,463.9547,1073.3813 Z"/> </g> <g style="fill:rgb(0,0,0); fill-opacity:0.2509804; stroke-linejoin: miter"> <path d="M490.71725,1118.5844L514.522,1166.1431Q511.63272,1151.8689,507.418,1143.8655Q502.9025,1134.9318,492.30737,1120.7533L490.71725,1118.5844 Z M405.28183,1125.0273L402.73273,1127.2991Q385.86987,1141.9857,377.4172,1152.9956Q369.67432,1162.7213,360.5193,1183.8268L405.28183,1125.0273 Z M465.0295,1136.3478Q471.1883,1182.1592,473.64233,1192.5933Q476.6507,1206.4049,477.3596,1207.8682Q479.31323,1214.3911,481.96677,1218.4426Q485.7381,1223.665,490.07803,1223.665Q491.5012,1223.665,492.98544,1223.1033Q499.32462,1221.5713,512.91113,1209.6382L512.90466,1209.6395L510.59927,1210.8715Q497.67746,1217.9469,491.7397,1218.803Q490.3033,1218.9246,489.28934,1218.9246Q487.51428,1218.9246,487.03296,1218.5526Q484.50327,1217.666,482.78934,1214.6416Q480.70267,1211.9033,477.32376,1196.6279Q474.16977,1182.7245,465.03525,1136.3478 Z M437.9018,1137.3031L435.0855,1146.0251Q426.60803,1173.1266,417.5716,1194.3462Q414.5388,1201.2021,411.38168,1206.7513L408.18576,1211.8918Q404.9548,1216.6648,401.55295,1219.6409Q395.41467,1224.6187,388.80298,1224.6187Q386.07153,1224.6187,383.2591,1223.7692Q374.475,1221.9279,356.26932,1208.0168L356.26462,1208.018Q375.4803,1224.5486,385.34775,1227.5791Q390.08502,1228.8773,391.48355,1228.8773Q391.6976,1228.8773,391.8334,1228.8469Q392.20416,1228.8627,392.57275,1228.8627Q394.31052,1228.8627,396.00235,1228.5137Q400.10785,1227.6997,403.89545,1224.4639Q407.29593,1221.4849,410.43597,1216.5251L413.5228,1211.1599Q416.55045,1205.3435,419.38867,1198.0874Q426.5241,1180.3265,437.9073,1137.3031 Z"/> </g> <g style="fill:rgb(0,0,0); fill-opacity:1.0; stroke-linejoin: miter"> <path d="M365.0438,1346.5515L365.0438,1346.5521L365.0437,1346.5525L365.0438,1346.5521L365.0438,1346.5515L365.0438,1346.5521L365.0437,1346.5525Q365.0438,1346.5521,365.0438,1346.5515 Z"/> </g> <g style="fill:rgb(0,0,0); fill-opacity:1.0; stroke-linejoin: miter"> <path d="M631.556,1298.5294L625.7738,1298.5308L619.99146,1298.5317Q619.9994,1382.9523,620.0072,1467.3728Q625.78955,1467.3728,631.5718,1467.3726Q631.56396,1382.9512,631.556,1298.5294 Z"/> </g> <g style="fill:rgb(0,0,0); fill-opacity:1.0; stroke-linejoin: miter"> <path d="M672.67224,1296.5634L664.91003,1296.8595L657.14795,1297.156Q659.1139,1348.6947,661.07996,1400.234Q668.8419,1399.9385,676.6041,1399.6428Q674.63806,1348.1028,672.67224,1296.5634 Z"/> </g> <g style="fill:rgb(0,0,0); fill-opacity:1.0; stroke-linejoin: miter"> <path d="M825.65796,1293.5299L819.8756,1293.5309L814.09326,1293.532Q814.10095,1377.9519,814.10876,1462.3728Q819.8911,1462.3726,825.6736,1462.3726Q825.6658,1377.9509,825.65796,1293.5299 Z"/> </g> <g style="fill:rgb(0,0,0); fill-opacity:1.0; stroke-linejoin: miter"> <path d="M830.5559,1255.5865L719.6327,1261.5549L608.70935,1267.5228Q609.9132,1289.8967,611.1168,1312.2703Q722.04016,1306.3031,832.96326,1300.3356Q831.75964,1277.9615,830.5559,1255.5865 Z"/> </g> <g style="fill:rgb(0,0,0); fill-opacity:1.0; stroke-linejoin: miter"> <path d="M812.34265,1099.0763L712.12354,1103.0101L611.9042,1106.9432Q615.412,1196.3317,618.92004,1285.7195Q719.1393,1281.7871,819.3585,1277.8544Q815.85034,1188.4655,812.34265,1099.0763 Z"/> </g> <g style="fill:rgb(0,0,0); fill-opacity:1.0; stroke-linejoin: miter"> <path d="M757.1006,1398.2109L756.2676,1401.3607Q750.348,1422.1206,751.7494,1433.2766Q752.0895,1435.7426,752.7816,1437.9811L753.5427,1440.162Q754.3823,1442.2865,755.4595,1444.1841Q756.9885,1447.2842,761.6633,1452.2616Q766.786,1457.482,772.2667,1459.6151Q775.0503,1461.0975,786.3943,1462.4376Q796.7156,1463.5259,804.1321,1462.3633Q807.7085,1461.6084,808.1869,1461.2911Q809.38855,1460.8287,810.33374,1460.2085Q812.2997,1458.7921,812.7373,1457.3711Q813.8623,1454.2452,812.34045,1449.6498Q810.67676,1444.0374,803.1531,1431.4213L793.8041,1398.8887L757.1006,1398.2109 Z"/> </g> <g style="fill:rgb(0,0,0); fill-opacity:1.0; stroke-linejoin: miter"> <path d="M678.02563,1407.27L684.6677,1451.905Q687.1328,1457.6442,685.02576,1460.6487Q683.1116,1462.7224,682.1128,1463.0286Q679.30566,1464.4698,674.6138,1465.5378Q659.83875,1468.7245,639.41113,1469.2948Q629.28296,1468.9187,628.5764,1464.7688Q628.2444,1463.4146,628.6433,1461.6141Q628.4855,1460.9321,631.15234,1455.4136Q634.13464,1449.7028,643.59656,1436.9259L644.7938,1417.0225L678.02563,1407.27 Z"/> </g> <g style="fill:rgb(130,212,216); fill-opacity:1.0; stroke-linejoin: miter"> <path d="M768.8187,1408.094L797.4021,1403.2539L823.87036,1329.8583C829.69006,1308.2446,833.0199,1292.018,834.65295,1281.2877C836.4241,1269.6486,834.8048,1260.1978,830.2544,1252.0627C827.7742,1247.6289,815.938,1238.7795,793.44324,1226.1649L744.8594,1241.402C733.05615,1243.882,723.0648,1245.1222,714.88904,1244.9197C707.1422,1244.7281,699.91943,1243.3759,693.079,1241.5542C688.4159,1240.3118,678.5432,1237.1278,663.583,1231.5095L632.2339,1222.8749C632.1094,1224.6598,630.8425,1227.026,628.4335,1229.9745L615.66785,1243.5289C611.6522,1248.1074,609.33545,1251.0192,608.5768,1252.1754C603.5686,1259.8097,601.1653,1265.6766,600.2423,1269.6433C599.3545,1273.459,598.954,1280.1562,600.64197,1290.0334C601.8646,1297.1884,605.3352,1307.5575,610.68567,1321.2075L634.7091,1424.2751L672.875,1417.4575 Z"/> </g> <g style="fill:rgb(255,223,103); fill-opacity:1.0; stroke-linejoin: miter"> <path d="M629.97363,1224.6305L677.65356,1239.681C698.94006,1245.4609,715.54114,1246.8369,727.67944,1245.3635C740.3783,1243.8221,762.9059,1238.1359,795.1051,1226.7421C773.2544,1200.4902,800.81604,1138.3673,803.80396,1119.1284C804.97546,1111.5841,800.20776,1084.8298,793.88416,1078.0905C789.72107,1073.6539,778.8032,1068.2396,760.58923,1062.336L748.51184,1058.7377C706.4944,1046.9597,661.41064,1069.0516,661.41064,1069.0516C651.4686,1073.9232,644.6063,1079.5978,640.2638,1085.3104C636.8644,1089.7821,633.9232,1095.6744,631.71814,1103.2032C630.9226,1104.491,628.3861,1107.5302,625.9889,1119.7996C618.53015,1157.9729,650.6084,1181.9602,629.97363,1224.6305 Z"/> </g> <g style="fill:rgb(255,255,255); fill-opacity:1.0; stroke-linejoin: miter"> <path d="M702.9481,1097.3358L702.9481,1097.337Q729.76746,1082.3969,740.0027,1074.6333Q748.25,1068.5062,748.3285,1062.8643Q748.2793,1060.8367,747.76624,1058.9528L739.6549,1047.8419L696.0231,1046.058L678.9512,1066.7316L702.9481,1097.3358 Z"/> </g> <g style="fill:rgb(0,0,0); fill-opacity:1.0; stroke-linejoin: miter"> <path d="M704.9054,1140.9688L700.45215,1141.3549L695.99915,1141.7412Q710.2788,1306.5682,724.5587,1471.3958Q729.0121,1471.0107,733.46545,1470.6254Q719.1854,1305.7968,704.9054,1140.9688 Z"/> </g> <g style="fill:rgb(0,0,0); fill-opacity:0.2509804; stroke-linejoin: miter"> <path d="M713.1012,1136.4294L715.91833,1145.1509Q724.39844,1172.2516,733.43665,1193.4703Q736.4701,1200.3257,739.62756,1205.8741L742.824,1211.0146Q746.0554,1215.7871,749.45764,1218.7628Q755.5963,1223.7402,762.208,1223.7397Q764.93945,1223.7395,767.75183,1222.8895Q776.53564,1221.0475,794.74023,1207.1351L794.7449,1207.1361Q775.53064,1223.6685,765.66345,1226.6997Q760.9263,1227.9984,759.52783,1227.9984Q759.31384,1227.9987,759.1781,1227.9683Q758.80725,1227.9843,758.4387,1227.9843Q756.7009,1227.9843,755.00903,1227.6354Q750.90344,1226.8219,747.1156,1223.5863Q743.71484,1220.6078,740.57434,1215.6483L737.4868,1210.2832Q734.45874,1204.4677,731.6199,1197.2114Q724.4829,1179.4514,713.09595,1136.4294 Z"/> </g> <g style="fill:rgb(0,0,0); fill-opacity:0.2509804; stroke-linejoin: miter"> <path d="M660.2842,1117.7155L636.484,1165.2761Q639.3717,1151.0021,643.5857,1142.998Q648.10034,1134.0636,658.6942,1119.8846L660.2842,1117.7155 Z"/> </g> <g style="fill:rgb(0,0,0); fill-opacity:0.2509804; stroke-linejoin: miter"> <path d="M733.9768,1131.344L736.52625,1133.6155Q753.39026,1148.3008,761.844,1159.3099Q769.5879,1169.0348,778.74475,1190.1392L733.9768,1131.344 Z"/> </g> <g style="fill:rgb(0,0,0); fill-opacity:0.2509804; stroke-linejoin: miter"> <path d="M685.9734,1135.4764Q679.8191,1181.2882,677.36584,1191.7227Q674.35876,1205.5344,673.65,1206.9978Q671.697,1213.5208,669.04395,1217.5728Q665.2731,1222.7952,660.933,1222.7958Q659.5099,1222.7958,658.0255,1222.2345Q651.6863,1220.7032,638.09863,1208.7714L638.1051,1208.7726L640.41077,1210.0044Q653.3331,1217.0785,659.27075,1217.9338Q660.7073,1218.0555,661.72144,1218.0552Q663.49646,1218.0549,663.97754,1217.6831Q666.5073,1216.7963,668.2208,1213.7716Q670.3074,1211.0332,673.6848,1195.7576Q676.8375,1181.8538,685.96765,1135.4764 Z"/> </g> <g style="fill:rgb(0,0,0); fill-opacity:1.0; stroke-linejoin: miter"> <path d="M781.45105,1353.6938L781.45105,1353.6947L781.4512,1353.6947L781.45105,1353.6947L781.45105,1353.6938L781.45105,1353.6947L781.4512,1353.6947Q781.45105,1353.6947,781.45105,1353.6938 Z"/> </g> <g style="fill:rgb(255,166,139); fill-opacity:1.0; stroke-linejoin: miter"> <path d="M693.8008,994.60474L693.8008,994.60614L693.8008,994.605L693.8008,994.60474 Z"/> </g> <g style="fill:rgb(99,112,121); fill-opacity:1.0; stroke-linejoin: miter"> <path d="M704.687,1007.2958L685.7118,1011.6997Q684.0393,1001.45593,684.7058,993.2254Q685.84717,983.2596,689.4811,976.44617Q695.76184,963.2381,711.64856,959.3798Q731.3971,955.1751,744.0381,968.0792Q748.17285,972.26465,751.02856,977.4644Q754.2197,984.0265,754.35364,985.4496Q756.57336,993.6334,755.1738,1001.7461Q754.2201,1008.50995,750.01904,1020.6314L704.687,1007.2958 Z"/> </g> <g style="fill:rgb(255,189,144); fill-opacity:1.0; stroke-linejoin: miter"> <path d="M707.0934,1091.3097L707.0934,1091.311L694.6625,1067.6307L696.0073,1044.9736C692.31006,1040.9651,690.19055,1037.6852,689.3436,1035.234C688.5021,1032.798,688.0917,1028.7557,688.4149,1022.9969C686.39453,1021.45746,684.8142,1019.21906,683.77515,1016.247C682.48096,1012.54443,681.7213,1007.93945,681.6306,1002.4626C681.5686,998.7172,683.1505,998.9484,686.14087,1003.1566C687.3191,995.6184,689.92773,989.5571,694.2118,985.20984C697.7894,981.5798,703.771,977.7946,711.9166,973.6118C728.90625,983.7625,738.88135,991.27936,742.5625,995.5794C746.6754,1000.3841,748.3657,1006.4943,746.943,1014.5297C750.53235,1009.6174,752.9691,1007.51495,753.68445,1008.65424C755.2123,1011.0864,754.464,1015.3142,751.6001,1020.75305C749.1135,1025.4753,746.5238,1028.8248,744.31384,1031.0797C742.6526,1032.7745,741.8771,1032.7025,741.95374,1030.8309C740.5471,1035.8604,738.126,1040.5255,734.69055,1044.8263L737.2101,1068.6503 Z"/> </g> <g style="fill:rgb(255,0,0); fill-opacity:0.21568628; stroke-linejoin: miter"> <path d="M732.76917,1045.5253L731.2207,1046.723Q726.5713,1050.4484,721.9617,1052.9886Q720.4264,1053.7914,718.9,1054.3315L717.3767,1054.7893Q716.0161,1055.1725,714.0254,1055.1921Q712.6139,1055.1702,711.0856,1054.7898Q710.4126,1054.7615,707.09265,1053.2583Q706.4264,1053.0182,703.1272,1050.8802Q701.1487,1049.5736,696.552,1045.8995L714.2284,1070.7968L732.76917,1045.5253 Z"/> </g> <g style="fill:rgb(99,112,121); fill-opacity:1.0; stroke-linejoin: miter"> <path d="M746.90173,955.6543L746.9264,958.06885Q746.2848,965.42554,740.59924,970.2779Q734.8717,975.13043,726.5509,974.9974Q718.57935,974.50665,713.39307,969.33124Q711.7301,967.6572,710.57336,965.61566L709.5681,963.50214Q708.70166,961.3059,708.48987,958.85754Q708.0692,951.32526,713.0724,945.8827Q718.0757,940.4405,726.22107,939.5706Q734.3982,939.0795,740.23376,943.61816Q746.069,948.1558,746.90173,955.6543 Z"/> </g> <g style="fill:rgb(255,187,155); fill-opacity:1.0; stroke-linejoin: miter"> <path d="M710.38403,1133.3906L710.38403,1133.3915L728.49036,1123.317L716.5427,1089.6312Q715.6072,1079.1868,713.7372,1076.0499Q711.58386,1071.1141,706.3202,1067.2155Q698.72534,1061.8356,691.11975,1060.1696Q686.8817,1059.0741,684.2002,1061.0245Q682.18384,1062.5068,682.26404,1068.5377Q682.28955,1069.8851,682.3541,1071.2672L692.1415,1068.8162Q698.20044,1070.6737,700.2777,1075.4576Q701.55835,1078.8195,701.51904,1084.3618Q701.56384,1088.8517,700.7377,1098.433L710.38403,1133.3906 Z"/> </g> <g style="fill:rgb(255,187,155); fill-opacity:1.0; stroke-linejoin: miter"> <path d="M677.9757,1130.5281L677.9757,1130.5288L683.7722,1110.2579L691.0497,1102.2997L687.8301,1083.979L689.58374,1069.1129L680.82715,1063.6722L668.1366,1075.1895L664.93494,1103.7372L660.35876,1122.6022L677.9757,1130.5281 Z"/> </g> <g style="fill:rgb(61,14,7); fill-opacity:1.0; stroke-linejoin: miter"> <path d="M703.8064,1141.5829L703.8064,1141.5835Q654.02405,1041.7229,703.8064,1141.5829 Z"/> </g> <g style="fill:rgb(61,14,7); fill-opacity:1.0; stroke-linejoin: miter"> <path d="M700.052,1085.6144L694.51807,1086.1898L688.98413,1086.7655Q692.10583,1116.8192,695.22754,1146.8735Q700.7617,1146.2991,706.2958,1145.7249Q703.17395,1115.6696,700.052,1085.6144 Z"/> </g> <g style="fill:rgb(61,14,7); fill-opacity:1.0; stroke-linejoin: miter"> <path d="M682.5154,1080.534L682.7971,1081.8849Q684.02454,1085.9161,687.53467,1087.9454Q691.0664,1089.9705,695.32043,1088.9009Q699.35156,1087.6733,701.3811,1084.1633Q702.0303,1083.0294,702.3745,1081.7513L702.6323,1080.4512Q702.80884,1079.121,702.61865,1077.7285Q701.9149,1073.4722,698.68286,1071.0317Q695.4507,1068.5912,691.1644,1069.0792Q686.90796,1069.7828,684.4675,1073.0151Q682.02686,1076.2472,682.5154,1080.534 Z"/> </g> <g style="fill:rgb(255,183,126); fill-opacity:1.0; stroke-linejoin: miter"> <path d="M515.31384,1346.7577Q515.18396,1346.7594,514.81604,1347.1294L514.6168,1347.2192Q514.4313,1347.2549,514.1465,1347.2404Q511.85147,1347.0261,511.9553,1347.1068L509.6116,1347.8972Q508.53683,1348.2931,507.15384,1350.2432L505.6652,1353.0303L503.4827,1358.383Q502.41635,1361.3549,501.95142,1364.7297Q501.66757,1366.5204,501.94907,1367.5337Q502.2653,1368.6335,502.59207,1369.2128L503.3361,1370.281Q503.99368,1371.6732,504.32254,1372.1469Q504.7023,1372.741,505.32034,1373.3715Q508.97604,1377.0433,510.62314,1378.2069Q511.35294,1378.8647,513.7656,1379.6542Q515.89294,1380.596,519.78723,1379.7277L521.9253,1379.1699Q524.245,1378.9497,524.33984,1378.8257Q524.85034,1378.7115,525.7639,1377.6119L515.324,1346.7871 Z"/> </g> <g style="fill:rgb(251,99,16); fill-opacity:1.0; stroke-linejoin: miter"> <path d="M578.7766,1247.9741L576.41174,1255.0823Q576.2383,1255.3788,575.3778,1265.0151Q572.9147,1276.9628,572.86096,1278.9941Q572.46436,1286.8206,574.42834,1290.0667Q575.16675,1290.6316,576.8668,1291.6512L583.94165,1295.5985Q584.1112,1295.8798,589.5403,1296.5409L596.53235,1298.0262Q600.8269,1298.9573,603.9553,1300.6846Q604.47656,1300.8667,604.98926,1300.7637Q605.31934,1300.6866,605.58057,1300.4008Q606.47144,1298.9103,607.2433,1298.1655Q607.6566,1297.6149,612.71533,1293.534Q613.329,1292.9717,613.7544,1292.167Q614.1929,1291.3357,614.3533,1290.5676Q615.12244,1285.5609,615.9708,1282.7482Q616.26355,1279.9888,616.5925,1279.1135L578.7838,1247.9802 Z"/> </g> <g style="fill:rgb(64,57,57); fill-opacity:1.0; stroke-linejoin: miter"> <path d="M545.97034,1461.4347L521.3541,1462.6077Q517.2988,1477.6787,518.03625,1481.6602Q518.4546,1486.1824,524.1614,1486.3135L530.4719,1486.4991Q532.2969,1486.4744,533.94214,1486.1455Q537.52014,1485.4431,541.02673,1482.8723Q547.5526,1477.8949,548.80725,1473.3562Q549.1548,1471.9238,548.79443,1470.3961Q548.4341,1468.7179,546.5349,1465.9163L545.9728,1461.4537 Z"/> </g> <g style="fill:rgb(255,255,255); fill-opacity:1.0; stroke-linejoin: miter"> <path d="M622.072,1447.7859L609.4531,1445.2534L601.5725,1448.2747Q602.5812,1453.7465,602.4198,1455.8431Q602.30066,1458.5988,601.0571,1460.213Q600.1493,1461.481,597.9752,1462.4657Q597.05334,1462.8844,595.7743,1463.3141Q590.10315,1465.0457,589.6835,1465.2638Q587.9381,1465.9183,586.83887,1466.6511Q584.2019,1468.3992,583.8843,1471.699Q584.03503,1477.9397,589.2361,1477.5829Q590.4276,1477.5024,592.02124,1477.0679Q593.6677,1476.6316,596.9917,1475.3667L609.21497,1472.1752Q614.8358,1471.3329,617.272,1470.6588Q619.9326,1469.9457,621.3529,1469.0416Q623.6293,1467.726,623.7169,1464.9336Q623.7527,1463.8422,623.5143,1462.5035Q621.93835,1455.9819,621.97656,1454.852Q621.69214,1452.2131,622.0698,1447.815 Z"/> </g> <g style="fill:rgb(64,57,57); fill-opacity:1.0; stroke-linejoin: miter"> <path d="M598.10754,1456.893Q597.583,1456.9004,596.6614,1457.559L592.5836,1460.8435Q591.4988,1461.6698,590.5404,1462.2073Q588.4398,1463.3762,586.1543,1463.5732Q583.568,1463.7979,580.619,1462.8644Q579.3506,1462.4662,577.9995,1461.8715L572.57336,1459.3436Q571.3126,1458.8206,570.4697,1458.6477Q568.31506,1458.1874,567.55383,1459.5785Q566.52136,1461.2607,566.8767,1466.6572Q566.86487,1468.0038,568.4381,1480.7698Q568.6207,1482.1228,569.0802,1483.2744Q571.583,1489.1064,579.3439,1489.2975Q583.75635,1489.278,587.85376,1487.1106Q591.84204,1484.9258,593.9,1481.3981Q594.83545,1479.7618,595.25525,1478.061Q597.69653,1467.6918,598.391,1463.5505Q599.00415,1459.9935,598.92834,1458.4059Q598.8562,1456.8435,598.11804,1456.893 Z"/> </g> <g style="fill:rgb(255,255,255); fill-opacity:1.0; stroke-linejoin: miter"> <path d="M760.9408,1412.9435Q757.2644,1412.9943,747.50366,1418.8367L722.2052,1448.8455Q711.4525,1459.1677,708.4984,1463.6691Q704.3916,1469.44,706.64075,1472.9044Q709.36755,1476.7537,717.00916,1476.8374Q726.72095,1476.7147,737.4763,1470.543Q747.5935,1464.5839,753.9675,1455.134Q762.62915,1442.1158,765.6355,1427.9263Q766.7333,1424.006,764.40186,1415.9526Q763.57495,1412.984,761.03357,1412.9443 Z"/> </g> <g style="fill:rgb(0,0,0); fill-opacity:1.0; stroke-linejoin: miter"> <path d="M616.06335,1093.7084Q609.79785,1093.8027,603.53784,1097.5516Q594.46814,1103.2119,588.70447,1109.8054Q585.6489,1113.361,584.8871,1118.6212L583.74036,1126.9675Q583.6791,1129.247,584.7693,1132.3939Q586.63806,1137.6134,591.18945,1146.0046L639.4834,1160.9475Q643.91223,1159.8302,646.21387,1158.1964L653.4487,1152.6101Q654.60767,1151.6152,654.8744,1150.6956Q656.3236,1137.877,656.06226,1133.3461Q655.24963,1119.5935,653.7892,1116.8375Q649.35693,1104.8859,639.94775,1098.9373Q632.7251,1094.2362,616.1489,1093.7074 Z"/> </g> <g style="fill:rgb(255,189,144); fill-opacity:1.0; stroke-linejoin: miter"> <path d="M603.5438,1113.6656Q591.98865,1115.4501,588.6587,1125.7167Q587.8512,1128.6525,587.94434,1133.4514Q587.9951,1137.5884,589.224,1146.5873L588.746,1154.7308Q588.89465,1161.6724,589.5022,1165.3936Q590.1293,1169.8295,592.2831,1174.5161L602.92017,1194.7533Q604.9485,1198.4177,612.11206,1198.1941L610.7406,1204.8734L607.3353,1215.9985L613.54834,1240.4811L623.97107,1244.7222L630.4608,1237.7004L642.5652,1217.2885L644.0614,1208.2346L646.9879,1197.7775Q647.5676,1175.1334,647.4686,1167.3103Q651.8882,1168.0009,653.65845,1164.0891Q659.10315,1152.9875,658.43994,1147.569Q656.97314,1141.8524,651.3993,1142.0958Q650.4614,1142.5388,650.1561,1143.5916L648.12573,1151.7281L644.1057,1153.8209L644.6044,1150.0192L642.47534,1127.7789Q642.33167,1126.4028,642.13306,1125.568Q641.1122,1120.7257,635.3894,1116.9581Q632.00525,1114.89,628.64197,1114.5924Q627.1017,1114.4257,624.99036,1114.5236Q615.4498,1115.4714,614.87146,1115.2255L603.57263,1113.6649 Z"/> </g> <g style="fill:rgb(0,0,0); fill-opacity:1.0; stroke-linejoin: miter"> <path d="M607.8839,1294.4937Q600.5216,1297.2213,595.2632,1309.0094Q590.1422,1320.9319,590.04785,1335.3936Q589.17444,1355.3564,607.54614,1400.1914L655.53174,1379.493L655.6261,1370.6605Q655.81116,1351.5568,653.3805,1340.1346Q651.08655,1328.6732,645.0029,1319.0504Q637.13684,1306.6119,625.5543,1298.6792Q615.3191,1291.8168,607.99426,1294.454 Z"/> </g> <g style="fill:rgb(0,0,0); fill-opacity:1.0; stroke-linejoin: miter"> <path d="M552.0382,1176.6191Q545.93225,1176.2886,535.26465,1182.1931L530.3179,1187.5345L526.7958,1192.4348L525.33105,1196.2045L523.6161,1203.0574L525.4221,1210.4072L527.636,1215.0272L530.1057,1224.8512L533.7782,1228.6418L582.5128,1227.6843L584.44556,1225.4838L585.45557,1223.086Q586.91736,1219.4003,587.2029,1215.9392L587.14307,1209.4532L586.24695,1204.5422Q586.3065,1199.2512,585.6835,1196.4567Q584.9603,1193.083,583.1786,1190.6641Q579.07214,1185.0941,570.2047,1181.0454Q560.3252,1176.7468,552.0864,1176.6188 Z"/> </g> <g style="fill:rgb(255,189,144); fill-opacity:1.0; stroke-linejoin: miter"> <path d="M556.4337,1193.5867Q548.4083,1193.6448,544.0696,1195.1008Q537.17773,1198.475,535.0519,1200.7471Q533.0354,1202.6975,532.725,1205.6832Q532.6096,1206.7638,532.62805,1207.8147Q532.9248,1213.5308,532.81213,1215.5306Q532.75,1218.4427,532.2212,1224.433L528.6942,1219.6881Q526.95935,1220.867,526.8705,1223.1521Q526.7582,1227.0052,528.1814,1229.6273Q529.03235,1231.2616,531.74304,1233.297Q539.4126,1244.4209,541.46826,1248.4662L537.4597,1253.813Q537.4934,1264.2241,538.1675,1268.0986Q544.31274,1273.0248,551.04504,1272.5219Q556.9032,1272.5844,561.58057,1270.3523L573.8871,1263.5024Q576.8567,1261.69,577.85315,1260.3584Q578.739,1259.0275,577.7095,1258.1909Q577.1323,1257.6495,576.0464,1257.1464Q569.9181,1254.832,569.9009,1254.5365Q568.3767,1253.5524,568.7025,1251.9297Q568.9254,1250.9396,569.958,1249.5441Q570.28296,1248.9148,575.3932,1243.2201Q576.4136,1241.9333,577.05457,1240.5261Q580.96204,1238.7688,582.0492,1236.7809Q582.8656,1235.5692,583.9453,1232.7377Q585.6764,1227.0626,585.7207,1225.4121Q585.8303,1224.361,585.36145,1223.8917L584.801,1223.7166Q582.91736,1223.8693,582.46826,1223.6288Q581.63416,1223.2969,581.333,1222.2034Q581.0581,1221.1831,581.05066,1219.4724Q581.57715,1207.7229,581.17676,1206.5183Q580.69714,1202.7808,578.6327,1200.6295Q569.95105,1192.9622,556.4823,1193.5867 Z"/> </g> <g style="fill:rgb(0,0,0); fill-opacity:1.0; stroke-linejoin: miter"> <path d="M489.51453,1115.8805Q464.54895,1117.885,452.0345,1132.9161Q447.62698,1138.4464,443.89264,1147.0599Q441.4675,1152.4869,437.34326,1164.442L431.44788,1176.0455L425.86432,1189.9194L422.84897,1199.4329L424.9497,1205.4225L441.62872,1228.0048L449.951,1240.8331L454.46323,1249.6304L510.7664,1227.5983L513.49036,1221.6489Q517.79224,1215.3362,526.369,1206.7571L530.96155,1194.0712L533.6776,1183.6082Q533.8876,1182.3551,534.056,1181.0629Q534.756,1176.2374,533.9314,1170.9241Q531.51904,1157.5115,522.7997,1140.3848Q511.05362,1116.6749,489.68613,1115.8805 Z"/> </g> <g style="fill:rgb(33,50,96); fill-opacity:1.0; stroke-linejoin: miter"> <path d="M506.4268,1370.8942L385.39478,1372.8115Q381.73962,1399.2777,383.21564,1410.1761Q383.67697,1413.642,384.79532,1416.5673Q391.25494,1429.1399,391.5782,1432.198Q392.20944,1434.5962,392.6415,1437.9607Q394.23703,1455.7207,394.98944,1458.7397Q396.2349,1465.6659,398.54324,1470.5048Q404.34015,1484.3073,425.05472,1484.439Q437.2788,1484.6301,452.2867,1480.9713Q468.2607,1476.8936,473.6096,1472.4669Q504.45273,1483.8766,518.3058,1472.5884Q528.33777,1462.9719,524.9297,1433.3292Q520.4248,1398.1046,506.5242,1371.1002 Z"/> </g> <g style="fill:rgb(30,61,92); fill-opacity:1.0; stroke-linejoin: miter"> <path d="M587.1035,1316.7585Q586.91455,1316.6295,587.61523,1320.2233L590.81274,1335.5623L516.6835,1349.0573Q522.64685,1383.0181,524.3898,1395.2797Q525.91125,1405.8909,525.8811,1413.9396Q525.9142,1423.5249,523.9912,1435.5189Q522.6339,1444.9501,516.95557,1471.2656L551.12195,1468.1422L550.60864,1446.402Q559.02905,1452.7909,561.76526,1456.3516Q564.4225,1459.4972,566.42737,1466.2628L601.4144,1462.9176Q600.6183,1461.844,600.0443,1458.4862Q598.0409,1441.2633,597.1649,1437.7498Q595.8939,1431.4982,594.176,1426.992Q592.442,1422.3248,589.7965,1418.3385L579.4678,1404.6136Q577.83435,1401.9233,577.7788,1400.2487Q577.572,1398.3092,579.23096,1396.2296Q590.0375,1386.1946,591.7346,1382.391Q594.93384,1377.0728,595.72656,1369.9214Q597.4131,1350.1465,587.1156,1316.7615 Z"/> </g> <g style="fill:rgb(0,0,0); fill-opacity:1.0; stroke-linejoin: miter"> <path d="M715.32434,1351.2618Q683.29297,1352.7622,663.73474,1353.2678Q657.2073,1353.6436,650.6471,1355.2537Q612.6057,1366.0254,588.5763,1381.8223Q569.22754,1394.7452,567.9938,1408.8826Q566.625,1425.8976,581.7937,1441.62Q591.94653,1451.7654,604.8093,1453.8497Q608.54626,1454.5349,614.02014,1454.7042Q639.5034,1454.0588,644.51184,1454.9137Q648.3351,1454.907,682.85803,1460.0985L694.00916,1461.2782Q724.5851,1463.6516,738.45264,1454.0399Q747.97253,1447.5521,753.4231,1433.9846Q756.9784,1424.4696,756.4695,1418.7316Q756.3093,1414.4003,750.9547,1413.3427L761.58276,1395.0099Q751.41626,1397.8921,749.62024,1393.2463Q747.28906,1389.3724,749.2291,1370.2766L739.4353,1375.292L715.4923,1351.4298 Z"/> </g> <g style="fill:rgb(33,50,96); fill-opacity:1.0; stroke-linejoin: miter"> <path d="M646.0674,1169.7062Q647.1012,1182.7285,643.20874,1194.6193Q639.827,1206.1918,625.2401,1237.8248Q616.6041,1232.0371,611.2562,1202.4816L603.2904,1213.8784L589.771,1229.6472L582.19617,1239.7578Q575.95667,1249.2389,578.1644,1252.8704Q579.026,1254.679,581.2705,1256.1083L590.4824,1260.6798Q592.2715,1261.642,593.7013,1263.1008Q595.00574,1264.4266,596.18274,1267.001Q600.4546,1279.1029,602.1854,1281.8625Q604.5864,1286.479,608.8535,1291.686Q617.43726,1302.6189,647.2947,1328.5903L682.95264,1318.0192L674.01514,1297.7227L716.88586,1284.0841L715.5558,1358.7213L740.37537,1377.3962L748.48706,1373.3818L745.1372,1396.6858L772.87744,1394.6694Q775.0038,1353.355,773.58936,1335.1309Q772.275,1316.3179,766.2175,1302.6582L761.8374,1293.7524Q746.7457,1267.712,744.69104,1262.6713Q742.8385,1259.5526,732.5106,1232.3662Q730.2678,1226.9397,728.02405,1222.5266Q723.4618,1213.4344,717.47253,1206.7295Q709.22473,1197.479,693.8435,1189.4463Q690.5741,1186.816,646.0869,1169.7123 Z"/> </g> <g style="fill:rgb(255,223,103); fill-opacity:1.0; stroke-linejoin: miter"> <path d="M431.62796,1201.7126Q418.1134,1201.7494,411.82797,1205.5614Q408.73837,1207.3804,406.1964,1210.0419Q404.31104,1211.776,398.49152,1219.8021Q397.6794,1220.8892,395.4616,1222.2518L422.68286,1247.1836L427.39902,1253.3204L419.64438,1296.5823Q418.33456,1304.265,417.95728,1308.707Q416.8735,1321.3074,417.3313,1323.6766Q417.54636,1327.0271,420.17902,1330.3953L397.01694,1326.7643Q391.50687,1350.5813,381.62512,1375.1824Q381.33188,1378.9349,389.12344,1379.8378Q397.30807,1381.0463,420.80823,1380.8834Q459.65967,1380.4524,487.5803,1378.352Q504.0427,1377.0754,506.15628,1373.6495Q508.22934,1371.5853,506.69333,1365.3651Q505.94046,1362.3114,504.31717,1358.1025Q494.9163,1336.4032,494.6495,1334.1185Q492.14642,1325.2665,493.2996,1320.3439Q493.75128,1318.0085,495.91498,1316.106Q511.10715,1307.5349,512.8202,1303.4507Q514.11523,1302.4264,515.11487,1292.6522Q518.1052,1284.73,517.99426,1283.7839Q518.65063,1282.7322,517.0067,1273.3779Q516.9236,1271.2434,517.7108,1269.2971Q518.48584,1267.2837,520.9573,1265.0726Q534.3119,1255.2527,534.10706,1254.6855Q536.90515,1251.618,536.89514,1248.6136Q537.1033,1245.5352,534.87036,1240.9652Q531.4916,1235.1711,528.3778,1228.1963Q527.07886,1225.9858,524.7543,1223.7803Q521.7527,1221.076,519.2285,1220.4196Q508.02518,1219.6177,507.65396,1218.8159Q505.8649,1218.1372,504.15176,1217.193L499.40494,1214.354Q506.82974,1237.6161,502.10275,1247.2697Q495.63065,1263.1699,481.86258,1260.0343Q475.85175,1257.2565,459.2985,1233.1335Q450.65704,1220.4261,443.66208,1202.0693Q437.57013,1201.698,431.66132,1201.7126 Z"/> </g> <g style="fill:rgb(255,189,144); fill-opacity:1.0; stroke-linejoin: miter"> <path d="M402.8866,1220.4167Q397.77167,1222.9772,395.8134,1243.1156Q393.74377,1260.682,391.1185,1329.6337Q409.0024,1358.6077,420.02023,1374.6738L427.91,1385.7415L445.45316,1408.8196Q447.606,1412.3091,448.0033,1414.9073Q448.4747,1415.6682,447.91843,1423.5897Q447.97726,1425.0768,448.92563,1427.1207Q450.5533,1430.9163,459.07285,1439.6971L463.0102,1445.6782L469.83,1447.5706L476.49466,1446.8424L480.52005,1442.5737L481.3247,1436.2788Q481.0195,1423.5928,481.317,1422.5492Q481.2519,1420.7263,480.8566,1419.2112Q480.04745,1415.1284,474.0251,1408.5767L468.44235,1402.7507Q458.1849,1395.0171,457.90442,1393.8866Q456.4628,1389.036,419.05975,1326.7878L430.09586,1248.4979L403.00116,1220.5344 Z"/> </g> <g style="fill:rgb(255,189,144); fill-opacity:1.0; stroke-linejoin: miter"> <path d="M488.47318,1135.1843Q482.15216,1135.2029,475.83124,1140.1034Q469.26395,1145.1683,467.49634,1151.6125Q464.11826,1163.0557,465.65027,1176.1646Q466.4826,1183.0275,468.2588,1189.645Q469.60245,1195.2444,473.68677,1203.9254Q474.2836,1205.613,474.0726,1207.6387Q473.8297,1211.1486,468.7697,1217.9851Q463.2083,1225.553,457.68954,1230.1398Q457.32315,1232.3146,457.3021,1234.1875Q456.94556,1242.2437,467.88327,1252.2911Q477.92056,1261.1206,487.35648,1261.0769Q494.55002,1261.0676,501.0171,1255.7421Q508.74893,1249.181,511.90237,1240.9652Q513.59436,1236.441,512.0326,1232.2164Q510.95914,1229.0377,505.95676,1223.8048L501.26596,1212.3568Q517.2417,1195.8063,516.374,1178.7312Q516.39417,1175.405,516.2754,1172.5962Q514.55896,1165.9651,513.53235,1162.4877Q510.45743,1151.8016,506.80777,1146.0863Q499.8201,1135.5511,488.4888,1135.1838 Z"/> </g> <g style="fill:rgb(0,0,0); fill-opacity:1.0; stroke-linejoin: miter"> <path d="M443.04794,1197.9751L440.0086,1206.6564L438.80923,1219.444L440.98065,1228.506L446.5756,1236.9426L446.77975,1241.9082L447.29523,1246.8806L452.66992,1248.4773Q450.22723,1252.8231,449.30878,1255.4292Q448.87744,1256.5983,448.47913,1258.0204Q446.74756,1264.7668,446.5486,1265.1923Q446.32553,1266.0686,444.59778,1270.2363Q444.25928,1271.1542,444.0975,1271.8704Q443.27634,1275.1453,445.78125,1279.3191Q447.59592,1282.3741,450.48996,1283.5623L455.9723,1276.5248L452.3764,1273.2902L453.80545,1266.8828L455.5703,1263.608L457.45166,1257.6642L458.40408,1251.9387L457.86688,1244.0288L454.3958,1236.2349L457.43454,1229.059L459.69836,1225.1038L443.06952,1198.0098 Z"/> </g> <g style="fill:rgb(0,0,0); fill-opacity:1.0; stroke-linejoin: miter"> <path d="M466.30304,1216.7882L456.35757,1229.5863L461.00455,1228.0312L464.4404,1228.5732L465.54883,1232.9805L465.27032,1236.0267L463.11847,1239.9773L460.94507,1243.108Q466.8377,1240.9885,467.8401,1240.1472Q468.18637,1239.9072,468.56552,1239.5499L472.1039,1236.1249Q473.06665,1235.0983,473.1658,1234.496Q473.2361,1234.147,473.0633,1233.771Q473.00146,1233.6318,472.86664,1233.4274Q471.9724,1232.2585,471.84262,1231.95Q471.5068,1231.2982,471.43747,1230.6665Q471.34668,1230.0156,471.43372,1228.9315L471.9166,1224.9847Q471.95215,1224.1886,471.77057,1223.7539Q471.65372,1223.4326,471.36063,1223.0901Q469.81467,1221.6195,468.99167,1220.5153Q467.9046,1219.1326,466.31192,1216.8016 Z"/> </g> <g style="fill:rgb(255,183,126); fill-opacity:1.0; stroke-linejoin: miter"> <path d="M525.06335,1254.3273L517.98535,1259.7032Q517.12305,1260.3906,516.51733,1261.1079Q514.70935,1263.1675,514.3789,1266.9243Q513.9916,1271.2742,514.7893,1276.9407Q515.3799,1281.0779,516.7605,1282.9247Q514.07263,1293.2106,513.4198,1297.2905Q512.6017,1301.8833,512.7544,1306.0735Q512.8069,1308.2686,513.2997,1312.2715L516.5171,1329.5984L519.33716,1313.3396L525.05493,1254.4115 Z"/> </g> <g style="fill:rgb(255,183,126); fill-opacity:1.0; stroke-linejoin: miter"> <path d="M588.8804,1260.2527L580.7605,1269.2645Q579.5508,1270.6604,578.8312,1271.9576Q576.96924,1275.2622,577.2377,1281.2319Q577.24646,1282.0654,577.9696,1283.626Q585.87036,1299.2368,588.0438,1304.7468Q588.9276,1306.9302,589.3987,1308.7542Q589.61316,1309.3013,590.19946,1313.3356Q590.3927,1314.2566,590.8053,1315.4473Q591.9053,1318.7291,595.5751,1326.042Q596.21277,1327.5428,596.865,1330.1654L601.22156,1351.1912Q601.93823,1354.5948,603.52075,1357.5513Q603.8771,1358.7391,603.98193,1360.077Q604.1835,1362.295,603.36646,1363.6383Q603.3894,1364.105,599.83875,1365.9631Q599.18164,1366.5015,598.93274,1367.403Q598.3169,1371.3939,600.3699,1374.0856Q601.36475,1375.2289,603.6929,1374.6249Q604.2095,1374.588,609.3447,1372.5233Q612.8528,1371.9353,617.4,1370.4312L623.8646,1367.9951Q631.8446,1364.5903,631.4486,1360.4115Q631.1417,1358.0646,628.2412,1357.1984Q627.39954,1356.9213,626.5503,1356.7229L618.40247,1356.0383L615.0292,1331.6926L612.5498,1319.0192L608.4525,1303.498L593.39014,1264.978L588.91675,1260.2904 Z"/> </g> <g style="fill:rgb(255,255,255); fill-opacity:1.0; stroke-linejoin: miter"> <path d="M540.6848,1249.3213Q531.73816,1249.8229,528.45166,1251.5514Q524.9065,1253.1195,523.71765,1257.5896Q522.93945,1260.2637,522.46277,1265.8014Q520.03577,1306.8503,518.41345,1317.2874Q517.41296,1325.1396,515.7307,1332.0071Q515.3008,1334.4254,510.6133,1349.2577Q510.02628,1352.3158,511.01956,1353.8527Q513.5851,1356.9412,516.1841,1356.7418Q531.1343,1357.0481,552.4813,1353.6917L589.9844,1347.8607Q594.4684,1345.0763,594.67505,1341.5579Q594.96594,1339.1586,593.9407,1335.5945Q594.0912,1335.3438,588.6852,1320.5782Q587.6256,1317.3479,587.2793,1315.1871Q586.9326,1313.1368,587.04175,1311.0349Q586.96875,1309.9691,588.2637,1304.1136Q588.4198,1302.961,588.07275,1301.4316Q587.6852,1299.8999,586.85315,1298.2504Q581.83923,1289.3389,581.322,1287.699Q579.81995,1284.1254,579.6343,1280.9375Q578.54944,1274.0045,590.5896,1261.3582Q581.29785,1254.6829,576.47266,1255.6608Q573.77844,1256.0786,570.82886,1258.1733Q569.4313,1259.153,567.84924,1260.5701L562.5321,1265.5913Q561.1853,1266.7148,559.9968,1267.1696Q554.7822,1268.8226,547.3507,1267.4315Q541.87317,1266.1951,540.58704,1262.3408Q539.1741,1258.9254,540.6599,1249.5248 Z"/> </g> <g style="fill:rgb(255,189,144); fill-opacity:1.0; stroke-linejoin: miter"> <path d="M720.62537,1275.059L668.52026,1294.1471L678.6931,1318.4213Q667.05896,1322.305,654.7322,1323.8566L596.48987,1330.0933Q587.89636,1331.0334,586.4752,1330.8525Q584.78674,1330.7385,584.05225,1330.0148Q580.34656,1324.8745,567.067,1314.8177Q557.6515,1307.8354,556.57654,1308.4668Q555.4188,1308.6134,558.0377,1313.1261Q566.2461,1322.1564,567.54443,1325.2675Q569.2268,1328.7622,566.92554,1329.8582Q564.9984,1330.8502,559.2273,1330.1777Q557.9806,1330.4288,529.57007,1324.6075Q525.0287,1323.865,524.605,1325.0825Q524.8895,1326.7385,531.0642,1329.8395Q534.33496,1331.8684,554.37634,1338.357Q557.63086,1339.6774,556.6072,1340.8912Q553.9834,1343.7748,523.6848,1341.4436Q520.8325,1342.9736,520.9846,1343.8722Q520.83997,1345.0065,525.49316,1346.2812Q525.1736,1346.5012,547.89136,1350.593Q551.88916,1351.4376,552.45447,1352.0171Q552.90405,1352.6818,549.9177,1353.1921Q532.9469,1355.419,532.0515,1355.9178Q527.5819,1357.094,526.69885,1358.3547Q523.1915,1362.96,554.9481,1359.6134Q555.47766,1360.9735,553.558,1361.9817L543.2345,1365.9805Q540.69727,1367.0447,539.20703,1368.084Q536.07886,1370.2115,539.3203,1370.609Q542.9761,1371.1715,573.45264,1363.2726L590.7086,1356.5077L629.8595,1358.1953L695.9542,1356.4524Q701.2355,1356.559,703.26465,1356.4666Q709.053,1356.2404,712.3148,1355.0221Q722.4784,1351.8008,723.8031,1336.0914Q725.72644,1326.1166,720.631,1275.1367 Z"/> </g> <g style="fill:rgb(255,148,113); fill-opacity:0.7019608; stroke-linejoin: miter"> <path d="M638.8325,1182.0739L629.1743,1191.756Q627.5054,1193.6239,626.6223,1194.4702Q625.07043,1195.9788,623.66455,1196.8025Q621.7997,1197.9539,619.1008,1198.2467Q616.8159,1198.5377,611.80273,1198.1326L617.30005,1209.5652L624.9016,1207.609Q627.1383,1204.9895,629.6113,1200.3922Q632.0123,1196.0347,638.8225,1182.1038 Z"/> </g> <g style="fill:rgb(255,148,113); fill-opacity:0.7058824; stroke-linejoin: miter"> <path d="M540.56165,1246.246Q547.48865,1253.5377,550.1649,1255.6984Q553.17444,1258.2535,555.0742,1258.358Q556.86633,1258.6061,559.8423,1256.6576Q562.62585,1254.9379,569.7827,1248.9702Q562.9132,1253.191,560.2355,1254.3849Q557.3518,1255.7385,555.5458,1255.5387Q554.6365,1255.4825,553.2772,1254.8572L540.5759,1246.2534 Z"/> </g> <g style="fill:rgb(255,148,113); fill-opacity:0.70980394; stroke-linejoin: miter"> <path d="M471.43884,1199.794L480.6487,1217.0618L484.044,1245.6458L487.12112,1228.9587L500.85855,1213.059L511.67014,1200.0046Q503.94846,1207.6196,500.11194,1210.0496Q496.00577,1212.8029,492.3189,1212.7421Q488.47882,1212.734,483.90396,1209.8407Q479.76633,1207.3713,471.4408,1199.794 Z"/> </g> <g style="fill:rgb(10,4,0); fill-opacity:0.07058824; stroke-linejoin: miter"> <path d="M657.40454,1279.5405L665.12195,1309.9987L646.18677,1321.0078L646.18677,1321.0083L644.0144,1322.2704L646.73645,1321.9734L646.74036,1321.9742Q646.74036,1321.9734,646.74,1321.9734L646.74,1321.9742L678.4021,1318.5171L678.4061,1318.5178Q678.40735,1318.5164,678.4082,1318.5164L678.4083,1318.5171L679.775,1318.3672L675.723,1311.3344L657.44226,1279.6062L657.40454,1279.5405 Z"/> </g> <g style="fill:rgb(10,4,0); fill-opacity:0.07058824; stroke-linejoin: miter"> <path d="M473.34384,1450.5985L468.63263,1451.5731L471.68454,1469.3832L473.34238,1450.6145L473.34384,1450.5985 Z"/> </g> <g style="fill:rgb(10,4,0); fill-opacity:0.07058824; stroke-linejoin: miter"> <path d="M557.6898,1377.5107L547.1886,1379.4288L549.13635,1436.39Q550.40295,1415.0748,551.9303,1405.049Q553.3535,1394.7705,557.6809,1377.5498L557.6898,1377.5107 Z"/> </g> <g style="fill:rgb(10,4,0); fill-opacity:0.07058824; stroke-linejoin: miter"> <path d="M731.47375,1406.2161L617.6709,1413.6561L617.522,1413.6665L729.7169,1415.9702L731.47375,1406.2161 Z"/> </g> <g style="fill:rgb(10,4,0); fill-opacity:0.07058824; stroke-linejoin: miter"> <path d="M467.4732,1381.943L462.2817,1383.3613L466.19247,1396.8301L467.47186,1381.9568L467.4732,1381.943 Z"/> </g> <g style="fill:rgb(10,4,0); fill-opacity:0.07058824; stroke-linejoin: miter"> <path d="M713.4868,1217.2908L723.3734,1277.1401L723.5237,1308.5175L723.6625,1337.5139L723.6625,1337.5153Q723.6599,1337.5325,723.65796,1337.5514L723.6626,1337.552L723.7605,1357.9772L751.49756,1358.664L725.3352,1248.5112L713.5171,1217.3699L713.4868,1217.2908 Z"/> </g> <g style="fill:rgb(10,4,0); fill-opacity:0.07058824; stroke-linejoin: miter"> <path d="M653.4187,1174.0732L647.0995,1193.1508L647.0995,1193.1516L634.72327,1230.513L630.03284,1244.6716L630.03284,1244.6733L641.65906,1236.818L653.7494,1188.7574L653.4215,1174.1986L653.4187,1174.0732 Z"/> </g> <g style="fill:rgb(10,4,0); fill-opacity:0.07058824; stroke-linejoin: miter"> <path d="M608.09424,1213.5377L608.0847,1213.5508L603.91223,1219.0325L603.9343,1219.0763L610.964,1230.2976L617.75305,1241.1338L624.70557,1243.9274L625.42566,1244.2172L625.051,1243.5538L608.1008,1213.55L608.09424,1213.5377 Z"/> </g> <g style="fill:rgb(194,194,194); fill-opacity:1.0; stroke-linejoin: miter"> <path d="M642.8082,1384.1315L642.8082,1384.1323L642.8082,1384.1318L642.8082,1384.1315L642.8082,1384.1323L642.8082,1384.1315L642.8082,1384.1318Q642.8082,1384.1315,642.8082,1384.1315 Z"/> </g> </g> </svg>