<?xml version='1.0' encoding='utf-8'?>
<svg xmlns="http://www.w3.org/2000/svg" viewBox="0 0 1999 1999"> <path transform="scale(1.9531)" d="m812.08 362.17c3.9 0.506 7.468 3.733 10.715 5.816 12.305 7.897 26.423 11.481 41.015 9.888l-1.182 5.932c-6.326 0.606-12.542 1.05-18.841-0.054-13.199-2.312-24.125-10.779-31.707-21.582z" fill="#7C1F39"/> <path transform="scale(1.9531)" d="m478.02 465.13c2.486-4.336 5.385-11.254 9.511-14.123l1.079-0.109 0.892 1.366c0.259 3.884-5.245 9.476-7.267 12.73l19.294-0.26-0.019 15.29-52.578 0.199-0.265-7.625-0.125-7.6 13.683 7e-3 15.795 0.125z" fill="#FCFCFB"/> <path transform="scale(1.9531)" d="m581.68 441.29c6.53-15.894 10.275-34.732 19.837-49.142 6.363-9.589 15.806-14.255 26.786-16.463-14.889 12.057-19.127 15.816-21.218 35.394-0.908 8.497-1.91 16.975-2.918 25.46-0.519 4.371-0.481 10.374-1.932 14.421l-1.118-0.644-14.461-6.309-4.976-2.717z" fill="#E2C8C9"/> <path transform="scale(1.9531)" d="m695.52 215.69c8.725 5.157 15.212 15.308 17.733 24.993 3.844 14.769-2.441 29.389-7.427 43.077-2.775-2.192-5.549-4.045-8.983-5.084-5.178-1.567-9.307-0.378-13.86 2.105l-0.531-5.752c-1.977-8.622-9.127-13.797-11.886-21.941-2.207-6.516-1.691-13.712 1.416-19.85 4.622-9.132 14.181-14.432 23.538-17.548z" fill="#D44850"/> <path transform="scale(1.9531)" d="m901 716.98 17.351-0.051 21.763 152.39 1.029 11.743-9.845 0.4-2.96-14.373-27.338-150.11z" fill="#D44850"/> <path transform="scale(1.9531)" d="m726.73 422.6c10.27-0.304 33.551-3.078 41.028 4.116 3.629 3.492 3.9 8.26 3.846 12.995l-4.115 84.198-29.959-2.692c3.497-5.971 7.201-12.277 9.161-18.957 5.257-17.916-7.548-39.552-12.065-57.1l-7.896-22.56z" fill="#D44850"/> <path transform="scale(1.9531)" d="m448.66 472.6 0.265 7.625 52.578-0.199-0.044 0.363c0.241 12.04 0.469 24.08 0.569 36.122 0.058 6.986 0.669 14.608-0.642 21.48-0.895 4.69-2.747 9.001-5.631 12.819l-0.289 0.714-19.425-0.024-23.654-0.221 1.127-0.458c-3.019-4.655-4.542-8.478-5.899-13.862l0.667-5.316 0.242-6.482c-0.023-11.08 1.927-29.613-0.057-39.608l0.193-12.953z" fill="#E45B5C"/> <path transform="scale(1.9531)" d="m487.64 523.53c-0.526 8.589-4.027 14.578-8.376 21.781-1.161 1.922-2.707 3.994-3.219 6.19l-23.654-0.221 1.127-0.458c-3.019-4.655-4.542-8.478-5.899-13.862l0.667-5.316 0.122 1.366c0.53 2.332 0.62 7.448 2.175 8.973l2.162 0.189c16.805-2.023 24.284-5.49 34.895-18.642z" fill="#D44850"/> <path transform="scale(1.9531)" d="m488 480.54 13.46-0.154c0.241 12.04 0.469 24.08 0.569 36.122 0.058 6.986 0.669 14.608-0.642 21.48-0.895 4.69-2.747 9.001-5.631 12.819l-0.289 0.714-19.425-0.024c0.512-2.196 2.058-4.268 3.219-6.19 4.349-7.203 7.85-13.192 8.376-21.781l0.363-42.986z" fill="#B73B4B"/> <path transform="scale(1.9531)" d="m586.66 444 14.461 6.309 1.118 0.644-8.47 90.155-1.231 10.433-0.659-0.091c-4.191-1.149-15.04 0.134-17.914-2.265l1.474-0.667c-14.144-0.714-28.665 6e-3 -42.849 0.012-6.253 2e-3 -13.228 0.434-19.371-0.761-1.446-0.281-2.392-1.01-3.471-1.969l-0.358-1.082 0.778-3.312c3.278-3.553 12.307-2.2 16.833-2.005-7.362-13.822-10.139-25.192-11.736-40.775l-5.378-0.471 0.378-9.065 61.108-0.447 15.287-44.643zm0 0-15.287 44.643c3.924 5e-3 7.301 0.901 10.138 3.755 2.631 2.649 3.759 6.047 4.76 9.556-1.145 9.78-4.57 17.493-12.386 23.709-4.303 3.422-9.229 5.564-14.43 7.231l-3.138 6.956c5.757-0.201 22.002-1.956 26.47 1.37l1.155 1.742-2.021 4.031c-1.62 1.405-4.451 1.49-6.482 1.525l-1.474 0.667c2.874 2.399 13.723 1.116 17.914 2.265l0.659 0.091 1.231-10.433 8.47-90.155-1.118-0.644-14.461-6.309z" fill="#FCFCFB"/> <path transform="scale(1.9531)" d="m567.2 496.93c2.59 0.501 4.857 0.804 6.688 2.881 1.367 1.551 1.943 3.583 1.807 5.626-0.305 4.569-3.137 8.066-6.387 11.011l-5.834 3.042 3.726-22.56z" fill="#DE8036"/> <path transform="scale(1.9531)" d="m586.66 444 14.461 6.309c-2.718 10.704-5.199 21.477-8.405 32.05-1.737 5.727-5.909 14.091-6.445 19.595-1.001-3.509-2.129-6.907-4.76-9.556-2.837-2.854-6.214-3.75-10.138-3.755l15.287-44.643z" fill="#EFA66B"/> <path transform="scale(1.9531)" d="m422.56 324.37 0.58 0.743c9.784 12.423 26.588 24.47 24.328 42.413-1.367 10.861-14.284 22.211-6.229 32.779 3.524 4.623 9.222 7.695 13.784 11.171 10.459 7.969 16.384 19.765 14.924 33.002-0.822 7.45-4.111 14.067-7.723 20.525l-13.683-7e-3 0.125 7.6-0.193 12.953c-3.47-4.739-5.192-11.366-7.736-16.732-8.92-18.817-20.655-43.387-35.567-57.883l-9.795-10.878c-6.136-6.33-12.779-10.684-21.119-13.624l-0.493-5.831c-0.438-4.299-1.134-8.213 0.85-12.245 9.13-0.484 17.041-2.519 24.833-7.393 13.502-8.447 19.669-21.54 23.114-36.593z" fill="#110F3D"/> <path transform="scale(1.9531)" d="m277.43 270.93c14.127 8.325 24.795 11.315 40.811 14.087 3.179 0.55 7.563 0.584 9.961 2.917l-20.009 2.866c-4.297-2.212-8.109-4.211-13.068-2.591-3.688 1.206-6.524 4.164-8.17 7.609-2.324 4.861-2.195 10.356-0.4 15.363 1.95 5.441 5.851 10.675 11.227 13.087 5.404 2.425 10.041 1.477 15.304-0.655 6.851 15.751 15.983 27.413 30.778 36.369l0.511 8.443 0.6 18.114-14.475 4.407c-24.366 9.575-40.825 29.716-51.116 53.207l-11.805 33.67c-9.018-10.347-18.057-19.341-20.73-33.443-1.776-9.376 7e-3 -20.442 6.215-27.963 3.34-4.047 7.41-7.421 10.375-11.78l0.36-0.54c-3.124-7.181-9.255-12.095-13.284-18.703-4.349-7.133-6.448-15.955-4.265-24.148 4.849-18.201 26.054-28.983 41.175-37.506-7.5-17.876-11.704-33.157-9.995-52.81z" fill="#110F3D"/> <path transform="scale(1.9531)" d="m107.05 226.88 5.028-16.348c16.694-35.169 70.769 0.539 98.281-9.658 8.426-3.122 12.306-9.227 15.934-16.935 0.528 11.282-0.364 21.509-2.138 32.641 7.227-7.054 8.633-10.716 8.91-20.792 3.36 8.236 6.13 15.639 5.437 24.701-0.63 8.233-4.558 16.613-10.797 22.113-2.413 2.127-5.254 3.726-7.648 5.844l-0.43 0.406c-4.635 1.565-9.183 3.581-13.948 4.711-16.442 3.9-35.734 2.149-51.777-2.747-7.916-2.416-15.651-5.812-23.32-8.906-0.133 10.656 0.288 59.107-6.758 64.755l-2.952 0.897c-6.42-0.847-12.145-12.084-25.323-4.511l-4.9692 3.56c0.1214-4.041-0.7729-8.388-1.293-12.408-1.513-11.693-6.051-37.082-4.9601-47.377 0.4489-4.235 1.8206-8.408 4.442-11.807 4.6752-6.064 11.137-7.336 18.282-8.139z" fill="#833D37"/> <path transform="scale(1.9531)" d="m283.56 244.07c7.868-19.406 22.613-36.106 42.15-44.285 18.562-7.772 40.375-8.745 59.139-0.98 16.655 6.892 30.687 20.759 37.455 37.493 8.392 20.751 7.611 45.942-0.617 66.619-1.55-21.268-7.444-39.874-17.596-58.514l-3.436-6.498c-5.956 8.573-12.569 16.671-20.347 23.671-3.921 3.528-16.495 10.484-18.025 14.547l-9.133 5.009-24.948 6.808c-2.398-2.333-6.782-2.367-9.961-2.917-16.016-2.772-26.684-5.762-40.811-14.087l1.789-12.557 1.899-7.499 2.442-6.81z" fill="#110F3D"/> <path transform="scale(1.9531)" d="m283.56 244.07 0.196 0.25c3.242 3.353 7.578 4.579 11.879 5.974 36.113 11.711 63.462-19.541 96.256-16.419 3.473 0.33 6.52 1.284 8.764 4.03-5.956 8.573-12.569 16.671-20.347 23.671-3.921 3.528-16.495 10.484-18.025 14.547l-9.133 5.009-24.948 6.808c-2.398-2.333-6.782-2.367-9.961-2.917-16.016-2.772-26.684-5.762-40.811-14.087l1.789-12.557 1.899-7.499 2.442-6.81z" fill="#141961"/> <path transform="scale(1.9531)" d="m281.12 250.88 0.515 0.299c4.113 2.459 7.508 5.862 11.529 8.431 13.57 8.673 26.292 6.586 41.146 3.414-9.126 6.023-18.504 10.392-29.693 8.039-11.039-2.321-16.244-8.795-25.396-12.684l1.899-7.499z" fill="#110F3D"/> <path transform="scale(1.9531)" d="m563.09 268.88 14.012 0.629c10.382 0.554 21.186 0.789 31.347 3.123 3.334 0.766 6.367 3.991 9.56 4.248 5.466 0.441 11.143-2.944 16.725-3.158 10.453-0.4 20.968-0.256 31.414 0.291 5.415 0.284 10.889 1 16.303 1.017l0.531 5.752c4.553-2.483 8.682-3.672 13.86-2.105 3.434 1.039 6.208 2.892 8.983 5.084 3.477 4.43 5.88 8.855 5.264 14.706-0.558 5.3-3.505 10.209-7.662 13.488-4.95 3.905-11.99 5.549-18.22 5.716-2.919 8.287-5.566 15.606-11.185 22.514-2.3 2.827-5.262 5.549-7.292 8.539l-0.492 0.249c-12.607 6.481-17.841 11.219-32.657 12.237-13.411 1.074-26.905-0.139-37.975-8.483-14.581-10.99-14.546-24.778-16.771-41.226-2.478-0.678-4.87-1.399-6.635-3.395-1.278-1.444-1.954-3.441-2.521-5.25-1.569-5.007-1.895-10.311-3.175-15.388-1.051-4.169-3.051-8.463-3.683-12.681-0.279-1.863 0.085-4.035 0.269-5.907z" fill="#EFA66B"/> <path transform="scale(1.9531)" d="m690.86 286.44 7.02 1.689c1.726 0.956 2.898 2.446 3.422 4.345 0.798 2.888-0.194 6.073-1.718 8.547-2.046 3.321-5.343 6.217-9.24 7.018-1.948 0.401-3.032-0.079-4.648-1.126 2.211-3.312 7.462-3.355 9.847-6.317l0.557-1.905c-0.451-2.137-2.825-3.367-4.5-4.48l-3.995 2.11-1.433-1.229 0.464-4.446c0.915-2.467 1.918-3.158 4.224-4.206z" fill="#E45B5C"/> <path transform="scale(1.9531)" d="m602.62 321.02h39.465c-1.845 6.708-3.719 12.972-7.745 18.722-2.889 2.834-6.278 5.428-10.31 6.332-3.838 0.86-7.675-0.176-10.857-2.405-7.523-5.269-9.107-14.258-10.553-22.649z" fill="#FCFCFB"/> <path transform="scale(1.9531)" d="m563.09 268.88 14.012 0.629c10.382 0.554 21.186 0.789 31.347 3.123 3.334 0.766 6.367 3.991 9.56 4.248 5.466 0.441 11.143-2.944 16.725-3.158 10.453-0.4 20.968-0.256 31.414 0.291 5.415 0.284 10.889 1 16.303 1.017l0.531 5.752 0.031 6.039-7.88 2.652c-0.84 6.677-1.778 17.112-7.637 21.541-6.651 5.027-18.886 3.868-26.608 2.526-4.635-0.804-10.115-2.367-12.838-6.518-3.123-4.76-3.344-11.927-3.966-17.495l-9.591-0.333c0.047 6.209 0.106 13.778-4.494 18.595-3.508 3.675-8.803 4.671-13.689 4.659l-17.475-0.947c-2.478-0.678-4.87-1.399-6.635-3.395-1.278-1.444-1.954-3.441-2.521-5.25-1.569-5.007-1.895-10.311-3.175-15.388-1.051-4.169-3.051-8.463-3.683-12.681-0.279-1.863 0.085-4.035 0.269-5.907z" fill="#2F4A96"/> <path transform="scale(1.9531)" d="m570.91 274.63 6.022-0.712 2e-3 30.947c-5.096-8.953-5.551-20.203-6.024-30.235z" fill="#55B0C6"/> <path transform="scale(1.9531)" d="m576.93 273.92c7.157 0.316 26.05 0.125 30.773 5.251 2.108 2.288 2.542 5.506 2.368 8.494-0.399 6.886-1.63 13.802-6.64 18.855-5.53 1.102-21.355 2.116-25.94-1.205l-0.559-0.448-2e-3 -30.947z" fill="#EFA66B"/> <path transform="scale(1.9531)" d="m590.33 282.92c2.421 0.223 4.931 0.936 6.547 2.876l1.279 4.575c-0.365 3.424-2.442 5.26-5.023 7.254-2.769-0.42-5.252-1.067-6.951-3.508-1.105-1.588-1.41-3.541-0.944-5.409 0.763-3.054 2.494-4.257 5.092-5.788z" fill="#2F4A96"/> <path transform="scale(1.9531)" d="m652.07 277.72c4.976-0.023 12.081-0.612 16.384 2.211l1.17 4.364c0.154 5.454-1.57 19.529-6.073 23.116-3.657 2.914-12.763 1.871-17.344 1.855l-7.765-0.905c-3.044-1.035-5.374-3.419-6.695-6.303-2.688-5.871-3.854-16.313-1.743-22.402 6.046-2.537 15.416-1.558 22.066-1.936z" fill="#EFA66B"/> <path transform="scale(1.9531)" d="m642.12 286.02 1.137-0.097c2.345-0.137 5.497 0.522 7.155 2.354 1.309 1.447 1.847 3.11 1.641 5.053-0.332 3.133-2.413 5.035-4.676 6.98l-6.17-0.168-2.28-2.277c-1.228-1.545-1.947-3.628-1.639-5.608 0.466-2.995 2.492-4.594 4.832-6.237z" fill="#2F4A96"/> <path transform="scale(1.9531)" d="m400.66 237.9 3.436 6.498c10.152 18.64 16.046 37.246 17.596 58.514l0.868 21.457c-3.445 15.053-9.612 28.146-23.114 36.593-7.792 4.874-15.703 6.909-24.833 7.393-1.984 4.032-1.288 7.946-0.85 12.245-5.351-2.501-11.336-3.418-16.787-5.703-4.376-1.835-8.06-4.968-12.596-6.471l-0.511-8.443c-14.795-8.956-23.927-20.618-30.778-36.369-5.263 2.132-9.9 3.08-15.304 0.655-5.376-2.412-9.277-7.646-11.227-13.087-1.795-5.007-1.924-10.502 0.4-15.363 1.646-3.445 4.482-6.403 8.17-7.609 4.959-1.62 8.771 0.379 13.068 2.591l20.009-2.866 24.948-6.808 9.133-5.009c1.53-4.063 14.104-11.019 18.025-14.547 7.778-7 14.391-15.098 20.347-23.671z" fill="#EFA66B"/> <path transform="scale(1.9531)" d="m402.67 271.82c4.019 0.956 9.531 2.138 12.06 5.736l0.324 1.972-13.723-2.413 1.339-5.295z"/> <path transform="scale(1.9531)" d="m373.19 316.28c1.707 1.139 3.301 3.682 5.288 4.249 2.784 0.795 5.805-0.907 8.388 0.769l-0.675 3.377c-3.995 0.459-7.434 0.082-11.315-0.915l-2.968-3.368 1.282-4.112z" fill="#E45B5C"/> <defs> <linearGradient id="c" x1="310.59" x2="308.31" y1="299.8" y2="315.83" gradientUnits="userSpaceOnUse"> <stop stop-color="#B34144" offset="0"/> <stop stop-color="#D25955" offset="1"/> </linearGradient> </defs> <path transform="scale(1.9531)" d="m308.15 297.45c2.937 3.735 4.869 7.61 4.14 12.535-0.325 2.196-1.379 4.93-3.283 6.248-1.715 1.188-3.234 1.184-5.173 0.742l-4.428-2.073 0.779-1.446 4.388 1.718c2.254 0.03 4-2.441 5.418-3.951l-1.495-4.691-0.346-9.082z" fill="url(#c)"/> <path transform="scale(1.9531)" d="m300.18 313.45-1.468-4.254 1.975-2.808c2.571-1.428 5.193-0.652 7.804 0.138l1.495 4.691c-1.418 1.51-3.164 3.981-5.418 3.951l-4.388-1.718z" fill="#EFA66B"/> <path transform="scale(1.9531)" d="m344.21 315.49c2.95-0.063 7.289-0.475 9.9 1.059l1.853 2.533-2.468 4.292c-3.03 0.683-7.172 0.397-9.74-1.522l-1.802-2.853c0.391-1.81 1-2.194 2.257-3.509z" fill="#E45B5C"/> <path transform="scale(1.9531)" d="m412.18 315.04c2.937-0.039 5.441 0.207 7.64 2.326l0.439 2.262c-0.371 2.315-3.067 3.666-4.846 4.892l-2.469-0.048c-2.229-0.309-3.807-1.077-5.211-2.831l-0.204-2.354c0.686-2.4 2.603-3.164 4.651-4.247z" fill="#E45B5C"/> <path transform="scale(1.9531)" d="m299.4 314.9-3.019-2.3c-2.374-2.395-3.469-5.814-3.225-9.143 0.224-3.074 1.569-6.135 3.965-8.129 1.514-1.26 3.374-1.956 5.356-1.736 2.547 0.283 4.136 1.977 5.667 3.856l0.346 9.082c-2.611-0.79-5.233-1.566-7.804-0.138l-1.975 2.808 1.468 4.254-0.779 1.446z" fill="#D44850"/> <path transform="scale(1.9531)" d="m375.77 335.13c4.037-0.24 8.709-0.642 12.577 0.659 2.339 0.787 3.714 1.712 4.802 3.932l-0.876 3.102c-1.84 2.222-6.742 3.652-9.468 3.965l-3-0.019c-7.475-0.259-10.89-3.397-15.751-8.587l11.716-3.052z" fill="#FCFCFB"/> <path transform="scale(1.9531)" d="m406.74 287.43c2.862 0.847 5.494 2.074 7.287 4.561 1.624 2.254 2.227 4.954 1.729 7.688-0.787 4.321-3.395 6.637-6.834 8.993l-6.554-2.27-1.159-1.768c-1.657-2.799-2.343-6.245-1.417-9.417 1.099-3.761 3.704-5.881 6.948-7.787z"/> <path transform="scale(1.9531)" d="m346.48 291.3c2.64-2.477 4.509-3.26 8.126-3.527 3.188 2.04 5.39 4.328 6.2 8.149 0.638 3.01 0.062 6.343-1.613 8.935-1.278 1.976-3.262 3.641-5.625 4.067l-4.59-0.983c-2.549-1.799-4.013-5.545-4.322-8.546-0.311-3.026 0.499-5.42 1.824-8.095z"/> <path transform="scale(1.9531)" d="m343.87 359.99c9.493 4.656 18.927 6.622 29.338 7.933l1.406 0.439c-1.984 4.032-1.288 7.946-0.85 12.245-5.351-2.501-11.336-3.418-16.787-5.703-4.376-1.835-8.06-4.968-12.596-6.471l-0.511-8.443z" fill="#B73B4B"/> <defs> <linearGradient id="b" x1="352.73" x2="362.27" y1="255.39" y2="284.7" gradientUnits="userSpaceOnUse"> <stop stop-color="#EE7056" offset="0"/> <stop stop-color="#EC5E60" offset="1"/> </linearGradient> </defs> <path transform="scale(1.9531)" d="m400.66 237.9 3.436 6.498c-9.754 12.828-18.989 24.844-32.888 33.573-5.136 3.225-12.406 5.469-16.597 9.801-3.617 0.267-5.486 1.05-8.126 3.527l-17.013 2.599c-6.611 0.771-15.781 1.214-21.274-3.097l20.009-2.866 24.948-6.808 9.133-5.009c1.53-4.063 14.104-11.019 18.025-14.547 7.778-7 14.391-15.098 20.347-23.671z" fill="url(#b)"/> <path transform="scale(1.9531)" d="m353.15 281.13 9.133-5.009c-0.55 1.833-0.576 3.161-2.303 4.256l-6.83 0.753z"/> <path transform="scale(1.9531)" d="m594.13 172.74 6.41-7.022c7.2-5.995 16.578-8.464 25.841-7.52 13.825 1.41 20.12 8.224 28.473 18.533 12.555 1.327 25.512 3.515 33.866 14.023 5.754 7.239 6.052 14.412 5.04 23.151l1.762 1.784c-9.357 3.116-18.916 8.416-23.538 17.548-3.107 6.138-3.623 13.334-1.416 19.85 2.759 8.144 9.909 13.319 11.886 21.941-5.414-0.017-10.888-0.733-16.303-1.017-10.446-0.547-20.961-0.691-31.414-0.291-5.582 0.214-11.259 3.599-16.725 3.158-3.193-0.257-6.226-3.482-9.56-4.248-10.161-2.334-20.965-2.569-31.347-3.123l-1.203-18.121c-9.285-2.014-17.721-1.723-26.268-6.711-5.178-3.021-9.481-7.649-10.905-13.597-1.002-4.184-0.503-8.623 1.854-12.274 3.344-5.183 8.483-6.787 14.137-8.139-1.448-6.163-2.183-12.203-0.492-18.422 2.059-7.574 7.005-14.262 13.891-18.116 8.465-4.738 17.075-3.88 26.011-1.387z" fill="#D44850"/> <path transform="scale(1.9531)" d="m575.9 251.39c29.264 2.827 57.521-2.277 81.474-20.039 8.277-6.138 16.38-13.547 26.142-17.214 3.92-1.473 6.407-1.991 10.242-0.228l1.762 1.784c-9.357 3.116-18.916 8.416-23.538 17.548-3.107 6.138-3.623 13.334-1.416 19.85 2.759 8.144 9.909 13.319 11.886 21.941-5.414-0.017-10.888-0.733-16.303-1.017-10.446-0.547-20.961-0.691-31.414-0.291-5.582 0.214-11.259 3.599-16.725 3.158-3.193-0.257-6.226-3.482-9.56-4.248-10.161-2.334-20.965-2.569-31.347-3.123l-1.203-18.121z" fill="#EFA66B"/> <path transform="scale(1.9531)" d="m591.12 254.14 3.888-0.244c5.236-0.191 11.142 0.125 15.104 4.025 1.345 1.325 2.485 3.202 2.344 5.16l-1.936 3.236c-2.581 1.748-5.094 1.111-7.911 0.528-2.031-0.503-4.139-1.032-6.244-1.034-2.908-4e-3 -8.888 1.61-11.424 0.611l-2.393-2.823 0.57-3.741c1.773-3.202 4.623-4.757 8.002-5.718z" fill="#D44850"/> <path transform="scale(1.9531)" d="m646.5 252.49c4.081-0.061 7.67 0.765 11.259 2.743 2.44 1.346 6.269 4.118 6.644 7.17l-1.089 2.862c-2.449 2.238-7.902 1.049-10.855 0.755l-14.67 0.887-3.763-2.275 0.551-3.305c2.494-4.606 7.193-7.189 11.923-8.837z" fill="#D44850"/> <path transform="scale(1.9531)" d="m130.58 241.91c7.669 3.094 15.404 6.49 23.32 8.906 16.043 4.896 35.335 6.647 51.777 2.747 4.765-1.13 9.313-3.146 13.948-4.711 1.541 10.963 1.624 22.391 2.22 33.453 1.027 19.024 3.844 40.12 0.438 58.92-1.518 8.379-4.777 16.353-9.928 23.166-7.305 9.662-18.517 16.107-30.543 17.644l-9.302 0.189 0.274 3.919-4.271 8.503-1.771 0.364-4.906 7.894-9.424-6.862c-4.832-3.198-23.79-15.603-28.334-14.68-0.989-8.129-0.311-16.556-1.86-24.627-1.455-7.588-5.062-14.59-6.514-22.348-5.096 2.084-9.508 2.816-14.811 0.675-5.2917-2.137-9.6835-6.493-11.687-11.854-2.1729-5.816-1.0745-11.133 1.371-16.597l4.9692-3.56c13.178-7.573 18.903 3.664 25.323 4.511l2.952-0.897c7.046-5.648 6.625-54.099 6.758-64.755z" fill="#EFA66B"/> <path transform="scale(1.9531)" d="m153.58 275.12 0.848 0.152 2.609 0.555 2.314 2.451-0.423 0.769-3.532 0.687-6.236-0.583-0.086-0.912 4.506-3.119z"/> <path transform="scale(1.9531)" d="m207.97 275.75c2.306 0.223 4.492 0.711 6.361 2.169l0.741 1.414-4.45 0.826-4.148-0.121-2.954-2.071 0.218-1.053c1.601-1.061 2.352-0.999 4.232-1.164z"/> <path transform="scale(1.9531)" d="m187.49 307.65 3.72 2.122c3.344 2.465 6.391 6.837 6.943 11.017 0.265 2.006-0.089 4.043-1.415 5.627-1.626 1.942-3.397 2.065-5.773 2.349-3.944-0.998-7.119-2.681-10.608-4.7 2.718-0.759 5.899-1.643 7.523-4.161 2.263-3.509 0.449-8.556-0.39-12.254z" fill="#E45B5C"/> <path transform="scale(1.9531)" d="m207.25 290.98 2.739 0.084c2.35 0.372 4.923 2.125 6.177 4.135 1.672 2.681 1.961 6.037 1.271 9.075-0.96 4.222-3.063 6.468-6.63 8.7l-2.307-0.099c-2.426-0.392-4.895-1.983-6.203-4.066-1.798-2.864-2.091-6.588-1.261-9.814 0.977-3.793 2.934-5.998 6.214-8.015z"/> <path transform="scale(1.9531)" d="m154.55 290.94 4.146 0.615c2.51 0.755 4.765 2.77 5.99 5.059 1.419 2.652 1.592 5.919 0.695 8.766-1.156 3.667-3.303 5.57-6.576 7.37l-2.289 0.113c-2.339-0.138-4.854-1.4-6.254-3.289-1.861-2.511-2.335-6.119-1.852-9.141 0.696-4.358 2.654-6.944 6.14-9.493z"/> <path transform="scale(1.9531)" d="m103.88 307.46 1.143 0.089c3.056 0.356 5.871 1.387 7.749 3.966 1.523 2.091 1.849 4.92 1.401 7.414-0.832 4.638-3.552 7.213-7.223 9.742l-4.166-0.367c-2.736-0.668-5.3131-2.665-6.5757-5.186-1.2142-2.425-1.3532-5.23-0.4959-7.795 1.4413-4.311 4.2946-6.073 8.1676-7.863z" fill="#E45B5C"/> <path transform="scale(1.9531)" d="m100.58 315.84c4.495 1.114 6.408 2.806 9.483 6.06l-2.647 4.589c-1.958 0.422-3.749 0.34-5.482-0.728l-2.7119-3.742c-0.5372-2.299 0.1846-4.233 1.3579-6.179z" fill="#EFA66B"/> <path transform="scale(1.9531)" d="m168.52 394.65c-7.052-0.395-15.641-6.459-21.549-10.276-9.832-6.353-19.879-13.882-22.449-25.894 10.188 9.711 20.907 17.301 34.541 21.234 3.331 0.961 11.155 0.619 13.454 2.514l0.274 3.919-4.271 8.503z" fill="#D44850"/> <path transform="scale(1.9531)" d="m161.76 336.01 39.663-1e-3c-1.249 5.247-2.993 9.608-6.194 13.955l-8.099 5.043c-4.189 1.475-8.637 1.192-12.61-0.798-7.398-3.707-10.216-10.886-12.76-18.199z" fill="#FCFCFB"/> <path transform="scale(1.9531)" d="m55.047 418.18c3.7524 0.657 7.2985 2.321 9.6017 5.46 1.6601 2.263 2.2848 5.111 2.8363 7.818 3.2699 16.055 4.6316 32.963 6.6988 49.232 3.5361 27.831 7.2071 55.629 11.163 83.404 1.7946 12.6 3.005 25.924 5.9187 38.305l3.5324 27.015 0.5405-0.764 2.9927 1.759 5.1309 4.554 1.034 0.039c3.04 9.218 5.695 19.149 11.294 27.213l3.959 7.053 115.46 0.372-0.111 0.604-3.328 33.516-4.236 0.429-19.86-0.132 2.228 12.293-17.301 0.692-2.74-12.991-61.109-0.026-2.595 13.037-19.293-0.1 1.737-12.576c-8.145 1.039-15.654 0.27-23.063-3.505-9.5288-4.854-15.996-12.963-19.246-23.064-3.2107-9.979-3.1439-21.768-4.1832-32.193-1.6986-17.039-3.4228-34.076-5.193-51.107-4.0178-38.657-8.3109-77.281-12.007-115.97-1.4544-15.225-3.7826-30.782-4.404-46.027-0.1131-2.776 0.3355-5.093 1.7046-7.546 2.6081-4.672 8.113-5.582 12.843-6.793zm0 0c-0.5632 14.058 1.5133 27.868 2.3856 41.87 2.346 37.658 5.7324 74.979 9.6871 112.5 1.5108 14.335 3.0286 28.67 4.4855 43.01 1.0054 9.896 1.6573 20.106 3.7138 29.848 1.2124 5.743 2.9776 11.472 7.1034 15.827 5.4019 5.703 13.072 7.986 20.728 8.009l6.849-0.218 9.75 0.241-3.959-7.053c-5.599-8.064-8.254-17.995-11.294-27.213l-1.034-0.039-5.1309-4.554-2.9927-1.759-0.5405 0.764-3.5324-27.015c-2.9137-12.381-4.1241-25.705-5.9187-38.305-3.956-27.775-7.627-55.573-11.163-83.404-2.0672-16.269-3.4289-33.177-6.6988-49.232-0.5515-2.707-1.1762-5.555-2.8363-7.818-2.3032-3.139-5.8493-4.803-9.6017-5.46z" fill="#D44850"/> <path transform="scale(1.9531)" d="m189.86 704.06 17.813 6e-3 2.228 12.293-17.301 0.692-2.74-12.991z" fill="#141961"/> <path transform="scale(1.9531)" d="m108.6 704.39 20.151-0.361-2.595 13.037-19.293-0.1 1.737-12.576z" fill="#141961"/> <path transform="scale(1.9531)" d="m55.047 418.18c3.7524 0.657 7.2985 2.321 9.6017 5.46 1.6601 2.263 2.2848 5.111 2.8363 7.818 3.2699 16.055 4.6316 32.963 6.6988 49.232 3.5361 27.831 7.2071 55.629 11.163 83.404 1.7946 12.6 3.005 25.924 5.9187 38.305l3.5324 27.015 0.5405-0.764 2.9927 1.759 5.1309 4.554 1.034 0.039c3.04 9.218 5.695 19.149 11.294 27.213l3.959 7.053-9.75-0.241-6.849 0.218c-7.6555-0.023-15.326-2.306-20.728-8.009-4.1258-4.355-5.891-10.084-7.1034-15.827-2.0565-9.742-2.7084-19.952-3.7138-29.848-1.4569-14.34-2.9747-28.675-4.4855-43.01-3.9547-37.522-7.3411-74.843-9.6871-112.5-0.8723-14.002-2.9488-27.812-2.3856-41.87zm39.751 211.23c1.7851 13.511 2.9424 27.232 13.546 37.063l1.655 2.55 9.75 0.241-3.959-7.053c-5.599-8.064-8.254-17.995-11.294-27.213l-1.034-0.039-5.1309-4.554-2.9927-1.759-0.5405 0.764z" fill="#B73B4B"/> <path transform="scale(1.9531)" d="m103.46 634.97 1.034 0.039c3.04 9.218 5.695 19.149 11.294 27.213l3.959 7.053-9.75-0.241-1.655-2.55-4.882-31.514z" fill="#141961"/> <path transform="scale(1.9531)" d="m844.59 175.46c3.062-6.563 6.592-12.176 13.726-14.883 4.948-1.877 10.48-1.581 15.22 0.75 4.901 2.41 8.45 6.927 10.14 12.074l1.663 6.514c4.537-4.699 9.552-8.386 16.38-8.489 4.847-0.073 9.507 1.744 12.901 5.231 3.525 3.621 5.191 8.465 5.008 13.472l-0.29 5.359c5.916-1.298 11.911-1.826 17.33 1.511 3.803 2.341 6.43 6.092 7.448 10.427 1.083 4.608 0.101 9.512-2.379 13.516l-4.065 5.385c6.445 1.015 12.462 2.398 16.59 7.988 2.367 3.205 3.37 7.295 2.773 11.235-0.727 4.797-3.711 8.889-7.57 11.715l-6.171 3.386c5.077 4.163 9.527 8.715 10.304 15.606 0.49 4.342-0.804 8.772-3.612 12.13-3.201 3.828-8.047 6.048-12.974 6.421 3.347 6.118 5.97 11.103 6.003 18.251-3.026-4.837-5.088-9.181-10.675-11.731-3.9-1.78-8.577-1.855-12.551-0.26-6.432 2.583-10.024 8.113-12.759 14.146l-0.014-70.208-105.02 0.033 0.594 32.489-0.114 3.586-0.079 21.483 0.072 0.337-0.692 1.7-1.346 4.774-7.02-50.347c-5.72-2.531-10.543-5.464-13.045-11.539-1.821-4.421-1.89-9.587-0.033-14.008 1.741-4.147 4.837-7.271 8.31-10.016-4.5-4.755-7.712-9.639-7.424-16.477 0.21-5 2.358-9.492 6.076-12.833 3.932-3.534 9.16-5.419 14.449-5.088l6.071 0.747c-1.596-6.301-2.041-12.409 1.521-18.221 2.743-4.476 7.243-7.512 12.363-8.582 5.319-1.111 10.725-0.014 15.172 3.113 3.555 2.499 5.598 5.641 7.719 9.303z" fill="#110F3D"/> <path transform="scale(1.9531)" d="m801.99 245.04 105.02-0.033 0.014 70.208c2.735-6.033 6.327-11.563 12.759-14.146 3.974-1.595 8.651-1.52 12.551 0.26 5.587 2.55 7.649 6.894 10.675 11.731 0.088 5.78-0.511 10.515-4.721 14.929-4.294 4.503-10.527 6.401-16.629 6.32l-8.28-1.333c-1.915 7.919-4.218 15.889-9.047 22.599l-6.214 9.219-0.141 5.938c-11.846 1.145-20.328 18.473-35.006 19.318l-0.345-6.242 1.182-5.932c-14.592 1.593-28.71-1.991-41.015-9.888-3.247-2.083-6.815-5.31-10.715-5.816-13.402-16.975-11.187-32.464-11.653-52.763l1.346-4.774 0.692-1.7-0.072-0.337 0.079-21.483 0.114-3.586-0.594-32.489z" fill="#833D37"/> <path transform="scale(1.9531)" d="m845.67 318.64 0.147 0.059c0.841 1.375-0.361 4.953-0.676 6.635l-5.163 3.563c-3.45 1.078-6.377-0.174-9.367-1.864l-3.907-6.885c7.167 1.404 12.19 1.956 18.966-1.508z" fill="#7C1F39"/> <path transform="scale(1.9531)" d="m802.59 277.52c4.485-3.539 12.165-9.031 18.212-8.241l3.906 2.298c1.839 2.434 1.382 6.051 1.365 8.937l-23.597 0.592 0.114-3.586z"/> <path transform="scale(1.9531)" d="m923.43 308.03 4.457 0.386c1.719 0.746 3.114 1.973 3.833 3.731 0.891 2.177 0.572 4.633-0.417 6.718-1.453 3.063-3.674 4.533-6.757 5.671l-1.12 0.013c-2.373-0.013-4.824-0.254-6.45-2.208-1.201-1.443-1.418-3.257-1.068-5.041 0.86-4.39 3.943-7.022 7.522-9.27z" fill="#7C1F39"/> <path transform="scale(1.9531)" d="m924.26 311.9 0.627 0.019c1.56 0.107 2.523 0.343 3.586 1.508l-0.156 1.161-4.524 4.133-3.794-0.822-0.146-1.091 4.407-4.908z" fill="#833D37"/> <path transform="scale(1.9531)" d="m867.54 269.53 9.787 0.514c5.296 1.042 12.518 3.649 15.643 8.267l-0.58 1.561-5.269 0.659-26.03-0.496 0.847-6.053c0.825-2.565 3.388-3.436 5.602-4.452z"/> <path transform="scale(1.9531)" d="m825.83 336.51 35.141 0.242-5.853 7.641-5.449 3.924c-3.853 1.958-8.286 2.277-12.347 0.782-5.885-2.166-8.973-7.202-11.492-12.589z" fill="#FCFCFB"/> <path transform="scale(1.9531)" d="m904.34 355.57-6.214 9.219-0.141 5.938c-11.846 1.145-20.328 18.473-35.006 19.318l-0.345-6.242 1.182-5.932c1.988-1.058 4.864-1.321 7.09-1.939 4.731-1.313 9.614-3.087 13.891-5.518 6.863-3.899 12.636-12.275 19.543-14.844z" fill="#551028"/> <path transform="scale(1.9531)" d="m805.58 296.44c3.289-2.531 7.42-4.111 11.63-3.613 4.669 0.552 9.325 2.692 12.232 6.478 2.188 2.849 3.166 6.381 2.658 9.945-0.526 3.694-2.626 7.102-5.692 9.231-3.722 2.585-8.242 2.889-12.569 1.961-3.066-0.657-7.045-2.358-8.661-5.252l-0.195-0.575c-2.186-2.338-3.055-6.892-3.208-9.98l0.692-1.7 3.113-6.495z" fill="#FCFCFB"/> <path transform="scale(1.9531)" d="m805.58 296.44c3.021-0.291 5.482-0.602 8.04 1.353 2.026 1.548 3.197 3.882 3.508 6.386 0.364 2.929-0.332 6.21-2.265 8.5-1.236 1.463-3.079 2.699-5.026 2.891l-4.854-0.955c-2.186-2.338-3.055-6.892-3.208-9.98l0.692-1.7 3.113-6.495z"/> <path transform="scale(1.9531)" d="m861.05 297.42c0.799-1.957 2.65-3.417 4.556-4.249 4.592-2.003 10.857-1.726 15.399 0.291 3.931 1.746 7.738 4.936 9.297 9.038 1.232 3.242 1.043 6.792-0.415 9.929-1.656 3.564-4.843 6.314-8.527 7.627-5.201 1.853-11.454 0.918-16.265-1.652-1.952-1.043-4.635-3.242-5.426-5.383l-0.233-1.3-0.714-2.52c-0.698-3.924 2e-3 -8.51 2.328-11.781z" fill="#FCFCFB"/> <path transform="scale(1.9531)" d="m861.05 297.42c2.944-1.113 5.697-2.19 8.763-0.768 2.126 0.986 3.444 2.921 4.13 5.108 0.993 3.171 0.638 6.912-1.022 9.798-1.11 1.929-2.805 3.441-5.031 3.888-1.922 0.386-4.031-0.146-5.632-1.244l-2.822-2.481-0.714-2.52c-0.698-3.924 2e-3 -8.51 2.328-11.781z"/> <path transform="scale(1.9531)" d="m862.98 390.04c14.678-0.845 23.16-18.173 35.006-19.318l0.324 29.533c8.392 2.351 16.245 5.48 24.231 8.92 15.895 4.33 16.905 4.769 27.035 18.448l-1.134 11.375-0.315 0.959-5.058 11.932-30.143 66.3-7.866-3.106-28.088-14c-6.172 8.719-5.402 17.173-15.142 25.175-12.265 2.052-24.487 0.608-36.824 0.346l-0.381-20.88-29.213-11.026-3.969-1.711 33.362-69.85c7.621-13.632 24.034-19.723 37.959-24.86l0.216-8.237z" fill="#EFA66B"/> <path transform="scale(1.9531)" d="m862.98 390.04c14.678-0.845 23.16-18.173 35.006-19.318l0.324 29.533c-0.545 4.253-1.477 7.917-4.152 11.363-3.013 3.882-7.618 6.208-12.479 6.673-4.588 0.439-9.337-0.918-12.843-3.951-5.017-4.342-5.6-9.882-6.072-16.063l0.216-8.237z" fill="#833D37"/> <path transform="scale(1.9531)" d="m824.8 423.14-0.18 82.587-29.213-11.026-3.969-1.711 33.362-69.85z" fill="#127972"/> <path transform="scale(1.9531)" d="m922.54 409.18c15.895 4.33 16.905 4.769 27.035 18.448l-1.134 11.375-0.315 0.959-5.058 11.932-30.143 66.3-7.866-3.106-28.088-14-6.975-3.486c6.58-12.811 32.647-75.627 39.358-82.184 3.462-3.383 8.293-3.54 12.333-5.756l0.853-0.482z" fill="#1FAB89"/> <path transform="scale(1.9531)" d="m192.6 717.05 17.301-0.692c2.622 15.591 4.889 31.235 7.711 46.794 1.744 9.616 4.053 19.145 5.692 28.77 1.617 10.039-1.943 26.481 6e-3 33.85l2.6 0.884 0.117 7.873-2.113 12.247-1.057 8.405-0.663 0.655-29.594-138.79z" fill="#D44850"/> <path transform="scale(1.9531)" d="m106.86 716.97 19.293 0.1-33.235 150.56-3.1524 13.837-9.6874-0.48 2.765-12.553 24.017-151.46z" fill="#D44850"/> <path transform="scale(1.9531)" d="m222.54 599.09c6.885 3.395 40.38 15.658 47.281 16.129l0.357 0.136 18.369 7.441c7.753 8.031 16.274 17.104 16.024 29.04-0.227 10.855-3.575 21.322-6.351 31.723-1.965 7.362-3.788 14.762-5.615 22.16-9.906 40.108-20.262 80.143-29.928 120.3l-0.599 0.286-1.769 9.15 0.155 0.489-2.574 11.09-33.976-0.265 2.113-12.247-0.117-7.873-2.6-0.884c-1.949-7.369 1.611-23.811-6e-3 -33.85-1.639-9.625-3.948-19.154-5.692-28.77-2.822-15.559-5.089-31.203-7.711-46.794l-2.228-12.293 19.86 0.132 4.236-0.429 3.328-33.516 0.111-0.604-115.46-0.372-3.959-7.053 50.846-45.969c13.327-5.463 41.926-16.183 55.9-17.159zm-14.867 104.97 2.228 12.293c2.622 15.591 4.889 31.235 7.711 46.794 1.744 9.616 4.053 19.145 5.692 28.77l0.915 2.287 0.27-0.26 7.44-89.068-4.396-0.684-19.86-0.132z" fill="#3560B8"/> <path transform="scale(1.9531)" d="m225.91 826.65 36.168-0.344-1.769 9.15c-5.757-2.676-27.021-1.008-34.282-0.933l-0.117-7.873z" fill="#EFA66B"/> <path transform="scale(1.9531)" d="m226.02 834.52c7.261-0.075 28.525-1.743 34.282 0.933l0.155 0.489-2.574 11.09-33.976-0.265 2.113-12.247z" fill="#FCFCFB"/> <path transform="scale(1.9531)" d="m666.73 348.73-0.196 0.771-0.055 25.475c16.682-1e-3 31.249 1.954 43.61 14.247 9.394 9.342 11.258 21.847 16.638 33.383l7.896 22.56c4.517 17.548 17.322 39.184 12.065 57.1-1.96 6.68-5.664 12.986-9.161 18.957l-30.154-5.961c-5.867-1.995-11.196-2.902-17.372-3.002l-12.685 3.807-2.794 17.904-2.589 12.216-0.895 5.303-5.347-0.06-12.186-0.298-15.275-0.023-1.927-10.455c-0.611 0.382-1.108 0.601-1.837 0.65-2.991 0.202-39.05 0.842-39.496 0.745l-1.202-0.932 8.47-90.155c1.451-4.047 1.413-10.05 1.932-14.421 1.008-8.485 2.01-16.963 2.918-25.46 2.091-19.578 6.329-23.337 21.218-35.394l5.045-1.053 0.497-0.368c0.178-3.2 1.283-10.251-0.267-13.05 14.816-1.018 20.05-5.756 32.657-12.237l0.492-0.249zm67.893 96.436-26.416 10.553 0.906 7.24-0.089 37.209-1.651 15.094 30.154 5.961c3.497-5.971 7.201-12.277 9.161-18.957 5.257-17.916-7.548-39.552-12.065-57.1z" fill="#FCFCFB"/> <path transform="scale(1.9531)" d="m633.57 488.04 40.436-0.557-0.05 9.433 6.675 0.367-48.099 0.169 1.038-9.412z" fill="#E2C8C9"/> <path transform="scale(1.9531)" d="m666.73 348.73-0.196 0.771-0.055 25.475c-0.625 4.546-1.35 8.663-4.3 12.383-2.764 3.486-6.879 5.627-11.272 6.146-4.118 0.486-8.382-0.483-11.598-3.177-4.908-4.109-5.437-9.759-5.958-15.694l0.497-0.368c0.178-3.2 1.283-10.251-0.267-13.05 14.816-1.018 20.05-5.756 32.657-12.237l0.492-0.249z" fill="#EFA66B"/> <path transform="scale(1.9531)" d="m666.73 348.73-0.196 0.771-0.304 0.293c-9.595 9.434-17.564 22.705-32.382 24.472 0.178-3.2 1.283-10.251-0.267-13.05 14.816-1.018 20.05-5.756 32.657-12.237l0.492-0.249z" fill="#E45B5C"/> <path transform="scale(1.9531)" d="m690 512.26c1.25-1.563-2.84-79.746-2.783-89.189l11.007 36.401 9.982-3.753 0.906 7.24-0.089 37.209-1.651 15.094c-5.867-1.995-11.196-2.902-17.372-3.002z" fill="#E2C8C9"/> <path transform="scale(1.9531)" d="m632.53 497.46 48.099-0.169-0.796 5.598-2.515 13.177-2.794 17.904-2.589 12.216-0.895 5.303-5.347-0.06-12.186-0.298-15.275-0.023-1.927-10.455-7.214-42.564 3.439-0.629z" fill="#E45B5C"/> <path transform="scale(1.9531)" d="m654 501.44c6.517 0.309 20.322-0.621 25.835 1.443l-2.515 13.177-2.794 17.904-2.589 12.216-0.895 5.303-5.347-0.06-12.186-0.298 0.491-49.685z" fill="#B73B4B"/> <path transform="scale(1.9531)" d="m734.62 445.16c4.517 17.548 17.322 39.184 12.065 57.1-1.96 6.68-5.664 12.986-9.161 18.957l-30.154-5.961 1.651-15.094 0.089-37.209-0.906-7.24 26.416-10.553zm-25.51 17.793-0.089 37.209 8.787-15.358-8.698-21.851z" fill="#EFA66B"/> <path transform="scale(1.9531)" d="m958.03 434.78 2.168-4.812c1.341-4.333 4.129-8.536 8.196-10.738 2.759-1.494 5.657-1.47 8.574-0.456 3.366 1.17 6.488 3.035 8.049 6.339 1.952 4.132 1.941 8.959 1.589 13.426-0.663 8.425-2.153 16.874-3.221 25.262-2.403 18.88-4.895 37.768-7.096 56.672-4.093 35.164-8.018 70.351-12.035 105.52-1.411 12.355-3.582 43.373-7.539 53.7-3.045 7.947-9.784 14.836-17.6 18.186-7.075 3.034-15.116 3.054-22.686 3.116l1.929 15.925-17.351 0.051-2.729-15.904-62.563-2e-3 -3.078 13.002-18.782 0.466 2.218-13.522-23.34-0.25 2.898-32.228 124.52-0.287 5.153-4.296c14.247-14.324 16.364-38.831 16.235-57.939l-114.42-0.01-0.554 0.103-0.678-31.564c14.005-0.714 31.043-2.325 43.357-9.67l6.189-2.489c1.244-0.863 2.332-2.097 2.417-3.683 0.112-2.099-1.274-3.432-2.601-4.832 18.158-7.164 20.19-22.688 29.301-37.936l0.51-0.846 7.866 3.106 30.143-66.3 5.058-11.932 0.315-0.959 1.134-11.375 8.455 7.151z" fill="#D44850"/> <path transform="scale(1.9531)" d="m816.07 701.02 19.642 0.054-3.078 13.002-18.782 0.466 2.218-13.522z" fill="#141961"/> <path transform="scale(1.9531)" d="m898.27 701.07 18.151-0.072 1.929 15.925-17.351 0.051-2.729-15.904z" fill="#110F3D"/> <path transform="scale(1.9531)" d="m949.57 427.63 8.455 7.151c0.824 1.341 0.995 1.646 0.955 3.202-0.244 9.616-3.288 24.462-4.496 34.718-3.372 28.629-5.934 57.637-8.777 86.337-0.953 9.629-1.913 19.258-2.843 28.89-0.572 5.929-1.455 12.131-1.333 18.089l-114.42-0.01-0.554 0.103-0.678-31.564c14.005-0.714 31.043-2.325 43.357-9.67l6.189-2.489c1.244-0.863 2.332-2.097 2.417-3.683 0.112-2.099-1.274-3.432-2.601-4.832 18.158-7.164 20.19-22.688 29.301-37.936l0.51-0.846 7.866 3.106 30.143-66.3 5.058-11.932 0.315-0.959 1.134-11.375z" fill="#EFA66B"/> <path transform="scale(1.9531)" d="m912.92 518.19 30.143-66.3c0.318 1.625 0.618 3.251 0.471 4.914-0.647 7.307-3.412 14.856-5.403 21.891-5.665 20.016-11.508 40.017-19.359 59.309-4.139 10.17-8.983 21.41-15.122 30.488-9.082 13.433-23.451 23.788-39.473 26.806-12.171 2.292-25.134 1.309-37.492 2.297l0.428 8.406-0.554 0.103-0.678-31.564c14.005-0.714 31.043-2.325 43.357-9.67l6.189-2.489c1.244-0.863 2.332-2.097 2.417-3.683 0.112-2.099-1.274-3.432-2.601-4.832 18.158-7.164 20.19-22.688 29.301-37.936l0.51-0.846 7.866 3.106z" fill="#DE8036"/> <path transform="scale(1.9531)" d="m344.38 368.43c4.536 1.503 8.22 4.636 12.596 6.471 5.451 2.285 11.436 3.202 16.787 5.703l0.493 5.831c8.34 2.94 14.983 7.294 21.119 13.624l9.795 10.878c14.912 14.496 26.647 39.066 35.567 57.883 2.544 5.366 4.266 11.993 7.736 16.732 1.984 9.995 0.034 28.528 0.057 39.608l-19.541 0.246-1.561-0.493-11.779 0.079-1.332 0.012-0.769-4.845-4.891-0.636-6.968 1.649c-3.167 4.807-9.923 5.63-12.772 10.201-3.034 4.867-1.166 14.372-0.12 19.659l-25.357-0.022 1.144-16.75-34.003-7.66-0.699 8.761c-9.53-2.054-72.525-15.818-75.221-17.928l12.923-39.605 11.805-33.67c10.291-23.491 26.75-43.632 51.116-53.207l14.475-4.407-0.6-18.114z" fill="#D44850"/> <path transform="scale(1.9531)" d="m415.65 524.99 0.805-4.391 2.695-0.895 8.279 5.207-11.779 0.079z" fill="#EFA66B"/> <path transform="scale(1.9531)" d="m308.28 475.82 0.308 0.288c2.492 3.326-1.348 29.973-1.972 35.185l-9.013-2.195-2.678-1.667c0.969-7.631 9.746-24.053 13.355-31.611z" fill="#110F3D"/> <path transform="scale(1.9531)" d="m408.58 476.81 15.721 30.407-10.672 4.488c-3.338 2.095-4.121 4.08-4.976 7.816l-6.968 1.649c-0.391-14.768 4.506-29.884 6.895-44.36z" fill="#110F3D"/> <path transform="scale(1.9531)" d="m344.38 368.43c4.536 1.503 8.22 4.636 12.596 6.471 5.451 2.285 11.436 3.202 16.787 5.703l0.493 5.831c8.34 2.94 14.983 7.294 21.119 13.624l9.795 10.878c0.1 5.746 5.67 12.993 8.173 18.192 1.581 3.285 2.947 6.675 4.008 10.165 2.153 7.088 3.129 15.468-0.714 22.176-2.348 4.099-6.283 7.422-10.888 8.616-8.985 2.327-33.941 0.866-44.301 0.878-10.789 0.013-22.321 1.034-33.022-0.153-3.942-0.438-7.834-1.365-11.221-3.517-4.498-2.859-7.31-7.492-8.284-12.688-3.146-16.778 9.575-43.237 18.801-56.997l2.783-6.658 14.475-4.407-0.6-18.114z" fill="#E45B5C"/> <path transform="scale(1.9531)" d="m344.38 368.43c4.536 1.503 8.22 4.636 12.596 6.471 5.451 2.285 11.436 3.202 16.787 5.703l0.493 5.831c8.34 2.94 14.983 7.294 21.119 13.624-4.552 6.905-10.037 12.229-17.69 15.581-9.969 4.365-22.232 4.436-32.332 0.461-9.775-3.848-13.574-9.105-17.631-18.492l2.783-6.658 14.475-4.407-0.6-18.114z" fill="#EFA66B"/> <path transform="scale(1.9531)" d="m344.38 368.43c4.536 1.503 8.22 4.636 12.596 6.471 5.451 2.285 11.436 3.202 16.787 5.703l0.493 5.831-1.616 4.403c-1.423 3.456-3.955 6.501-7.507 7.887-3.343 1.305-7.084 1.089-10.348-0.345-5.277-2.32-7.762-6.757-9.805-11.836l-0.6-18.114z" fill="#E45B5C"/> <path transform="scale(1.9531)" d="m765.93 575.15 59.95-0.602 0.678 31.564 0.554-0.103 114.42 0.01c0.129 19.108-1.988 43.615-16.235 57.939l-5.153 4.296-124.52 0.287-2.898 32.228 23.34 0.25-2.218 13.522-21.992 145.97-9.829-0.351-0.154-0.601c-2.337-4.913-4.92-8.252-9.319-11.491l-0.011-9.034-34.827 0.63-1.688-0.495c-0.621-1.414-0.648-2.732-0.629-4.261 0.036-2.975 0.569-5.962 0.7-8.949 0.495-11.239 1.009-22.472 1.56-33.709 1.5-30.534 2.937-61.067 4.556-91.595l0.582-13.229 1.141-18.46c0.586-9.551 2.046-32.937 7.148-40.705 2.704-4.117 6.851-7.07 9.581-11.079l0.521-0.785 0.943-0.801c5.635-12.261 4.13-27.312 3.798-40.448zm26.797 125.62-9.288 137.25c-2.144 1.835-8.081 1.043-10.895 1.018l0.011 9.034c4.399 3.239 6.982 6.578 9.319 11.491l0.154 0.601 9.829 0.351 21.992-145.97 2.218-13.522-23.34-0.25zm-26.797-125.62c0.332 13.136 1.837 28.187-3.798 40.448l64.426-9.486-0.678-31.564-59.95 0.602z" fill="#141961"/> <path transform="scale(1.9531)" d="m772.55 839.03c2.814 0.025 8.751 0.817 10.895-1.018l-1.565 21.543c-2.337-4.913-4.92-8.252-9.319-11.491l-0.011-9.034z" fill="#2F4A96"/> <path transform="scale(1.9531)" d="m795.41 494.7 29.213 11.026 0.381 20.88c12.337 0.262 24.559 1.706 36.824-0.346 9.74-8.002 8.97-16.456 15.142-25.175l28.088 14-0.51 0.846c-9.111 15.248-11.143 30.772-29.301 37.936 1.327 1.4 2.713 2.733 2.601 4.832-0.085 1.586-1.173 2.82-2.417 3.683l-6.189 2.489c-12.314 7.345-29.352 8.956-43.357 9.67l-59.95 0.602c0.332 13.136 1.837 28.187-3.798 40.448l-0.943 0.801c-15.66 2.482-24.724 2.872-40.372 2.686l-5.479 6e-3 -2.879-8.466c-2.825-3.887-5.16-6.738-9.521-9.024-10.613-3.776-20.831-9.132-31.105-13.754-6.172-2.777-12.569-5.063-18.91-7.424-4.977 3.625-17.265 2.042-23.593 3.002-8.896 0.014-17.295 1.016-23.891 7.72l-4.086 4.791-22.81 1.69-0.448-22.534-114.09 0.374-0.697 16.977-7.775-0.104-61.725 0.703-79.792-0.106-12.03-0.314 0.135-16.851-14.893 8e-3 -26.815 0.126-0.455-0.018-42.665-0.319-0.414-10.533-0.31-14.013 63.206-0.011 1.67 0.065 111.71 0.446 4.97-4.376 12.06-1.369c-0.391-0.694-0.928-2.067-1.46-2.591-0.869-0.856-1.754-0.238-2.444-1.606l2.105-1.605-1.451-9.603-1.51-2.92 0.249-0.873c2.023-1.887 6.028-1.519 8.643-1.572l1.332-0.012 11.779-0.079 1.561 0.493 19.541-0.246-0.242 6.482-0.667 5.316c1.357 5.384 2.88 9.207 5.899 13.862l-1.127 0.458 23.654 0.221 19.425 0.024 0.289-0.714c3.91-0.213 12.061 1.029 15.063-1.245l-1.073-3.758c1.079 0.959 2.025 1.688 3.471 1.969 6.143 1.195 13.118 0.763 19.371 0.761 14.184-6e-3 28.705-0.726 42.849-0.012l-1.474 0.667c2.874 2.399 13.723 1.116 17.914 2.265l0.659 0.091 1.231-10.433 1.202 0.932c0.446 0.097 36.505-0.543 39.496-0.745 0.729-0.049 1.226-0.268 1.837-0.65l1.927 10.455 15.275 0.023 12.186 0.298 5.347 0.06 0.895-5.303 2.589-12.216 2.794-17.904 12.685-3.807c6.176 0.1 11.505 1.007 17.372 3.002l30.154 5.961 29.959 2.692 11.517 0.985 16.402-30.193zm-367.98 30.209-11.779 0.079-1.332 0.012c-2.615 0.053-6.62-0.315-8.643 1.572l-0.249 0.873 1.51 2.92 1.451 9.603-2.105 1.605c0.69 1.368 1.575 0.75 2.444 1.606 0.532 0.524 1.069 1.897 1.46 2.591l0.509-0.019 2.277 5.8 39.422-0.277 1.127-0.458c-3.019-4.655-4.542-8.478-5.899-13.862l0.667-5.316 0.242-6.482-19.541 0.246-1.561-0.493z" fill="#FCFCFB"/> <path transform="scale(1.9531)" d="m410.18 545.77 0.509-0.019 2.277 5.8-19.816-0.036 4.97-4.376 12.06-1.369z" fill="#D44850"/> <path transform="scale(1.9531)" d="m509.75 545.8c1.079 0.959 2.025 1.688 3.471 1.969 6.143 1.195 13.118 0.763 19.371 0.761 14.184-6e-3 28.705-0.726 42.849-0.012l-1.474 0.667c2.874 2.399 13.723 1.116 17.914 2.265l-96.41 0.067 0.289-0.714c3.91-0.213 12.061 1.029 15.063-1.245l-1.073-3.758z" fill="#55B0C6"/> <path transform="scale(1.9531)" d="m636.3 540.65 1.927 10.455 15.275 0.023 12.186 0.298c-14.279 1.191-28.772-0.599-43.052-0.703-10.031-0.073-20.086 1.099-30.102 0.823l1.231-10.433 1.202 0.932c0.446 0.097 36.505-0.543 39.496-0.745 0.729-0.049 1.226-0.268 1.837-0.65z" fill="#E2C8C9"/> <path transform="scale(1.9531)" d="m427.43 524.91 1.561 0.493 19.541-0.246-0.242 6.482-0.667 5.316c1.357 5.384 2.88 9.207 5.899 13.862l-1.127 0.458-39.422 0.277-2.277-5.8-0.509 0.019c-0.391-0.694-0.928-2.067-1.46-2.591-0.869-0.856-1.754-0.238-2.444-1.606l2.105-1.605-1.451-9.603-1.51-2.92 0.249-0.873c2.023-1.887 6.028-1.519 8.643-1.572l1.332-0.012 11.779-0.079zm14.348 25.567 11.744 0.34c-3.019-4.655-4.542-8.478-5.899-13.862-1.405 4.926-3.225 9.124-5.845 13.522z" fill="#141961"/> <path transform="scale(1.9531)" d="m427.43 524.91 1.561 0.493 0.3 19.061-18.595 1.288-0.509 0.019c-0.391-0.694-0.928-2.067-1.46-2.591-0.869-0.856-1.754-0.238-2.444-1.606l2.105-1.605-1.451-9.603-1.51-2.92 0.249-0.873c2.023-1.887 6.028-1.519 8.643-1.572l1.332-0.012 11.779-0.079z" fill="#2F4A96"/> <path transform="scale(1.9531)" d="m795.41 494.7 29.213 11.026 0.381 20.88c12.337 0.262 24.559 1.706 36.824-0.346 9.74-8.002 8.97-16.456 15.142-25.175l28.088 14-0.51 0.846c-9.111 15.248-11.143 30.772-29.301 37.936-17.541-3.25-35.602-2.675-53.354-2.455-12.512 0.156-25.032 0.127-37.546 0.244-37.747 0.353-75.558 0.197-113.3-0.173l0.895-5.303 2.589-12.216 2.794-17.904 12.685-3.807c6.176 0.1 11.505 1.007 17.372 3.002l30.154 5.961 29.959 2.692 11.517 0.985 16.402-30.193z" fill="#833D37"/> <path transform="scale(1.9531)" d="m674.52 533.97c15.511-1.01 21.903-1.388 36.726 3.496l-39.315 8.72 2.589-12.216z" fill="#EFA66B"/> <path transform="scale(1.9531)" d="m216.88 565.03 652.36-0.157c-12.314 7.345-29.352 8.956-43.357 9.67l-59.95 0.602c0.332 13.136 1.837 28.187-3.798 40.448l-0.943 0.801c-15.66 2.482-24.724 2.872-40.372 2.686l-5.479 6e-3 -2.879-8.466c-2.825-3.887-5.16-6.738-9.521-9.024-10.613-3.776-20.831-9.132-31.105-13.754-6.172-2.777-12.569-5.063-18.91-7.424-4.977 3.625-17.265 2.042-23.593 3.002-8.896 0.014-17.295 1.016-23.891 7.72l-4.086 4.791-22.81 1.69-0.448-22.534-114.09 0.374-0.697 16.977-7.775-0.104-61.725 0.703-79.792-0.106-12.03-0.314 0.135-16.851-14.893 8e-3 -26.815 0.126-0.455-0.018-42.665-0.319-0.414-10.533z" fill="#E2C8C9"/> <path transform="scale(1.9531)" d="m578.1 575.09 64.329 0.264 10.499 5.067c-4.977 3.625-17.265 2.042-23.593 3.002-8.896 0.014-17.295 1.016-23.891 7.72l-4.086 4.791-22.81 1.69-0.448-22.534z" fill="#141961"/> <path transform="scale(1.9531)" d="m642.43 575.35 72.654-4e-3c-0.278 7.639-0.077 16.504-6.178 22.125l-5.962 4.124c-10.613-3.776-20.831-9.132-31.105-13.754-6.172-2.777-12.569-5.063-18.91-7.424l-10.499-5.067z" fill="#D44850"/> <path transform="scale(1.9531)" d="m715.08 575.35 50.852-0.202c0.332 13.136 1.837 28.187-3.798 40.448l-0.943 0.801c-15.66 2.482-24.724 2.872-40.372 2.686l-5.479 6e-3 -2.879-8.466c-2.825-3.887-5.16-6.738-9.521-9.024l5.962-4.124c6.101-5.621 5.9-14.486 6.178-22.125z" fill="#B73B4B"/> <path transform="scale(1.9531)" d="m712.46 610.62 5.406 1.758 2.952 6.702-5.479 6e-3 -2.879-8.466z" fill="#55B0C6"/> <path transform="scale(1.9531)" d="m302.12 575.77 161.88-0.305-0.697 16.977-7.775-0.104-61.725 0.703-79.792-0.106-12.03-0.314 0.135-16.851z" fill="#D44850"/> <path transform="scale(1.9531)" d="m124.08 381.37c4.544-0.923 23.502 11.482 28.334 14.68l9.424 6.862 4.906-7.894 1.771-0.364 4.271-8.503 2.725 4.35c4.943 2.741 9.579 6.039 13.709 9.91l4.439 5.119 8.144 13.256 39.44 64.704 7.929 13.658-5.255 3.946 1.219 1.672 9.521 14.67c2.696 2.11 65.691 15.874 75.221 17.928l0.699-8.761 34.003 7.66-1.144 16.75 25.357 0.022c-1.046-5.287-2.914-14.792 0.12-19.659 2.849-4.571 9.605-5.394 12.772-10.201l6.968-1.649 4.891 0.636 0.769 4.845c-2.615 0.053-6.62-0.315-8.643 1.572l-0.249 0.873 1.51 2.92 1.451 9.603-2.105 1.605c0.69 1.368 1.575 0.75 2.444 1.606 0.532 0.524 1.069 1.897 1.46 2.591l-12.06 1.369-4.97 4.376-111.71-0.446-1.67-0.065-63.206 0.011 0.31 14.013 0.414 10.533 42.665 0.319 0.455 0.018 26.815-0.126c-4.106 5.741-7.054 9.891-6.951 17.231l3.949 18.905c-4.655 0.658-9.843 1.197-14.054 3.445l-0.357-0.136c-6.901-0.471-40.396-12.734-47.281-16.129-13.974 0.976-42.573 11.696-55.9 17.159l-50.846 45.969c-5.599-8.064-8.254-17.995-11.294-27.213l-1.034-0.039-5.1309-4.554-2.9927-1.759-0.5405 0.764-3.5324-27.015 3.2086 0.134c0.563-10.85-2.0288-24.33-2.7632-35.447-1.2693-19.212-2.189-38.422-2.82-57.665-0.84-25.618-1.7062-52.75 3.8284-77.931 1.5182-6.908 3.6814-13.791 7.0198-20.051 1.0779-2.021 2.4699-3.87 3.5209-5.899 1.323-2.552 1.728-5.824 3.983-7.788 4.204-3.662 10.151-5.783 14.898-8.821l1.941-7.569zm42.736 118.36-32.27 15.218 2.933 5.181c3.927 7.186 7.863 14.365 11.988 21.441 8.476 14.54 16.319 25.482 33.146 30.439 11.199 3.3 23.098 3.329 34.68 3.557l-0.414-10.533-0.31-14.013 63.206-0.011 1.67 0.065 111.71 0.446 4.97-4.376 12.06-1.369c-0.391-0.694-0.928-2.067-1.46-2.591-0.869-0.856-1.754-0.238-2.444-1.606l2.105-1.605-1.451-9.603-1.51-2.92 0.249-0.873c2.023-1.887 6.028-1.519 8.643-1.572l-0.769-4.845-4.891-0.636-6.968 1.649c-3.167 4.807-9.923 5.63-12.772 10.201-3.034 4.867-1.166 14.372-0.12 19.659l-25.357-0.022 1.144-16.75-34.003-7.66-0.699 8.761c-9.53-2.054-72.525-15.818-75.221-17.928l-9.521-14.67-19.203 8.671-2.233-2.009-10.188 4.226-0.031 3.989 0.12 3.29 0.785 11.07-20.129-1.631-7.596-0.424-16-32.292-3.845 2.076zm93.597 76.173-0.455-0.018-42.345 0.095c1.854 7.557 4.413 15.344 4.921 23.113 6.885 3.395 40.38 15.658 47.281 16.129l0.357 0.136c4.211-2.248 9.399-2.787 14.054-3.445l-3.949-18.905c-0.103-7.34 2.845-11.49 6.951-17.231l-26.815 0.126z" fill="#2F4A96"/> <path transform="scale(1.9531)" d="m91.266 602.4 3.2086 0.134 3.857 27.876-2.9927-1.759-0.5405 0.764-3.5324-27.015z" fill="#A49CA2"/> <path transform="scale(1.9531)" d="m241.24 483.49 7.929 13.658-5.255 3.946 1.219 1.672-19.203 8.671-2.233-2.009-10.188 4.226-0.92-15.381 28.651-14.783z" fill="#FCFCFB"/> <path transform="scale(1.9531)" d="m223.7 509.42 20.217-8.334 1.219 1.672-19.203 8.671-2.233-2.009z" fill="#D44850"/> <path transform="scale(1.9531)" d="m168.82 479.99 6.459 15.287-4.616 2.374-3.845 2.076-32.27 15.218-4.944 1.814-9.027-13.689c15.757-8.564 31.462-16.643 48.243-23.08z" fill="#FCFCFB"/> <path transform="scale(1.9531)" d="m193.66 405.53 8.144 13.256c-1.431 6.854-0.129 16.615 0.033 23.847 0.235 10.413 0.243 20.839 0.361 31.254 0.208 18.436-0.555 36.876-1.291 55.293-2.099-5.273-3.222-10.981-4.872-16.411-3.517-11.576-8.666-22.432-7.644-34.832 0.849-10.31 3.619-20.369 4.337-30.794 0.958-13.891 0.108-27.771 0.932-41.613z" fill="#3560B8"/> <path transform="scale(1.9531)" d="m124.08 381.37c4.544-0.923 23.502 11.482 28.334 14.68l9.424 6.862 4.906-7.894 1.771-0.364 4.271-8.503 2.725 4.35c-1.685 11.49 0.784 23.377 2.728 34.72l6.852 53.725-22.997-62.931-39.955-27.076 1.941-7.569z" fill="#FCFCFB"/> <path transform="scale(1.9531)" d="m260.42 575.9 26.815-0.126c-4.106 5.741-7.054 9.891-6.951 17.231l3.949 18.905c-4.655 0.658-9.843 1.197-14.054 3.445l-0.357-0.136-9.402-39.319z" fill="#D44850"/> <path transform="scale(1.9531)" d="m166.82 499.73 3.845-2.076 16 32.292 7.596 0.424 20.129 1.631-0.785-11.07-0.12-3.29 0.031-3.989 10.188-4.226 2.233 2.009 19.203-8.671 9.521 14.67c2.696 2.11 65.691 15.874 75.221 17.928l0.699-8.761 34.003 7.66-1.144 16.75 25.357 0.022c-1.046-5.287-2.914-14.792 0.12-19.659 2.849-4.571 9.605-5.394 12.772-10.201l6.968-1.649 4.891 0.636 0.769 4.845c-2.615 0.053-6.62-0.315-8.643 1.572l-0.249 0.873 1.51 2.92 1.451 9.603-2.105 1.605c0.69 1.368 1.575 0.75 2.444 1.606 0.532 0.524 1.069 1.897 1.46 2.591l-12.06 1.369-4.97 4.376-111.71-0.446-1.67-0.065-63.206 0.011 0.31 14.013 0.414 10.533c-11.582-0.228-23.481-0.257-34.68-3.557-16.827-4.957-24.67-15.899-33.146-30.439-4.125-7.076-8.061-14.255-11.988-21.441l-2.933-5.181 32.27-15.218zm46.785 21.201 0.785 11.07 2.304 15.399 19.549 0.617-6.895-4.793c-6.892-5.75-11.216-14.708-15.743-22.293z" fill="#EFA66B"/> <path transform="scale(1.9531)" d="m406.93 530.37-11.518 4.034-0.265-0.462c2.552-3.485 6.561-4.623 10.273-6.492l1.51 2.92z" fill="#E45B5C"/> <path transform="scale(1.9531)" d="m279.78 551.01 0.666-2.787c2.951-3.107 16.372-1.275 20.834-1.096 1.14 0.661 1.522 0.703 1.776 2.086l0.144 1.837-21.75 0.025-1.67-0.065z" fill="#7C1F39"/> <path transform="scale(1.9531)" d="m166.82 499.73c-1.983 3.788-24.278 15.301-29.337 20.399l-2.933-5.181 32.27-15.218z" fill="#E45B5C"/> <path transform="scale(1.9531)" d="m301.28 547.12c5.773-0.402 23.509-1.992 27.904 0.867l0.589 2.399-26.573 0.657-0.144-1.837c-0.254-1.383-0.636-1.425-1.776-2.086z" fill="#D44850"/> <path transform="scale(1.9531)" d="m213.51 513.65 10.188-4.226 2.233 2.009 0.057 0.391c2.491 10.064 4.942 19.931 14.532 25.629 4.794 2.847 10.24 4.157 15.599 5.492l-26.777 0.277c-6.892-5.75-11.216-14.708-15.743-22.293l-0.12-3.29 0.031-3.989z" fill="#E45B5C"/> <path transform="scale(1.9531)" d="m213.51 513.65 10.188-4.226 2.233 2.009 0.057 0.391-12.509 5.815 0.031-3.989z" fill="#B73B4B"/> <path transform="scale(1.9531)" d="m287.23 575.78 14.893-8e-3 -0.135 16.851 12.03 0.314 79.792 0.106 61.725-0.703-0.047 15.302c13.447 13.402 19.883 31.885 19.979 50.659 0.113 22.153-6.811 44.481-12.779 65.631-2.493 8.836-6.576 18.355-6.409 27.625l-10.416 35.765-3.877-1.479-7.654 22.537c-2.164-2.001-20.073-3.492-24.326-4.129l0.6-8.159-40.827-1.732-0.151 6.404-0.615 13.207 0.539 27.245-0.783 9.228c-12.413 0.414-36.638 0.674-47.693 3.243l-12.845-2.195-17.78-4.832c-2.291 3.734-3.955 6.531-8.357 7.883l-17.125-0.141-7.016-3.707c-1.002-1.413-0.47-2.148-0.067-3.653l2.574-11.09-0.155-0.489 1.769-9.15 0.599-0.286c9.666-40.159 20.022-80.194 29.928-120.3 1.827-7.398 3.65-14.798 5.615-22.16 2.776-10.401 6.124-20.868 6.351-31.723 0.25-11.936-8.271-21.009-16.024-29.04l-18.369-7.441c4.211-2.248 9.399-2.787 14.054-3.445l-3.949-18.905c-0.103-7.34 2.845-11.49 6.951-17.231zm-3.002 36.136c-4.655 0.658-9.843 1.197-14.054 3.445l18.369 7.441c7.753 8.031 16.274 17.104 16.024 29.04-0.227 10.855-3.575 21.322-6.351 31.723-1.965 7.362-3.788 14.762-5.615 22.16-9.906 40.108-20.262 80.143-29.928 120.3l-0.599 0.286-1.769 9.15 0.155 0.489-2.574 11.09c-0.403 1.505-0.935 2.24 0.067 3.653l7.016 3.707 17.125 0.141c4.402-1.352 6.066-4.149 8.357-7.883l17.78 4.832 12.845 2.195c11.055-2.569 35.28-2.829 47.693-3.243l0.783-9.228-0.539-27.245 0.615-13.207c-0.843-21.395-0.365-43.079-0.316-64.502 0.02-8.875-0.841-24.269 0.67-32.561l-17.855-0.167-3.088 14.528-15.841-0.149 2.856-14.389 3.816-17.787 3.838-16.251 1.074-10.255c0.419-11.969-4.528-23.693-12.738-32.302-12.86-13.487-30.332-14.596-47.816-15.013z" fill="#7C1F39"/> <path transform="scale(1.9531)" d="m287.23 575.78 14.893-8e-3 -0.135 16.851 12.03 0.314-33.739 0.074c-0.103-7.34 2.845-11.49 6.951-17.231z" fill="#B73B4B"/> <path transform="scale(1.9531)" d="m343.71 669.48 34.401 0.045c-2.082 10.107-4.146 24.963-8.127 34.17l-17.855-0.167-3.088 14.528-15.841-0.149 2.856-14.389 3.816-17.787 3.838-16.251z" fill="#833D37"/> <path transform="scale(1.9531)" d="m336.05 703.52 16.073 0.01-3.088 14.528-15.841-0.149 2.856-14.389z" fill="#110F3D"/> <path transform="scale(1.9531)" d="m393.81 593.04 61.725-0.703-0.047 15.302c13.447 13.402 19.883 31.885 19.979 50.659 0.113 22.153-6.811 44.481-12.779 65.631-2.493 8.836-6.576 18.355-6.409 27.625l-10.416 35.765-3.877-1.479-7.654 22.537c-2.164-2.001-20.073-3.492-24.326-4.129l0.6-8.159c2.284-3.865 1.731-11.883 3.798-14.285-1.551-3.043 13.394-92.929 14.788-104.74 0.87-7.363 1.711-15.105 1.181-22.502-1.357-18.934-8.929-37.58-22.923-50.682-4.081-3.821-8.874-6.637-13.01-10.276l-0.63-0.565z" fill="#551028"/> <path transform="scale(1.9531)" d="m414.4 781.8 27.582 4.036-7.654 22.537c-2.164-2.001-20.073-3.492-24.326-4.129l0.6-8.159c2.284-3.865 1.731-11.883 3.798-14.285z" fill="#B73B4B"/> <path transform="scale(1.9531)" d="m284.23 611.91c17.484 0.417 34.956 1.526 47.816 15.013 8.21 8.609 13.157 20.333 12.738 32.302l-1.074 10.255-3.838 16.251-3.816 17.787-2.856 14.389 15.841 0.149 3.088-14.528 17.855 0.167c-1.511 8.292-0.65 23.686-0.67 32.561-0.049 21.423-0.527 43.107 0.316 64.502l-0.615 13.207 0.539 27.245-0.783 9.228c-12.413 0.414-36.638 0.674-47.693 3.243l-12.845-2.195-17.78-4.832c-2.291 3.734-3.955 6.531-8.357 7.883l-17.125-0.141-7.016-3.707c-1.002-1.413-0.47-2.148-0.067-3.653l2.574-11.09-0.155-0.489 1.769-9.15 0.599-0.286c9.666-40.159 20.022-80.194 29.928-120.3 1.827-7.398 3.65-14.798 5.615-22.16 2.776-10.401 6.124-20.868 6.351-31.723 0.25-11.936-8.271-21.009-16.024-29.04l-18.369-7.441c4.211-2.248 9.399-2.787 14.054-3.445zm67.899 91.618-3.088 14.528-27.963 135.62c11.055-2.569 35.28-2.829 47.693-3.243l0.783-9.228-0.539-27.245 0.615-13.207c-0.843-21.395-0.365-43.079-0.316-64.502 0.02-8.875-0.841-24.269 0.67-32.561l-17.855-0.167zm-18.929 14.379-4.622 22.91-22.713 84.632-10.167 0.11-2.074 10.462-3.171 10.633 17.78 4.832 12.845 2.195 27.963-135.62-15.841-0.149z" fill="#2F4A96"/> <path transform="scale(1.9531)" d="m262.67 826.02 33.023-0.462-2.074 10.462-3.171 10.633c-2.291 3.734-3.955 6.531-8.357 7.883l-17.125-0.141-7.016-3.707c-1.002-1.413-0.47-2.148-0.067-3.653l2.574-11.09-0.155-0.489 1.769-9.15 0.599-0.286z" fill="#551028"/> <path transform="scale(1.9531)" d="m262.67 826.02 33.023-0.462-2.074 10.462-33.162-0.075-0.155-0.489 1.769-9.15 0.599-0.286z" fill="#DE8036"/> <path transform="scale(1.9531)" d="m333.2 717.91 15.841 0.149-27.963 135.62-12.845-2.195-17.78-4.832 3.171-10.633 2.074-10.462 10.167-0.11 22.713-84.632 4.622-22.91zm-27.335 107.54-10.167 0.11-2.074 10.462-3.171 10.633 17.78 4.832c4.263-11.555 6.242-30.038 8.587-42.594 2.952-15.811 6.031-31.591 8.649-47.462 1.12-6.789 2.59-13.757 3.109-20.613l-22.713 84.632z" fill="#B73B4B"/> <path transform="scale(1.9531)" d="m464.01 575.46 114.09-0.374 0.448 22.534 22.81-1.69 4.086-4.791c6.596-6.704 14.995-7.706 23.891-7.72 6.328-0.96 18.616 0.623 23.593-3.002 6.341 2.361 12.738 4.647 18.91 7.424 10.274 4.622 20.492 9.978 31.105 13.754 4.361 2.286 6.696 5.137 9.521 9.024l2.879 8.466 5.479-6e-3c15.648 0.186 24.712-0.204 40.372-2.686l-0.521 0.785c-2.73 4.009-6.877 6.962-9.581 11.079-5.102 7.768-6.562 31.154-7.148 40.705l-1.141 18.46-0.582 13.229c-1.619 30.528-3.056 61.061-4.556 91.595-0.551 11.237-1.065 22.47-1.56 33.709-0.131 2.987-0.664 5.974-0.7 8.949-0.019 1.529 8e-3 2.847 0.629 4.261l1.688 0.495 34.827-0.63 0.011 9.034c4.399 3.239 6.982 6.578 9.319 11.491l0.154 0.601 9.829 0.351 21.992-145.97 18.782-0.466 3.078-13.002 62.563 2e-3 2.729 15.904 27.338 150.11 2.96 14.373 9.845-0.4-1.029-11.743c13.875 1.135 29.552 2.304 42.707 6.786 2.552 0.869 5.609 1.69 6.868 4.213l-0.48 1.111c-5.598 4.567-19.237 5.812-26.484 6.825-28.756 4.019-57.818 4.73-86.767 6.371-57.263 3.245-114.57 5.439-171.92 6.648-76.53 1.614-153.17 1.665-229.71 1.373-107.66-0.411-215.2-2.166-322.74-7.496-21.373-1.059-103.68-3.723-116.55-13.429l-0.2814-2.7c5.2914-6.288 39.533-9.397 48.077-10.593l-2.765 12.553 9.6874 0.48 3.1524-13.837c13.965 0.375 28.345-1.678 42.3-2.547 28.466-1.771 57.07-3.322 85.594-3.619l1.379-5.623 0.663-0.655 1.057-8.405 33.976 0.265c-0.403 1.505-0.935 2.24 0.067 3.653l7.016 3.707 17.125 0.141c4.402-1.352 6.066-4.149 8.357-7.883l17.78 4.832 12.845 2.195c11.055-2.569 35.28-2.829 47.693-3.243l0.783-9.228-0.539-27.245 0.615-13.207 0.151-6.404 40.827 1.732-0.6 8.159c4.253 0.637 22.162 2.128 24.326 4.129l7.654-22.537 3.877 1.479 10.416-35.765c-0.167-9.27 3.916-18.789 6.409-27.625 5.968-21.15 12.892-43.478 12.779-65.631-0.096-18.774-6.532-37.257-19.979-50.659l0.047-15.302 7.775 0.104 0.697-16.977zm188.92 4.957c-4.977 3.625-17.265 2.042-23.593 3.002-8.896 0.014-17.295 1.016-23.891 7.72l-4.086 4.791c-1.349 3.11-3.195 6.392-3.833 9.728-2.465 12.891 4.009 37.057 5.428 50.662l0.936 8.786 5.243 34.808 2.055 20.453c3.225 6.004 7.832 51.964 8.915 62.465l3.69 22.162 2.432 14.003 16.426 0.061-4.873 22.172 2.164 1.143 0.425 1.579-2.417 6.35 2.057 1.868c6.928-1.289 13.688-1.057 20.689-1.243l14.178-0.142 2.306-0.765 29.179 0.492 3.148 12.43 7.572-2.96 5.93 3.483 3.599 0.59 0.163-0.626-6.572-4.82-0.19-0.504-1.941-8.005 19.87 0.384-0.215-10.824-1.688-0.495c-0.621-1.414-0.648-2.732-0.629-4.261 0.036-2.975 0.569-5.962 0.7-8.949 0.495-11.239 1.009-22.472 1.56-33.709 1.5-30.534 2.937-61.067 4.556-91.595l0.582-13.229 1.141-18.46c0.586-9.551 2.046-32.937 7.148-40.705 2.704-4.117 6.851-7.07 9.581-11.079l0.521-0.785c-15.66 2.482-24.724 2.872-40.372 2.686l-5.479 6e-3 -2.879-8.466c-2.825-3.887-5.16-6.738-9.521-9.024-10.613-3.776-20.831-9.132-31.105-13.754-6.172-2.777-12.569-5.063-18.91-7.424zm-188.92-4.957-0.697 16.977-7.775-0.104-0.047 15.302c13.447 13.402 19.883 31.885 19.979 50.659 0.113 22.153-6.811 44.481-12.779 65.631-2.493 8.836-6.576 18.355-6.409 27.625l15.862 98.646 70.408-0.139c6.546-9.286 12.012-19.754 13.243-31.166l-0.154-0.194-6.741-0.388-28.694-129.38c13.29 3.563 26.053 7.071 39.787 8.638 4.539 0.519 9.151 0.109 13.623 0.627l0.669 2.336 34.847-0.62-5.243-34.808-0.936-8.786c-1.419-13.605-7.893-37.771-5.428-50.662 0.638-3.336 2.484-6.618 3.833-9.728l-22.81 1.69-0.448-22.534-114.09 0.374zm371.7 125.61-3.078 13.002-18.782 0.466-21.992 145.97-2.75 16.512 8.556-0.173 3.493-16.429c29.488 0.445 59.024 2.286 88.438 4.347 7.442 0.522 14.913 0.999 22.338 1.721 5.165 0.502 10.563 1.459 15.751 1.262l0.656-0.663-27.338-150.11-2.729-15.904-62.563-2e-3zm-315.51-12.134 28.694 129.38 6.741 0.388 0.154 0.194 0.507-0.645 0.294-0.601c2.65 1.681 27.528-3.197 32.249-3.941l9.012 9.176c1.72-6.649 1.92-14.018 2.566-20.854 1.133-11.999 2.22-24.002 3.328-36.003 1.352-14.644 1.427-32.112 7.436-45.656l-2.055-20.453-34.847 0.62-0.669-2.336c-4.472-0.518-9.084-0.108-13.623-0.627-13.734-1.567-26.497-5.075-39.787-8.638zm90.981 31.434c-6.009 13.544-6.084 31.012-7.436 45.656-1.108 12.001-2.195 24.004-3.328 36.003-0.646 6.836-0.846 14.205-2.566 20.854l5.305 8.251c1.656 1.991 5.058 5.383 5.002 8.112-0.033 1.645-1.113 2.575-2.357 3.451-2.378 1.672-5.972 3.307-7.012 6.191l-0.795 9.22-0.473 14.62c4.789-4.87 9.209-7.579 15.006-10.966l1.354-12.179 24.062 0.722 2.417-6.35-0.425-1.579-2.164-1.143 4.873-22.172-16.426-0.061-2.432-14.003-3.69-22.162c-1.083-10.501-5.69-56.461-8.915-62.465zm-154.9 31.183-10.416 35.765-3.877-1.479-7.654 22.537-8.401 22.862c4.159 5.077 3.6 12.503 4.135 18.745l8.339 1.1 21.518-0.294 3.291 16.188 0.884 4.967c3.454 1.615 6.805 1.571 10.535 1.622l-2.492-23.367-15.862-98.646z" fill="#2F4A96"/> <path transform="scale(1.9531)" d="m264.97 854.4 17.125 0.141 0.631 0.328c4.721 2.477 9.184 5.436 14.067 7.629 12.512 5.62 26.322 6.184 39.761 7.374l-7.597 1.057-43.387 0.059-1.276-0.918c-5.935-6.404-12.034-10.931-19.324-15.67z" fill="#110F3D"/> <path transform="scale(1.9531)" d="m368.5 867.02 94.71-0.047 0.884 4.967-0.61 3.689-94.988 0.41 4e-3 -9.019z" fill="#FCFCFB"/> <path transform="scale(1.9531)" d="m698.28 873.01 86.354 0.252-0.135 10.77c-9.901-0.013-86.134 0.158-87.221-0.276-0.306-0.122-0.492-0.44-0.738-0.661-0.714-3.295 0.706-6.97 1.74-10.085z" fill="#FCFCFB"/> <path transform="scale(1.9531)" d="m597.5 873.54 84.745 0.464-0.248 10.776c-18.674 0.14-37.4-0.265-56.086-0.266-10.382 0-22.536 0.851-32.733-0.096-0.892-0.083-1.802-0.407-2.442-1.063l-1.034-3.054c0.036-2.01 0.995-4.103 2.427-5.501 1.632-1.593 3.265-1.345 5.371-1.26z" fill="#FCFCFB"/> <path transform="scale(1.9531)" d="m285.57 870.98 43.387-0.059c2.203 0.036 7.187-0.533 8.757 1.269 1.694 1.944 0.893 5.761 0.73 8.161l-122.94 0.139 2.297-9.48 27.905-0.086 39.863 0.056z" fill="#FCFCFB"/> <path transform="scale(1.9531)" d="m223.91 846.77 33.976 0.265c-0.403 1.505-0.935 2.24 0.067 3.653l7.016 3.707c7.29 4.739 13.389 9.266 19.324 15.67l1.276 0.918-39.863-0.056-27.657-0.332 2.762-9.142 1.379-5.623 0.663-0.655 1.057-8.405z" fill="#3560B8"/> <path transform="scale(1.9531)" d="m222.85 855.18c19.489 14.677 38.344 14.898 61.44 14.89l1.276 0.918-39.863-0.056-27.657-0.332 2.762-9.142 1.379-5.623 0.663-0.655z" fill="#141961"/> <path transform="scale(1.9531)" d="m531.16 870.47c12.002-7.806 24.417-14.539 36.978-21.384 11.561-6.3 22.981-12.588 35.017-17.956 1.656 1.991 5.058 5.383 5.002 8.112-0.033 1.645-1.113 2.575-2.357 3.451-2.378 1.672-5.972 3.307-7.012 6.191l-0.795 9.22c-4.849-0.078-9.398-0.184-14.075-1.57-8.857 4.146-17.544 8.423-26.164 13.041-6.399 3.429-12.875 7.448-19.571 10.205-2.424 0.998-4.812 1.762-7.456 1.777l-1.934-2.059c-0.795-2.905 0.881-6.632 2.367-9.028z" fill="#FCFCFB"/> <path transform="scale(1.9531)" d="m598.79 848.89-0.795 9.22c-4.849-0.078-9.398-0.184-14.075-1.57l14.87-7.65z" fill="#55B0C6"/> <path transform="scale(1.9531)" d="m555.79 818.89 0.507-0.645 0.294-0.601c2.65 1.681 27.528-3.197 32.249-3.941l9.012 9.176 5.305 8.251c-12.036 5.368-23.456 11.656-35.017 17.956-12.561 6.845-24.976 13.578-36.978 21.384l11.385-20.414c6.546-9.286 12.012-19.754 13.243-31.166z" fill="#EFA66B"/> <path transform="scale(1.9531)" d="m613.88 849.58 24.062 0.722 2.057 1.868c6.928-1.289 13.688-1.057 20.689-1.243l14.178-0.142c4.013 7.754 6.443 14.518 7.372 23.215l-84.745-0.464 0.027-0.811c4.789-4.87 9.209-7.579 15.006-10.966l1.354-12.179z" fill="#EFA66B"/> <path transform="scale(1.9531)" d="m613.88 849.58 24.062 0.722 2.057 1.868 8.097 5.39c-4.74-1.451-10.451-4.905-15.352-4.928l-0.151 0.57 10.531 7.315c-3.955-1.238-12.838-6.042-16.352-5.471l-0.243 0.617 7.137 6.494c-2.666-1.462-8.773-5.81-11.68-4.645l-1.381 0.879 0.026 0.887 5.428 3.784c-3.351-0.704-5.52-1.925-8.261-3.941l-5.272 2.638 1.354-12.179z" fill="#2F4A96"/> <path transform="scale(1.9531)" d="m737.72 839.66 34.827-0.63 0.011 9.034c4.399 3.239 6.982 6.578 9.319 11.491l0.154 0.601 2.604 13.103-86.354-0.252c3.106-4.3 6.271-7.826 11.223-10.065l7.572-2.96 5.93 3.483 3.599 0.59 0.163-0.626-6.572-4.82-0.19-0.504-1.941-8.005 19.87 0.384-0.215-10.824z" fill="#EFA66B"/> <path transform="scale(1.9531)" d="m737.93 850.49 0.945-0.208c2.767 0.992 6.696 2.074 8.612 4.377l-0.469 0.325-15.221-3.848 11.092 6.294c-2.781-0.788-10.15-3.673-12.578-2.453 1.188 2.293 6.061 4.163 8.361 5.628-4.826-1.624-9.611-4.444-14.787-4.573l-0.077 0.546 7.317 4.633-11.124-3.1-1.941-8.005 19.87 0.384z" fill="#2F4A96"/> <path transform="scale(1.9531)" d="m737.72 839.66 34.827-0.63 0.011 9.034c-7.349-0.205-28.104-1.073-33.678 2.212l-0.945 0.208-0.215-10.824z" fill="#B73B4B"/> <path transform="scale(1.9531)" d="m406.55 830.18 17.656 3.095 1.725-2.034c4.159 5.077 3.6 12.503 4.135 18.745l8.339 1.1c8.675 1.062 18.035 8.913 23.576 15.316l-93.32 0.158 0.108-16.117 0.783-9.228 36.416 5.851 0.582-16.886z" fill="#141961"/> <path transform="scale(1.9531)" d="m369.78 794.36 40.827 1.732-0.6 8.159c4.253 0.637 22.162 2.128 24.326 4.129l-8.401 22.862-1.725 2.034-17.656-3.095-0.582 16.886-36.416-5.851-0.539-27.245 0.615-13.207 0.151-6.404z" fill="#FCFCFB"/> <path transform="scale(1.9531)" d="m369.78 794.36 40.827 1.732-0.6 8.159-1.168 10.791-39.825-1.071 0.615-13.207 0.151-6.404z" fill="#D44850"/> <path transform="scale(1.9531)" d="m456.28 751.55 15.862 98.646 2.492 23.367c-3.73-0.051-7.081-7e-3 -10.535-1.622l-0.884-4.967-3.291-16.188-21.518 0.294-8.339-1.1c-0.535-6.242 0.024-13.668-4.135-18.745l8.401-22.862 7.654-22.537 3.877 1.479 10.416-35.765zm-14.293 34.286-7.654 22.537-8.401 22.862c4.159 5.077 3.6 12.503 4.135 18.745l8.339 1.1 21.518-0.294-14.06-63.471-3.877-1.479z" fill="#D44850"/> <path transform="scale(1.9531)" d="m611.18 720.37c3.225 6.004 7.832 51.964 8.915 62.465l3.69 22.162 2.432 14.003 16.426 0.061-4.873 22.172 2.164 1.143 0.425 1.579-2.417 6.35-24.062-0.722-1.354 12.179c-5.797 3.387-10.217 6.096-15.006 10.966l0.473-14.62 0.795-9.22c1.04-2.884 4.634-4.519 7.012-6.191 1.244-0.876 2.324-1.806 2.357-3.451 0.056-2.729-3.346-6.121-5.002-8.112l-5.305-8.251c1.72-6.649 1.92-14.018 2.566-20.854 1.133-11.999 2.22-24.002 3.328-36.003 1.352-14.644 1.427-32.112 7.436-45.656zm8.915 62.465-6.215 66.748 24.062 0.722 2.417-6.35-0.425-1.579-2.164-1.143 4.873-22.172-16.426-0.061-2.432-14.003-3.69-22.162z" fill="#D44850"/> <defs> <linearGradient id="a" x1="532.48" x2="583.32" y1="685.66" y2="814.16" gradientUnits="userSpaceOnUse"> <stop stop-color="#274878" offset="0"/> <stop stop-color="#4461A9" offset="1"/> </linearGradient> </defs> <path transform="scale(1.9531)" d="m520.2 688.94c13.29 3.563 26.053 7.071 39.787 8.638 4.539 0.519 9.151 0.109 13.623 0.627l0.669 2.336 34.847-0.62 2.055 20.453c-6.009 13.544-6.084 31.012-7.436 45.656-1.108 12.001-2.195 24.004-3.328 36.003-0.646 6.836-0.846 14.205-2.566 20.854l-9.012-9.176c-4.721 0.744-29.599 5.622-32.249 3.941l-0.294 0.601-0.507 0.645-0.154-0.194-6.741-0.388-28.694-129.38zm54.079 11.601c2.952 28.848 8.288 57.649 12.362 86.37 0.789 5.567 1.383 11.073 1.706 16.689 0.187 3.243-0.042 6.957 0.492 10.111l9.012 9.176c1.72-6.649 1.92-14.018 2.566-20.854 1.133-11.999 2.22-24.002 3.328-36.003 1.352-14.644 1.427-32.112 7.436-45.656l-2.055-20.453-34.847 0.62z" fill="url(#a)"/> <path transform="scale(1.9531)" d="m832.63 714.07c-3.461 12.275-5.865 24.818-8.54 37.28-4.298 20.018-8.482 40.053-12.649 60.099-3.347 16.103-8.717 32.599-10.286 48.969l-3.493 16.429-8.556 0.173 2.75-16.512 21.992-145.97 18.782-0.466z" fill="#D44850"/> <path transform="scale(1.9531)" d="m578.54 597.62 22.81-1.69c-1.349 3.11-3.195 6.392-3.833 9.728-2.465 12.891 4.009 37.057 5.428 50.662l0.936 8.786 5.243 34.808-34.847 0.62-0.669-2.336c-4.472-0.518-9.084-0.108-13.623-0.627-13.734-1.567-26.497-5.075-39.787-8.638l-13.617-63.153c-0.588-6.193 0.416-12.362 4.577-17.212 3.094-3.605 7.403-5.991 11.938-7.261 7.67-2.149 16.494-1.83 24.433-2.17 10.351-0.444 20.67-0.856 31.011-1.517z" fill="#2F4A96"/> <path transform="scale(1.9531)" d="m569.04 663.23-0.789-3.287c3.069-1.917 29.123-3.182 34.695-3.62l0.936 8.786c-6.654 0.825-24.827 1.268-31.091-0.147-1.372-0.31-2.565-1.002-3.751-1.732z" fill="#141961"/> <path transform="scale(1.9531)" d="m573.61 698.2-4.569-34.971c1.186 0.73 2.379 1.422 3.751 1.732 6.264 1.415 24.437 0.972 31.091 0.147l5.243 34.808-34.847 0.62-0.669-2.336z" fill="#B73B4B"/> <path transform="scale(1.9531)" d="m652.92 580.42c6.341 2.361 12.738 4.647 18.91 7.424 10.274 4.622 20.492 9.978 31.105 13.754 4.361 2.286 6.696 5.137 9.521 9.024l2.879 8.466 5.479-6e-3c15.648 0.186 24.712-0.204 40.372-2.686l-0.521 0.785c-2.73 4.009-6.877 6.962-9.581 11.079-5.102 7.768-6.562 31.154-7.148 40.705l-1.141 18.46-0.582 13.229c-1.619 30.528-3.056 61.061-4.556 91.595-0.551 11.237-1.065 22.47-1.56 33.709-0.131 2.987-0.664 5.974-0.7 8.949-0.019 1.529 8e-3 2.847 0.629 4.261l1.688 0.495 0.215 10.824-19.87-0.384 1.941 8.005 0.19 0.504 6.572 4.82-0.163 0.626-3.599-0.59-5.93-3.483-7.572 2.96-3.148-12.43-29.179-0.492-2.306 0.765-14.178 0.142c-7.001 0.186-13.761-0.046-20.689 1.243l-2.057-1.868 2.417-6.35-0.425-1.579-2.164-1.143 4.873-22.172-16.426-0.061-2.432-14.003-3.69-22.162c-1.083-10.501-5.69-56.461-8.915-62.465l-2.055-20.453-5.243-34.808-0.936-8.786c-1.419-13.605-7.893-37.771-5.428-50.662 0.638-3.336 2.484-6.618 3.833-9.728l4.086-4.791c6.596-6.704 14.995-7.706 23.891-7.72 6.328-0.96 18.616 0.623 23.593-3.002zm74.184 109.64-3.467 10.824c-4.504 16.337-9.137 32.63-13.842 48.91-2.827 9.783-6.839 20.135-7.936 30.253 6.401 23.108 11.28 46.598 16.2 70.053l19.87 0.384-0.215-10.824-1.688-0.495c-0.621-1.414-0.648-2.732-0.629-4.261 0.036-2.975 0.569-5.962 0.7-8.949 0.495-11.239 1.009-22.472 1.56-33.709 1.5-30.534 2.937-61.067 4.556-91.595l0.582-13.229-15.691 2.638zm-47.555 153.5-2.378 6.459 29.179 0.492-11.283-46.228c-1.484 4.433-11.04 38.444-12.536 39.053l-2.982 0.224zm-19.808-142.38c1.368 8.818 2.286 20.297 6.111 28.368l8.441-28.325-14.552-0.043z" fill="#110F3D"/> <path transform="scale(1.9531)" d="m732.92 668.99 11.024-0.027-1.141 18.46-15.691 2.638 5.808-21.071z" fill="#D44850"/> <path transform="scale(1.9531)" d="m640.36 843.95 0.823-2.005c5.482-1.732 14.266-0.519 19.93 0.441l18.438 1.173-2.378 6.459-2.306 0.765-14.178 0.142c-7.001 0.186-13.761-0.046-20.689 1.243l-2.057-1.868 2.417-6.35z" fill="#D44850"/> <path transform="scale(1.9531)" d="m661.12 842.39 18.438 1.173-2.378 6.459-2.306 0.765-14.178 0.142 10.095-0.675-9.671-7.864z" fill="#B73B4B"/> <path transform="scale(1.9531)" d="m654.7 665.04 29.751 0.184-10.153 35.998-14.552-0.043-5.046-36.139z" fill="#B73B4B"/> <path transform="scale(1.9531)" d="m701.86 780.05c6.401 23.108 11.28 46.598 16.2 70.053l1.941 8.005 0.19 0.504 6.572 4.82-0.163 0.626-3.599-0.59-5.93-3.483-7.572 2.96-3.148-12.43-11.283-46.228 6.792-24.237z" fill="#D44850"/> <path transform="scale(1.9531)" d="m727.11 690.06 15.691-2.638-0.582 13.229-18.576 0.233 3.467-10.824z" fill="#B73B4B"/> <path transform="scale(1.9531)" d="m652.92 580.42c6.341 2.361 12.738 4.647 18.91 7.424 10.274 4.622 20.492 9.978 31.105 13.754 4.361 2.286 6.696 5.137 9.521 9.024l2.879 8.466-1.996 2.816c-9.575 3.106-16.205 6.994-20.836 16.342l-1.027 2.33-39.469 0.422 2.688 24.048 5.046 36.139c1.368 8.818 2.286 20.297 6.111 28.368l-23.21 89.508-16.426-0.061-2.432-14.003 0.297-0.268c2.712-3.077 5.619-18.818 6.69-23.523 9.827-43.163 16.314-89.148 17.156-133.46 0.251-13.238-0.508-26.158-0.922-39.347-1.302-7.307-2.231-15.424-7.698-21.004-3.147-3.213-5.661-3.906-9.98-3.977 6.328-0.96 18.616 0.623 23.593-3.002z" fill="#2F4A96"/> <path transform="scale(1.9531)" d="m601.36 595.93 4.086-4.791c6.596-6.704 14.995-7.706 23.891-7.72 4.319 0.071 6.833 0.764 9.98 3.977 5.467 5.58 6.396 13.697 7.698 21.004 0.414 13.189 1.173 26.109 0.922 39.347-0.842 44.308-7.329 90.293-17.156 133.46-1.071 4.705-3.978 20.446-6.69 23.523l-0.297 0.268-3.69-22.162c-1.083-10.501-5.69-56.461-8.915-62.465l-2.055-20.453-5.243-34.808-0.936-8.786c-1.419-13.605-7.893-37.771-5.428-50.662 0.638-3.336 2.484-6.618 3.833-9.728z" fill="#3560B8"/> </svg>