<?xml version='1.0' encoding='utf-8'?>
<svg xmlns="http://www.w3.org/2000/svg" viewBox="0 0 1151 575"> <path transform="scale(.56229)" d="m86.746 322.5c1.0231-0.13 1.9742-0.139 3.0035-0.079 7.565 0.437 15.706 3.172 20.744 9.103 2.811 3.308 3.838 6.176 3.481 10.476-1.86 1.424-3.24 1.385-5.474 1.71-8.9019-1.948-20.031-4.743-26.229-11.8-1.1077-3.699-1.3469-4.351 0.2293-7.878l4.2456-1.532z" fill="#040103"/> <path transform="scale(.56229)" d="m138.01 272.5 3.488-0.378c1.439 0.708 3.036 1.517 4.152 2.694 2.016 2.125 2.701 5.649 3.411 8.426 2.349 9.188 4.443 21.25 4.039 30.758-0.166 3.887-0.662 7.302-3.602 9.891l-0.843-0.614c-3.02-2.499-4.603-7.266-5.965-10.82-3.8-9.914-7.259-19.774-8.357-30.414-0.478-4.628 0.938-6.133 3.677-9.543z" fill="#040103"/> <path transform="scale(.56229)" d="m219.83 280.5c1.745-0.287 3.925-0.63 5.674-0.409 3.39 0.428 4.409 2.896 6.1 5.409 0.224 2.028 0.527 4.23-0.086 6.211-3.217 10.4-12.079 15.199-20.995 19.947-3.943 1.036-6.713 1.559-10.45-0.158-0.114-2.049-0.061-3.961 0.667-5.908 3.627-9.704 9.378-20.734 19.09-25.092zm2.576 6c-5.726 2.661-12.707 8.567-14.46 15-0.27 0.993-0.342 1.977-0.352 3l3.91 0.059c6.502-3.884 9.957-7.91 14-14.291l0.156-2.961c-1.094-0.373-2.088-0.834-3.254-0.807z" fill="#040103"/> <path transform="scale(.56229)" d="m102.33 294.5c3.355-0.723 6.408-0.317 9.542 1.046 8.084 3.516 15.251 14.847 18.127 22.954 0.985 2.777 0.819 5.072-0.497 7.732l-4 0.762c-6.889-0.449-21.632-12.102-26.195-17.361-2.9651-3.418-3.6118-6.197-3.3565-10.633 1.4471-2.587 3.8024-3.374 6.3798-4.5zm-0.016 6c0.237 4.316 0.712 4.71 4 7.695 5.317 4.826 12.649 8.931 19.08 12.137-4.07-7.101-8.969-17.475-17.392-20.122-1.808-0.569-3.949-0.405-5.688 0.29z" fill="#040103"/> <path transform="scale(.56229)" d="m181.44 263.5c1.761-0.325 3.792 0.407 5.515 0.811 0.927 0.98 2.19 1.941 2.6 3.231 3.884 12.235-5.449 35.184-11.054 45.977l-2.011 1.234c-2.112-1.238-3.025-3.726-3.751-5.97-3.254-10.05-4.372-29.419 0.951-39.145 1.741-3.181 4.343-5.082 7.75-6.138zm0.512 5c-4.167 3.442-5.501 6.151-6.04 11.625-0.407 4.139-1.793 17.992 0.768 21.211l1.09 0.164c4.094-6.907 9.068-23.515 7.25-31.5-1.259-1.124-1.322-1.475-3.068-1.5z" fill="#040103"/> <path transform="scale(.56229)" d="m945.35 343.44 8.482-0.358c18.72-0.555 68.041-1.195 81.631 12.151 3.61 3.546 5.5 8.588 6.28 13.509 3.55 22.208 2.26 46.526 2.93 69.086l3.49 173.46 62.08-2.587c18.87-0.486 40.27-0.049 57.74 7.945 7.67 3.509 13.2 8.726 16.16 16.659 6.31 16.919 9.98 51.652 2.21 68.188-1.05 2.226-2.13 4.194-3.68 6.123-7.81 9.74-20.02 12.016-31.74 13.289l-102.93-0.051c-43.33 0.748-86.61 3.001-129.63-3.525-5.146-27.796-5.336-58.022-6.701-86.292l-5.689-174.14-1.976-65.942c-0.357-13.935-1.737-28.138 0.693-41.923 12.678-4.499 27.32-4.917 40.646-5.593z" fill="#040103"/> <path transform="scale(.56229)" d="m1009 604.5 1.91-0.317c6.53-0.943 22.44-2.197 27.6 1.678 0.25 2.528 0.11 2.948-1 5.246l-0.6 0.258c-5.32 2.09-22.81 0.975-28.02-1.191-0.98-2.215-0.37-3.409 0.11-5.674z" fill="#C87AA9"/> <path transform="scale(.56229)" d="m1006.2 534.97 20.93 0.745c3.53 0.148 7.38-0.249 10.48 1.674 0.37 3.127 0.8 5.283-0.88 8.115-9.82 1.379-20.22 0.509-30.16 1.108l-0.37-11.642z" fill="#C87AA9"/> <path transform="scale(.56229)" d="m1006.2 493.46 31.87-0.613-0.05 12.999-31.96 0.318 0.14-12.704z" fill="#F17B3C"/> <path transform="scale(.56229)" d="m1004.8 415.83 20.75 1.498c4.01 0.259 8.35 0.045 11.96 1.991 0.95 2.904 0.25 6.527 0 9.562-2.13 1.621-5.82 1.037-8.4 1.048l-24.06 0.083-0.25-14.182z" fill="#F29C2E"/> <path transform="scale(.56229)" d="m1006.1 510.87 32.04-0.372v20.95l-31.88-1.343-0.16-19.235z" fill="#EDA9B3"/> <path transform="scale(.56229)" d="m1006.6 551.16 31.55-0.321 0.68 21.243-31.96-0.951-0.27-19.971z" fill="#EDA9B3"/> <path transform="scale(.56229)" d="m1006.9 575.84 31.48 1.564 0.47 22.071-30.89-0.311-1.06-23.324z" fill="#C87AA9"/> <path transform="scale(.56229)" d="m1005.9 463.55 32.24 1.326 0.12 23.071-32.22 1.205-0.14-25.602z" fill="#F29C2E"/> <path transform="scale(.56229)" d="m1177.1 682.45c2.18-0.495 2.87-0.178 4.97 0.422l0.79 1.629c-0.47 4.363-1.42 8.713-4.14 12.282-6.71 8.808-17.04 10.067-27.2 11.35-2.9-0.081-3.65 0.198-5.9-1.819-2.07-6.957-1.55-14.698-1.58-21.911l33.06-1.953z" fill="#F29C2E"/> <path transform="scale(.56229)" d="m1005.1 433.94 32.99 1.484 0.13 24.066-32.33-0.498-0.79-25.052z" fill="#F9D45D"/> <path transform="scale(.56229)" d="m1003.2 386.58 34.75 0.878 0.15 25.591-33.88-1.943-1.02-24.526z" fill="#F29C2E"/> <path transform="scale(.56229)" d="m1001.8 353.8c9.52 0.092 22.81-0.775 30.6 5.608 5.51 4.518 5.08 16.145 5.57 22.577l-34.92-0.146-1.25-28.039z" fill="#F29C2E"/> <path transform="scale(.56229)" d="m1143.1 655.16 39.26-0.327 0.46 20.663-2.73 2-25.37 1.958c-3.06 0.239-7.74 1.217-10.62 0.286l-1-24.58z" fill="#F17B3C"/> <path transform="scale(.56229)" d="m1145.1 619.5 9.13 0.378c8.07 0.731 16.6 4.219 21.8 10.627 4.05 4.991 6.38 12.593 5.75 18.995l-3.25 0.565-35.43 1.085c-0.92-9.012-3.41-22.163-1.85-30.927l3.85-0.723z" fill="#F29C2E"/> <path transform="scale(.56229)" d="m910.76 354.14 86.105-0.31 4.217 263.27c14.71 3.274 31.46 2.69 46.55 2.891l84.96-0.484 3.17 87.867-210.71-1.374-14.295-351.86z" fill="#DA2D2B"/> <path transform="scale(.56229)" d="m948.41 365c4.031-0.205 9.235-0.633 13.077 0.652 5.729 1.915 10.77 6.823 13.226 12.286 2.342 5.213 1.822 12.526-0.226 17.805-2.18 5.619-7.352 7.941-12.466 10.284l-0.452 7e-3c-3.366 0.029-7.116 0.371-10.432-0.273-5.369-1.044-11.074-5.242-13.868-9.878-3.135-5.201-3.896-11.558-2.265-17.382 2.018-7.21 7.352-10.054 13.406-13.501z" fill="#040103"/> <path transform="scale(.56229)" d="m950.47 369.5c2.335-0.393 5.014-0.729 7.359-0.362 4.093 0.64 7.957 2.838 10.338 6.253 2.2 3.156 2.729 6.27 2.091 10.023l-0.103 0.586-0.457 2.262c-1.315 4.625-6.254 7.715-10.2 9.928-3.009 0.795-6.246 0.841-9.268 0.111-4.051-0.979-7.43-3.142-9.518-6.823-1.734-3.056-2.168-7.321-1.195-10.687 1.7-5.883 5.965-8.462 10.953-11.291z" fill="#FCF7FA"/> <path transform="scale(.56229)" d="m956.02 377.5 2.513-0.362c2.25 1.066 2.746 2.059 4.126 4.056-0.152 2.845-1.484 4.352-3.158 6.488-0.79 0.107-1.709 0.259-2.5 0.135-2.663-0.42-3.286-2.128-4.61-4.157 0.687-3.286 1.356-3.862 3.629-6.16z" fill="#040103"/> <path transform="scale(.56229)" d="m1273.1 347.49 48.11 1.453c20.87 1.279 44.3 1.12 60.26 16.846 7.02 6.923 10.4 17.821 11.96 27.336 4.73 28.936 2.21 60.064 2 89.331l-0.6 149.08 44.92 1.011c26.25 0.722 58.74 0.885 79 20.236 8.41 8.038 12.45 20.221 12.55 31.679 0.09 9.97-3.21 21.413-10.35 28.56-9.91 9.92-30.2 10.873-43.22 11.008l-148.05-1.952-49.47-1.335c-10.12-0.266-20.65 0.077-30.67-1.092-4.39-0.513-9.9-1.423-13.39-4.386l-0.76-0.671c-1.64-1.41-2.55-2.683-3.31-4.709-4.93-13.11-3.78-32.134-4.31-46.083l-2.28-49.923-6.41-191.51-0.85-41.863c-0.12-7.336-1.48-17.853 1.47-24.563l0.2-0.446c0.28-0.644 0.48-1.185 0.96-1.714 3.82-4.247 10.5-4.502 15.81-4.944l36.43-1.353z" fill="#040103"/> <path transform="scale(.56229)" d="m1512.6 691.5c2.05-0.333 2.25-0.484 4.2 0.5-0.39 2.076-1.07 3.623-2.3 5.322-5.92 8.189-14.69 11.613-24.31 13.178-1.88 0.251-2.16 0.323-3.97-0.5l-0.43-13.727c9.14-0.109 18.1-2.185 26.81-4.773z" fill="#F29C2E"/> <path transform="scale(.56229)" d="m1486 671.55c9.88 0.74 23.54 0.454 32.35 5.118 1.04 2.409 0.56 4.336 0.18 6.833l-4.83 2.887-28 5.979 0.3-20.817z" fill="#C87AA9"/> <path transform="scale(.56229)" d="m1486 643.59 13.38 4.442c11.76 4.986 15.93 11.999 20.49 23.388l-33.94-4.744 0.07-23.086z" fill="#F9D45D"/> <path transform="scale(.56229)" d="m1469.3 642.3 10.81 1.098-3.09 68.414-46.07-0.931c-7.82-0.118-16.59 0.6-24.27-0.742 5.14-1.122 19.42 1.241 22.8-1.143h-17.77c3.18-6.958 7.44-13.054 11.2-19.764 3.66-6.556 6.56-15.58 11.44-21.228 1.73-2.008 1.7-4.218 3-6.288 0.88-1.399 1.88-1.767 2.48-3.497 0.68-1.985 2.07-3.45 2.74-5.371 1.24-3.513 4.43-7.128 6.33-10.58 6.66-0.211 13.41 1.812 19.81 0.196l0.59-0.164z" fill="#0A70BA"/> <path transform="scale(.56229)" d="m1433.8 680.5c1.61-0.358 3.66-0.343 5.21 0.258 2.81 1.092 3.02 3.205 3.89 5.742-1.14 3.317-1.71 3.755-4.39 5.775l-3.5 0.514c-2.76-1.609-3.48-3.089-4.64-5.894 0.67-3.324 1.23-3.995 3.43-6.395z" fill="#FCF7FA"/> <path transform="scale(.56229)" d="m1347.6 360.42c14.98 4.212 23.99 6.986 34.72 18.622 3.32 23.725 1.68 47.06 1.73 70.87l0.89 101.41 1.01 50.682c0.39 8.847 2.17 18.324 1.5 27.096-0.47 0.447-1.47 1.678-2 1.904-1.21 0.514-5.66-0.082-7.32-0.106l-26.16-0.377-4.37-270.1z" fill="#CFEAF7"/> <defs> <linearGradient id="b" x1="1457.5" x2="1169.6" y1="624.57" y2="466.36" gradientUnits="userSpaceOnUse"> <stop stop-color="#0A78BE" offset="0"/> <stop stop-color="#00DCEC" offset="1"/> </linearGradient> </defs> <path transform="scale(.56229)" d="m1406.7 710.14c-4.03 0.814-9.47 0.09-13.63 0.026l-28.05-0.459-69.52-1.352c-16.8-0.277-37.18 1.946-53.15-2.858-2.18-2.292-2.66-5.28-3.07-8.313-1.01-7.572-0.83-15.719-1.11-23.373l-1.61-42.069-5.94-172.03c-1.02-33.611-0.09-68.183-4.8-101.51 11.82-1.53 24.41-0.309 36.35-0.196l74.82 0.824 6.06 272.01-24.23 0.342c-4.88 0.362-8.42 1.013-11.75 4.813l0.82 1.5c3.23 0.481 6.98-1.023 10.33-1.265 5.81-0.42 11.65-0.236 17.47-0.065l79.25 2.465c18.09 0.703 36.45 1.199 54.38 3.669l-0.59 0.164c-6.4 1.616-13.15-0.407-19.81-0.196-1.9 3.452-5.09 7.067-6.33 10.58-0.67 1.921-2.06 3.386-2.74 5.371-0.6 1.73-1.6 2.098-2.48 3.497-1.3 2.07-1.27 4.28-3 6.288-4.88 5.648-7.78 14.672-11.44 21.228-3.76 6.71-8.02 12.806-11.2 19.764h17.77c-3.38 2.384-17.66 0.021-22.8 1.143z" fill="url(#b)"/> <path transform="scale(.56229)" d="m1314.2 664.5 2.81-0.374c2.22 1.425 3.25 2.434 4.33 4.855-0.5 3.771-1.03 4.044-3.68 6.519l-2.15 0.182c-2.82-1.346-3.67-2.435-5.07-5.11 0.66-3.344 1.38-3.811 3.76-6.072z" fill="#FCF7FA"/> <path transform="scale(.56229)" d="m1345.7 689.5 3.28-0.378c2.42 1.499 3.35 2.647 4.5 5.245-0.86 3.459-1.33 3.736-4 5.838-1.15 0.228-2.33 0.061-3.5-5e-3 -2.14-1.639-2.86-2.088-3.85-4.7 0.89-3.154 1.22-3.719 3.57-6z" fill="#FCF7FA"/> <path transform="scale(.56229)" d="m1408.3 687.5 3.68-0.442c2.57 1.613 3.29 2.647 4.35 5.442-0.37 3.19-0.96 3.687-3 6-1.56 0.652-3.19 0.524-4.85 0.534-2.36-1.415-3.15-2.481-4.16-5.034 0.8-3.582 1.42-4.093 3.98-6.5z" fill="#FCF7FA"/> <path transform="scale(.56229)" d="m1297.6 685.5 4.85-0.602c0.95 0.305 1.66 0.528 2.34 1.294 2.37 2.669 2.07 3.896 1.9 7.308l-3.24 2.898-3 0.539c-2.59-0.664-3.62-2.058-5.21-4.029 0.04-3.504 0.45-4.464 2.36-7.408z" fill="#FCF7FA"/> <path transform="scale(.56229)" d="m1264.1 676.5 4.88-0.477c2.49 1.414 3.33 2.895 4.6 5.322-0.6 2.974-1.6 3.9-3.52 6.155-1.45 0.596-3.03 0.546-4.58 0.627-3.04-1.587-3.4-2.289-5-5.164 0.69-3.47 1.25-4.04 3.62-6.463z" fill="#FCF7FA"/> <path transform="scale(.56229)" d="m1333.2 645.5c1.32-0.281 3.01-0.719 4.36-0.363 3.07 0.812 3.64 2.363 5.16 4.875-0.18 3.945-0.74 4.167-3.19 7.07l-5 0.697c-2.73-1.594-3.15-2.015-4.69-4.779 0.58-3.63 0.98-4.699 3.36-7.5z" fill="#FCF7FA"/> <path transform="scale(.56229)" d="m1248.6 640.5 3.36-0.249c1.34 0.559 2.24 1.192 3.11 2.357 1.41 1.882 2.65 3.374 1.92 5.892-0.77 2.624-2.37 3.418-4.53 4.707-4.27-0.39-4.93-0.765-8.21-3.482l-0.32-4.225c0.84-2.58 2.55-3.551 4.67-5z" fill="#FCF7FA"/> <path transform="scale(.56229)" d="m1364.6 662.5c2.05-0.45 4.06-0.224 6.14-0.098 2.71 1.937 2.98 2.615 4.13 5.598-0.73 3.475-1.56 4.01-3.97 6.5-1.84 0.492-3.8 0.261-5.68 0.175-1.96-1.718-3.7-2.973-4.2-5.675 0.78-3.294 1.38-4.097 3.58-6.5z" fill="#FCF7FA"/> <path transform="scale(.56229)" d="m1418.2 655.5c1.51-0.418 2.88-0.177 4.41 0 2.34 1.965 4.38 3.041 4.35 6.5-0.03 3.5-2.15 4.679-4.47 6.767l-4.72-0.332c-2.75-1.937-3.47-3.363-4.55-6.435 0.83-3.33 2.38-4.474 4.98-6.5z" fill="#FCF7FA"/> <path transform="scale(.56229)" d="m1287.2 642.5c2.91-0.21 4.9-0.389 7.33 1.597 1.84 1.505 2.07 4.201 2.41 6.403-0.99 3.11-2.83 4.171-5.41 5.929-2.36 0.581-4.41-0.403-6.64-1.149-2.2-2.717-2.43-3.811-2.87-7.28 1.44-3.062 2.48-3.578 5.18-5.5z" fill="#FCF7FA"/> <path transform="scale(.56229)" d="m1299.3 429.5 1.05-0.049 0.69 1.549c-0.85 2.215-1.74 4.318-3.17 6.225-4.48 5.951-10.82 9.418-18.2 10.407-10.32 1.384-18.18-4.155-25.81-10.185-1.13-2.03-1.95-4.302-2.85-6.447l1-1.078c7.38 4.49 15.49 9.887 24.35 10.221 9.71 0.365 16.16-4.503 22.94-10.643z" fill="#040103"/> <path transform="scale(.56229)" d="m1250.2 384.5c1.95-0.358 4.48-0.948 6.44-0.533 2.84 0.604 5.54 2.705 7.19 5.073 1.75 2.517 2.61 5.983 1.98 8.987-0.91 4.323-3.8 6.593-7.28 8.953l-5 0.996c-3.25-0.819-6.23-1.948-8.15-4.881-2.01-3.061-2.69-6.918-1.86-10.474 1-4.305 3.16-5.888 6.68-8.121z" fill="#040103"/> <path transform="scale(.56229)" d="m1254.1 390.5c3.56-0.549 3.66-0.351 6.41 1.621 0.54 3.055 0.54 3.521-0.65 6.379l-1.6 0.04-5.01-5.524 0.85-2.516z" fill="#FCF7FA"/> <path transform="scale(.56229)" d="m1300.5 383.5c1.37-0.249 2.74-0.399 4.11-0.053 3.88 0.983 7.46 3.305 9.44 6.843 1.58 2.826 1.69 6.437 0.79 9.511-1.24 4.23-4.64 6.924-8.33 8.965-2.07 0.202-4.59 0.56-6.62 0.098-3.08-0.697-6.29-3.83-7.66-6.579-1.36-2.711-1.73-7.428-0.8-10.302 1.3-4.02 5.57-6.647 9.07-8.483z" fill="#040103"/> <path transform="scale(.56229)" d="m707.18 332.43c39.628-2.778 88.405-0.363 125.68 14.179 14.555 5.679 23.851 13.868 30.143 28.359 7.006 16.134 8.082 42.963 1.194 59.384-2.35 5.602-5.503 8.415-11.686 6.64-42.76-12.281-83.907-18.618-128.3-11.937-10.694 1.609-22.142 3.412-32.171 7.563l-0.438 46.934 73.833 0.224c12.596-0.015 24.839-1.218 37.327 0.982 4.258 8.261 6.67 15.974 8.457 25.054 2.991 15.194 3.807 34.369-5.125 47.684-1.586 1.037-3.259 1.931-5.143 2.277-12.152 2.229-26.383 1.392-38.791 1.9l-68.389 3.402 3.671 60.267c30.123 3.771 61.394 2.362 91.528-0.655l60.784-12.656c7.818 6.897 12.283 14.991 16.617 24.312 6.213 13.362 10.455 28.678 4.98 43.057-5.683 14.923-18.516 22.574-32.425 28.654-21.193 9.264-44.869 12.662-67.737 14.806-37.999 3.563-75.292 2.802-113.24-0.594-17.944-1.605-36.362-2.598-53.295-9.214-5.971-21.241-5.101-45.444-6.815-67.429l-7.976-205.96c-0.105-28.332-1.363-57.383 0.884-85.616 38.302-13.287 76.209-18.348 116.43-21.617z" fill="#040103"/> <path transform="scale(.56229)" d="m783.31 492.5 17.249-0.525c3.009 15.776 6.314 34.567 0.941 50.155l-3.185 1.37-18.618 1.625c0.777-7.997 2.152-15.995 2.243-24.04 0.102-8.913-1.113-17.98-1.615-26.883l2.985-1.702z" fill="#62B861"/> <path transform="scale(.56229)" d="m849.34 623.5c1.173-0.412 2.431-0.339 3.661-0.367 3.481 4.693 5.907 10.793 8.025 16.231 2.976 7.641 6.111 18.308 2.564 26.199l-0.265 0.577c-3.444 7.738-11.138 13.339-18.041 17.851l-5.283 2.768-1.682-0.998-6.161-55.776c2.901-2.798 13.026-5.04 17.182-6.485z" fill="#62B861"/> <path transform="scale(.56229)" d="m832.02 356.5 2.116 0.593c8.534 2.453 15.729 5.143 20.174 13.436 8.676 16.187 8.362 35.646 3.191 52.794l-1.641 0.858c-5.432-0.349-19.769-3.719-24.05-6.884 1.88-20.361 2.588-40.439 0.21-60.797z" fill="#62B861"/> <defs> <linearGradient id="a" x1="566.1" x2="865.04" y1="640.97" y2="410.15" gradientUnits="userSpaceOnUse"> <stop stop-color="#D7C968" offset="0"/> <stop stop-color="#B1D07F" offset="1"/> </linearGradient> </defs> <path transform="scale(.56229)" d="m724.87 342.45c33.695-2.033 68.052 3.997 100.66 11.927 2.365 5.806 2.277 13.285 2.378 19.495 0.236 14.531-0.83 28.756-2.234 43.206-50.7-11.266-105.56-11.085-154.59 7.285-5.375 22.502-4.344 48.518-4.806 71.667l107.06-3.187c1.552 17.759 1.802 34.34-0.587 52.076l-104.06 7.252c0.713 28.766 5.323 57.241 13.502 84.797l73.1 3.084 70.403-9.086c5.026 19.202 5.08 40.603 5.201 60.351-40.376 12.003-81.604 15.586-123.52 16.974-31.783 1.053-63.105 0.94-94.758-2.476l-12.528-344.52c41.374-14.283 81.461-17.296 124.77-18.845z" fill="url(#a)"/> <path transform="scale(.56229)" d="m673.43 511.5 2.586-0.669 2.018 1.669c0.826 3.001 0.807 3.04-0.533 5.853l-2.516 0.707-2.167-1.56c-0.765-3.023-0.69-3.153 0.612-6z" fill="#040103"/> <path transform="scale(.56229)" d="m636.39 467.5 2.622-0.395 1.799 1.395c0.952 3.087 0.806 3.326-0.313 6.385l-3 1.035-2.162-1.257c-0.335-3.248-0.45-4.12 1.054-7.163z" fill="#040103"/> <path transform="scale(.56229)" d="m650.98 422.5 3.026-0.491 2.214 1.879c0.467 3.055-0.242 3.921-1.558 6.612l-2.677 0.304-2.487-2.091c-0.376-3.259-0.251-3.407 1.482-6.213z" fill="#040103"/> <path transform="scale(.56229)" d="m653.05 599.5 2.963-0.548c2.114 2.384 2.325 2.906 2.902 6.048l-1.829 2.5c-2.884 0.149-3.133-0.021-5.582-1.588-0.321-3.353-0.241-3.549 1.546-6.412z" fill="#040103"/> <path transform="scale(.56229)" d="m647.49 505.5c2.084 0.196 2.509 1.044 4.01 2.443 0.231 3.593-0.033 3.93-2 6.722l-2.371 0.119c-1.897-0.983-1.951-1.453-2.92-3.284 0.668-3.317 0.852-3.643 3.281-6z" fill="#040103"/> <path transform="scale(.56229)" d="m666.84 654.5 3.162-0.479 2.495 2.091c0.301 3.074-0.178 3.757-1.572 6.388l-2.937 0.508-2.229-2.008c-0.473-3.202-0.806-3.679 1.081-6.5z" fill="#040103"/> <path transform="scale(.56229)" d="m758.49 501.5 2.515 0.188 2.33 2.812c-0.449 3.27-0.805 3.885-2.835 6.294l-3.041-0.22-2.106-3.574c0.543-3.113 0.831-3.294 3.137-5.5z" fill="#040103"/> <path transform="scale(.56229)" d="m623.41 529.5 2.608-0.369 2.486 2.432c0.351 3.478 9e-3 4.032-1.64 6.937l-2.87 0.427-2.352-2.427c-0.371-3.33 0.262-4.134 1.768-7z" fill="#040103"/> <path transform="scale(.56229)" d="m668.72 691.5 3.784-0.128 1.516 2.128c-0.039 3.104 0.083 4.272-1.586 7l-2.906 0.406-2.191-2.007c-0.161-3.329-0.239-4.35 1.383-7.399z" fill="#040103"/> <path transform="scale(.56229)" d="m776.24 672.5 3.755-0.504 1.984 2.004c-2e-3 3.655-0.246 4.315-2.484 7.205l-1.944 0.411-2.828-2.116c-0.601-3.391 6e-3 -4.051 1.517-7z" fill="#040103"/> <path transform="scale(.56229)" d="m613.42 499.5 3.083-0.472 2.206 2.184c0.2 3.311-0.058 4.341-1.583 7.288-1.008 0.409-1.694 0.665-2.777 0.508-1.353-0.196-1.865-1.458-2.676-2.508-0.208-3.044 0.289-4.43 1.747-7z" fill="#040103"/> <path transform="scale(.56229)" d="m646.49 630.5 2.01 0.551c1.835 2.131 2.022 3.781 2.298 6.449l-3.143 3-1.116 0.04c-2.619-1.511-2.697-1.741-3.888-4.54 0.919-3.363 1.006-3.464 3.839-5.5z" fill="#040103"/> <path transform="scale(.56229)" d="m654.49 546.5c2.978 0.064 3.189 0.718 5.228 2.709 0.014 3.359-0.433 3.962-2.218 6.643l-1.545 0.651c-2.657-0.866-2.65-1.11-4.16-3.503 0.288-3.385 0.249-3.903 2.695-6.5z" fill="#040103"/> <path transform="scale(.56229)" d="m631.21 672.5c3.144 0.565 3.182 1.045 4.97 3.5-0.289 3.394-0.305 3.96-2.683 6.629l-3.046-0.053-2.361-3.576c0.694-3.061 0.966-4.067 3.12-6.5z" fill="#040103"/> <path transform="scale(.56229)" d="m625.7 577.5c1.281-0.256 2.503-0.227 3.804-0.241l2 3.013c0.249 2.823-0.637 4.302-2 6.632l-0.844 0.365c-2.657-0.282-2.654-0.28-4.439-2.269-0.104-3.425-0.747-4.795 1.479-7.5z" fill="#040103"/> <path transform="scale(.56229)" d="m737.73 691.5 3.27-0.588 2.003 2.088c0.844 3.864 0.373 4.178-1.507 7.437-1.45 0.733-1.918 0.579-3.5 0.453l-1.968-2.39c-0.021-3.363-0.555-4.396 1.702-7z" fill="#040103"/> <path transform="scale(.56229)" d="m621.37 623.5 2.648-0.152 2.486 2.621c0.099 3.449-0.214 4.369-2 7.323-1.314 0.324-2.277 0.11-3.593-0.067l-2.059-2.725c0.133-3.496 0.625-4.222 2.518-7z" fill="#040103"/> <path transform="scale(.56229)" d="m621.98 443.5 3.521-0.48 2.411 2.48c-0.037 3.374 0.169 4.216-1.967 7l-3.444 0.483-2.159-2.185c-0.261-3.554-0.399-4.17 1.638-7.298z" fill="#040103"/> <path transform="scale(.56229)" d="m695.27 530.5c2.716 0.294 2.916 1.024 4.638 3 0.011 3.63-0.247 4.35-2.404 7.27l-2.947 0.078-2.455-2.348c0.098-4.525-0.082-4.813 3.168-8z" fill="#040103"/> <path transform="scale(.56229)" d="m796.02 652.5 3.813-0.148 2.264 2.648c-0.099 3.629-0.422 4.42-2.596 7.327l-0.295 0.03c-2.815 0.097-2.946-0.46-4.986-2.382-0.158-3.467 0.09-4.454 1.8-7.475z" fill="#040103"/> <path transform="scale(.56229)" d="m714.17 665.5c1.401 0.256 2.391 1.694 3.333 2.688 0.266 1.124 0.449 2.222 0.132 3.36-0.855 3.073-1.322 3.661-4.132 5.186l-0.311-0.149c-3.135-1.965-3.129-2.754-3.957-6.085 1.59-2.962 1.634-3.816 4.935-5z" fill="#040103"/> <path transform="scale(.56229)" d="m715.79 502.5 1.785-0.562c2.916 0.657 2.828 1.05 4.544 3.562-0.357 3.754-0.69 4.314-3.337 7l-1.686 0.114c-2.145-1.215-2.487-1.971-3.788-4.114 0.138-2.663 0.865-3.915 2.482-6z" fill="#040103"/> <path transform="scale(.56229)" d="m750.31 652.5 3.188-0.857 3.079 2.759c0.275 3.707 0.245 4.17-2.079 7.073-1.332 0.407-2.618 0.4-4 0.472l-2.215-2.07c-0.106-3.493 0.2-4.396 2.027-7.377z" fill="#040103"/> <path transform="scale(.56229)" d="m735.38 522.5c0.546-0.172 1.161-0.406 1.746-0.408 2.662-6e-3 3.353 1.567 4.888 3.408 0.354 3.122-0.193 4.456-1.764 7-1.497 0.296-3.214 0.254-4.747 0.339l-2.296-2.839c-0.064-3.585 0.237-4.481 2.173-7.5z" fill="#040103"/> <path transform="scale(.56229)" d="m638.7 374.5c2.41-0.313 4.873-0.621 7.248 0.062 4.303 1.238 7.409 4.578 9.548 8.388 2.576 4.588 2.668 8.139 1.135 13.178-1.714 5.635-6.105 9.178-11.126 11.798-2.387 0.265-4.653 0.395-7.031-0.054-4.222-0.798-7.86-3.403-10.204-7.01-2.692-4.142-2.737-10.695-1.389-15.296 1.586-5.417 7.208-8.549 11.819-11.066z" fill="#FCF7FA"/> <path transform="scale(.56229)" d="m641.19 386.5c0.581-0.109 1.254-0.282 1.852-0.152 2.666 0.58 3.522 2.592 4.924 4.652-0.488 3.627-1.089 4.15-3.467 6.731l-2.884-9e-3c-2.178-1.42-3.017-2.649-4.116-4.986 0.626-3.452 1.27-3.896 3.691-6.236z" fill="#040103"/> <path transform="scale(.56229)" d="m426.6 337.4c17.591-2.259 38.75-0.045 55.99 3.469 18.43 3.756 40.722 12.154 51.906 28.138 3.825 5.467 5.988 11.383 6.849 17.997 2.677 20.547 2.305 41.774 2.749 62.466l2.444 78.199 2.668 77.82 1.57 39.229c0.537 12.448 1.379 24.713 0.015 37.155-1.26 11.505-5.171 22.949-14.577 30.36-9.527 7.505-20.906 10.153-32.593 12.214-32.693 5.765-65.897 2.514-98.59-1.467l-6.745-138.78-102.25 5.221c-1.622 14.196-0.341 29.739-0.309 44.092l0.39 86.918-25.988 0.57-130.29 0.771-13.708-360.68c21.94-8.835 43.559-14.054 67.053-16.804 26.132-3.059 62.265-5.33 84.155 12.48 3.332 2.711 7.349 7.117 9.102 11.066 5.901 13.292 6.385 28.425 7.72 42.669l4.891 55.519c3.028 1.69 15.457 0.311 19.626 0.248l71.196-1.266c-1.561-28.103-2.31-55.887-0.457-83.996 0.908-13.785 1.426-26.763 6.638-39.767 9.622-2.691 20.601-3.123 30.545-3.842z" fill="#040103"/> <path transform="scale(.56229)" d="m287.61 569.5c2.848-0.978 4.504-0.904 7.394-0.381 2.351 1.744 4.177 3.051 5.5 5.77-1.398 1.068-3.314 0.846-5 0.878-3.493-1.702-5.488-3.208-7.894-6.267z" fill="#F3BBB7"/> <path transform="scale(.56229)" d="m262.45 701.68c0.995 1.652 2.048 2.845 2.07 4.817l-2.046 0.595c-2.569 0.514-5.067 0.185-7.176-1.266-0.24-3.163-0.836-6.552 0.206-9.611l2.589 0.777c1.174 1.678 2.345 3.999 4.357 4.688z" fill="#F3BBB7"/> <path transform="scale(.56229)" d="m382.71 563.5 4.788-0.448c3.317 2.211 6.25 4.497 9.145 7.239l-1.145 1.883-5 0.661c-3.12-2.172-5.48-4.466-7.967-7.335l0.179-2z" fill="#FACEAD"/> <path transform="scale(.56229)" d="m300.22 568.5c2.337-0.448 3.566-0.452 5.734 0.616l0.541 0.281 4.5-1.335c4.004 0.926 4.656 1.96 7.5 4.792-0.216 0.692-0.662 1.381-1 2.025l-13 0.257c-2.402-2.487-3.406-3.219-4.275-6.636z" fill="#F3BBB7"/> <path transform="scale(.56229)" d="m255.21 448.5 2.163-0.053c4.544 4.656 14.515 13.331 15.309 20.053-1.993 0.244-4.163 0.105-6.179 0.133-2.884-3.014-10.322-9.233-11.405-13.133-0.465-1.676 0.082-5.14 0.112-7z" fill="#F3BBB7"/> <path transform="scale(.56229)" d="m351.12 564.96c1.973 0.053 3.568 0.629 5.256 1.62 2.439 1.434 5.617 4.187 6.292 6.92l-1.367 0.409c-3.346 0.558-7.2-0.158-10.037-1.987l-0.635-0.422-0.802 2c-1.607 1.081-3.94 0.977-5.829 1.133-3.472-1.847-5.539-3.557-7.99-6.633l0.692-1.373c3.444-0.45 4.258 0.115 7.298 0.431 1.765 0.183 5.375-1.523 7.122-2.098z" fill="#F3BBB7"/> <path transform="scale(.56229)" d="m363.49 564.5c3.162-0.075 4.869 1.9 7.169 3.794 0.982 0.809 1.424 1.163 2.764 1.206-1.289-1.633-2.567-2.74-2.827-4.855l3.904-1.1c4.79 1.151 6.471 3.26 10 6.518l0.298 2.623c-3.115 0.795-5.707 0.209-8.798-0.382-3.224 2.045-5.816 1.721-9.5 1.427-2.071-1.981-6.97-5.539-7.04-8.231l4.03-1z" fill="#FACEAD"/> <path transform="scale(.56229)" d="m258.09 697-0.157-0.755c-0.457-1.925-2.209-3.455-3.065-5.24-1.26-2.627-0.782-5.751-0.367-8.516l1.413 0.016c6.675 7.206 14.192 14.585 19.345 23l-1.258 1.304c-1.298-0.045-4.56 0.258-5.613-0.195-1.953-0.839-3.895-3.736-5.941-4.926-2.012-0.689-3.183-3.01-4.357-4.688z" fill="#EDA9B3"/> <path transform="scale(.56229)" d="m508.89 687.72c3.989 2.322 17.458 9.057 18.607 12.571l-3.047 2.415-14.487 5.499-1.073-20.485z" fill="#6A3293"/> <path transform="scale(.56229)" d="m263.74 368.3-14.436-16.931c11.322 4.514 24.37 8.642 29.55 20.82 2.147 5.047 3.038 10.565 3.692 15.976l-11.05-11.097c-2.319-3.642-4.413-6.048-7.756-8.768z" fill="#F3BBB7"/> <path transform="scale(.56229)" d="m254.37 413.5 1.351-0.014 14.233 14.698c4.642 5.469 12.688 13.566 15.356 20.068 0.77 1.874 0.354 4.901 0.188 6.899l-1.931 0.315-28.108-31.369c-2.4-2.869-1.395-7.11-1.089-10.597z" fill="#F3BBB7"/> <path transform="scale(.56229)" d="m263.17 396.55c5.393 8.883 14.76 15.574 20.294 24.06 1.616 2.478 1.342 10.708 1.582 13.825-5.613-6.458-30.76-32.094-31.984-36.938-0.599-2.371-0.079-6.446-0.111-9l1.052-0.792 4.986 4.479c1.124 1.368 2.556 3.727 4.181 4.366z" fill="#F3BBB7"/> <path transform="scale(.56229)" d="m272.8 609.63c-4.008-8.193-11.975-13.382-17.088-20.612-2.602-3.681-1.735-7.939-1.007-12.071 3.972 2.753 6.406 5.386 9.586 8.905 0.519 0.573 0.354 0.384 1.204 0.725l14.036 16.104c1.052 1.202 3.76 3.592 4.251 4.855 1.046 2.691 0.053 10.704 0.069 13.96-0.892 0.724-1.004 0.666-2.169 0.715-1.239-3.545-2.696-4.948-4.708-7.975-1.209-1.82-2.406-3.31-4.174-4.606z" fill="#F3BBB7"/> <path transform="scale(.56229)" d="m253.42 636.5 1.402-0.127c4.528 3.848 7.609 8.788 11.424 13.282l18.36 20.507c2.337 2.622 0.953 10.911 0.791 14.482-8.505-7.766-16.07-16.464-23.912-24.866-2.096-2.245-7.265-6.665-8.083-9.52-0.787-2.749 0.187-10.4 0.018-13.758z" fill="#EDA9B3"/> <path transform="scale(.56229)" d="m254.04 425.68c9.715 8.2 19.678 20.467 27.866 30.275 3.732 4.472 4.103 6.267 3.59 11.861-3.006 1.253-4.915 1.002-8 0.457l-16.741-18.786c-1.835-1.996-5.646-5.192-6.652-7.503-1.127-2.59-0.05-12.974-0.063-16.304z" fill="#F3BBB7"/> <path transform="scale(.56229)" d="m254.71 576.95c-0.191-0.715-0.407-1.433-0.434-2.18l0.225-3.604c2.755-1.032 5.096-1.382 8-1.613l3 2.736 0.322-0.539 1.678-2.443c5.908-0.177 6.705-0.182 11.145 4.047 2.402 2.287 5.007 5.097 6.392 8.145-0.296 2.574-0.522 4.977-1.537 7.395l-1.777-0.62-0.71 0.725 0.423 0.791c1.815 3.469 2.889 7.828 1.571 11.661l-0.169 0.439c-6.375-1.364-10.602-14.074-17.339-15.31-0.85-0.341-0.685-0.152-1.204-0.725-3.18-3.519-5.614-6.152-9.586-8.905z" fill="#EDA9B3"/> <path transform="scale(.56229)" d="m253.22 655.5 1.999 0.296 21.053 21.939c2.643 2.75 6.778 5.987 8.785 9.096 1.622 2.512 0.657 12.352 0.663 15.573l-14.895-17.297-1.206 0.393c4.55 5.972 9.863 11.255 13.882 17.632v2.779l-4 0.77-25.227-28.792c-0.443-2.526-0.678-4.203 0.227-6.708 5.711 1.748 9.104 10.846 14.459 12.652 0.22-3.527-14.399-13.55-15.778-18.833-0.624-2.39 0.028-6.893 0.038-9.5z" fill="#EDA9B3"/> <path transform="scale(.56229)" d="m504.83 566.77 34.036 25.342 0.519 24.288-34.294-28.659-0.261-20.971z" fill="#6A3293"/> <path transform="scale(.56229)" d="m258.99 392.19 0.163-0.793-5.774-6.652c-1.89-2.84-1.478-9.827-0.875-13.179 1.419 1.178 2.897 2.812 4.812 2.937-4.317-5.349-5.257-7.737-5.126-14.5l1.314-0.926 10.236 9.231c3.343 2.72 5.437 5.126 7.756 8.768l0.292 0.64c3.124 6.618 13.389 13.68 10.97 21.542-0.118 0.383-0.476 0.936-0.657 1.245-2.39-0.719-3.953-2.933-5.597-4.723l-0.431 1.223c1.953 2.135 6.343 5.775 7.505 8.204 1.091 2.277 0.602 10.83 0.588 13.632-5.897-6.505-13.757-17.869-20.995-22.283-1.625-0.639-3.057-2.998-4.181-4.366z" fill="#EDA9B3"/> <path transform="scale(.56229)" d="m505.04 590.85 34.902 28.349 0.242 23.94c-12.323-7.331-22.792-17.734-33.816-26.848l-1.328-25.441z" fill="#6A3293"/> <path transform="scale(.56229)" d="m507.24 652.51 32.405 21.199c-0.505 7.229-3.079 14.216-5.562 20.964-1.624 1.699-2.276 2.612-4.584 3.297l-20.567-12.94-1.692-32.52z" fill="#6A3293"/> <path transform="scale(.56229)" d="m506.42 619.51 33.841 26.819-0.248 25.192-32.9-21.488-0.693-30.523z" fill="#6A3293"/> <path transform="scale(.56229)" d="m281.69 622.22-0.081 0.106c2.455 5.084 2.633 8.172 2.104 13.679l-1.209 0.841-2.322-1.52c1.114 2.316 3.633 4.806 4.422 7.019 0.985 2.762 0.308 7.97-0.1 10.911-1.235-0.834-2.062-1.751-3.582-1.751l3.835 6.5c-0.01 2.869 0.693 5.698-1.253 7.879l-3.857-3.527-20.083-24.047c-1.612-1.947-5.681-5.946-6.2-8.305-0.302-1.37 0.23-4.012 0.316-5.5 0.654-0.646 1.23-1.22 2.021-1.703l0.532-0.297c-0.659-0.879-2.592-2.869-2.853-3.804-0.914-3.274 0.131-11.249 0.174-14.894l11.719 13.051 1.08-0.353-7.387-9.142c-5.352-6.187-5.306-7.414-4.725-15.358l1.263-0.827 16.716 17.946 0.588 0.515c1.768 1.296 2.965 2.786 4.174 4.606 2.012 3.027 3.469 4.43 4.708 7.975z" fill="#EDA9B3"/> <path transform="scale(.56229)" d="m494.87 355.79 10.126 9.205 0.971-0.495-8.082-8.319 9.266 3.916c11.409 5.653 19.322 12.578 23.488 24.903l-1.143 0.353-4.5-3.403-1.069 0.55c2.784 2.547 6.756 5.939 8.783 9.094 1.597 2.486 1.657 14.139 0.992 17.215l-17.706-15.843-1.056 0.534 18.971 17.687 1.169 31.268-37.93-34.57-1.267-31.206 15.557 13.821 1.36-0.288-14.233-13.94c-1.006-1.014-2.573-2.265-3.259-3.516-1.385-2.524-0.446-13.665-0.438-16.966z" fill="#6A3293"/> <path transform="scale(.56229)" d="m501.84 501.72 35.144 25.626 1.044 33.171-8.031-7.408-1.218 0.394 9.186 8.285 0.95 28.128-18.402-13.678-16.169-12.33-1.348-33.134 23.501 20.901 1.355-0.453-19.304-17.694c-1.027-0.937-5.027-3.931-5.465-4.985-0.536-1.289-0.191-5.215-0.252-6.744l-0.991-20.079z" fill="#6A3293"/> <path transform="scale(.56229)" d="m497.86 410.77c13.619 9.173 24.751 22.408 37.146 33.239l0.936 24.803c-1.567-0.252-3.854-3.149-5.038-4.296l-15.405-14.929c-2.048 2.441 18.94 18.175 20.479 21.776 1.235 2.888 0.321 25.267 0.378 29.71l-11.857-11.021-0.449 0.946 10.232 10.368c0.6 0.721 2.297 2.337 2.608 3.132 0.375 0.96 0.024 4.068 0.031 5.211l0.094 15.454-34.959-24.837-0.971-30.159 6.414 5.181 0.878-0.85c-1.925-1.861-6.748-5.423-7.854-7.592-0.715-1.403-0.469-6.079-0.555-7.866l-1.083-23.886 12.614 12.324c1.762-2.454-11.419-10.834-12.373-13.726-1.917-5.812-1.017-16.585-1.266-22.982z" fill="#6A3293"/> <path transform="scale(.56229)" d="m424.74 347.45c20.971-0.544 41.443 1.284 62.228 3.835l15.144 358.24-88.312 1.322-6.857-162.86-159.83 10.052-1.354 148.46-2.261 1.107-92.59 2.411-16.945-343c36.125-12.081 72.658-18.513 110.74-14.83l4.342 128.25 153.16-5.581c-1.478-31.244-3.299-62.666-1.874-93.946 0.482-10.59 0.513-20.993 2.539-31.45l21.863-2.008z" fill="#C87AA9"/> <path transform="scale(.56229)" d="m452.53 641.5c1.502-0.342 1.807-0.061 3.199 0.5l1.7 10.7c2.7-2.834 5.172-5.503 8.572-7.498 2.059 1.161 2.231 1.081 2.958 3.298l-6.962 7.063c3.858 0.591 7.861 0.999 11.504 2.452l0.578 1.985c-3.952 2.505-8.629-0.712-12.285 2.5l1.41 9-1.784 1.385c-3.156-1.78-4.694-5.902-6.503-9.045-3.593 1.861-5.245 3.625-9.416 3.767l-1.37-2.107c1.923-2.094 3.548-4.064 5.041-6.5-2.13-3.056-6.429-2.264-9.174-5.5l0.925-2c2.869-1.131 6.254 0.375 9.078 1.199l1.5-1.181 1.029-10.018z" fill="#040103"/> <path transform="scale(.56229)" d="m453.92 506.5c0.932 0.159 1.609 0.579 2.456 1l1.84 7.4c3.135 0.045 7.753-5.161 10.282-7.283l2.122 0.765c0.109 3.555-1.459 4.76-3.475 7.618l1.353 1.482 5-0.289 2.157 2.307-1.157 2.25-11.713 1.404c3.351 2.346 6.211 4.277 8.324 7.846l-0.934 1.5h-2.953c-3.633-1.767-6.844-4.416-10.076-6.822-0.695 3.827-1.128 7.904-3.277 11.227l-1.871 0.293c-2.159-2.947-1.399-4.152-1.016-7.698-1.838-2.782-3.751-0.311-6.304-2.366 0.156-2.657 2.74-4.174 4.63-5.989l-0.258-1.243c-2.209-1.029-4.188-1.668-5.422-3.902l1.87-1.793c2.191 0.356 3.91 0.837 6-0.17 0.328-3.008 0.894-4.902 2.422-7.537z" fill="#040103"/> <path transform="scale(.56229)" d="m199.1 640.5c0.939-0.141 1.759 0.293 2.643 0.6l2.541 9.507 8.216-8.848 2.268 0.52 1.149 2.221-6.528 8.767c4.792 0.86 9.298 0.648 12.955 4.233l-0.659 2c-4.094 1.379-11.046-0.238-15.416-0.663l1.713 11.663-1.158 1.931-2.324 0.275c-1.526-1.919-2.374-3.974-3.319-6.206l-1.681-0.399-5 5.632-2.218-0.941c-0.386-5.349 3.536-9.342 6.457-13.736-4.897-0.807-10.362-1.109-14.239-4.478l0.951-2.078c4.403-1.336 8.609 1.311 12.868 0-0.276-3.551-0.718-6.657 0.781-10z" fill="#040103"/> <path transform="scale(.56229)" d="m208.91 508.5 2.148-0.608 1.729 1.108-0.796 14.117 12.509-0.85 1.335 2.733c-1.65 2.989-4.799 4.409-7.646 6.078 3.61 1.171 7.648 2.139 10.721 4.422l-0.41 2.199c-4.93 2.183-12.019 0.466-17.27-0.102l0.797 19.088-7.243-8.717-5.172-6.107c-3.302 2.945-6.498 6.181-10.612 7.947l-1.82-1.808 2.281-15.001c-3.527-1.461-7.106-1.291-9.616-4.499 1.98-2.554 8.838-3.876 9.449-6 0.894-3.11-1.066-5.891 0.944-9.243 4.44-0.153 6.966 1.873 10.791 3.923 2.638-0.994 5.976-6.341 7.881-8.68z" fill="#040103"/> <path transform="scale(.56229)" d="m206.06 517.5 1.369-0.346 1.289 0.846-0.592 5.5c1.232 2.433 3.302 2.735 5.732 3.816l-0.169 1.184c-2.314 1.169-4.325 2.324-6.32 3.995-1.335 1.118-0.317 7.601-0.52 10.005-3.056-0.683-3.38-4.963-6.845-6.382l-2.5 1.997-4 3.511-1.507-0.626c0.464-3.517 0.789-6.768 0.507-10.312l-3-2.001c0.736-1.421 1.57-2.379 2.685-3.528 0.89-0.917 0.58-4.736 0.631-6.159 3.159-1.756 4.883 2.705 8.684 3.04l4.556-4.54z" fill="#F29C2E"/> <path transform="scale(.56229)" d="m432.08 383.13c3.956-0.274 8.541-0.631 12.415 0.278 5.484 1.286 10.691 5.195 13.747 9.885 2.938 4.507 3.327 10.622 2.139 15.766-2.204 9.542-7.66 13.828-15.547 18.753-4.331 0.501-9.324 0.992-13.559-0.177-5.343-1.473-9.596-5.063-12.278-9.879-3.286-5.902-3.437-12.318-1.536-18.709 2.403-8.076 7.566-12.014 14.619-15.917z" fill="#040103"/> <path transform="scale(.56229)" d="m435.63 386.94c2.942-0.033 5.835 0.228 8.696 0.945 4.185 1.049 7.964 3.92 10.082 7.704 1.941 3.468 2.13 8.522 1.007 12.292-2.305 7.741-7.99 11.351-14.649 15.031-2.961 0.328-6.513-0.063-9.381-0.864-3.509-0.982-7.169-4.401-8.793-7.608-2.267-4.479-2.076-10.592-0.395-15.2 2.406-6.596 7.489-9.448 13.433-12.3z" fill="#FCF7FA"/> <path transform="scale(.56229)" d="m439.35 399.5 2.664-0.266c2.235 1.7 2.43 2.331 3.487 4.975l-2.104 3.291-4.396 0.292-2.495-2.357c0.487-3.215 0.632-3.556 2.844-5.935z" fill="#040103"/> <path transform="scale(.56229)" d="m186.26 387.04c5.289-0.205 12.986-0.951 17.663 1.896 4.637 2.823 8.831 7.698 10.192 13.011l0.138 0.551c1.182 4.582 1.505 10.667 0.192 15.265-2.413 8.447-8.588 12.17-15.774 16.081-4.433 0.311-9.509 0.828-13.865-0.228-4.879-1.183-9.305-5.557-11.835-9.754-3.263-5.41-4.078-13.276-2.486-19.391 2.364-9.081 8.205-12.996 15.775-17.431z" fill="#040103"/> <path transform="scale(.56229)" d="m186.72 391.5c4.13-1.015 10.044-1.16 13.763 1.101 4.453 2.706 8.006 7.191 9.176 12.319 0.916 4.017 0.915 10.031-1.314 13.578l-0.324 0.502c-2.693 4.251-6.109 6.027-10.45 8.229-2.97 0.503-5.706 0.681-8.694 0.139-4.791-0.87-8.677-3.554-11.342-7.63-2.919-4.465-3.494-10.311-2.353-15.442 1.38-6.206 6.472-9.636 11.538-12.796z" fill="#FCF7FA"/> <path transform="scale(.56229)" d="m193.05 403.5 2.955-0.229 2.481 2.229c0.241 3.241 0.088 3.166-1.99 5.704l-2.516 0.573-2.484-1.91c-0.492-3.472-0.419-3.452 1.554-6.367z" fill="#040103"/> <path transform="scale(.56229)" d="m1746.1 309.46 0.84-0.027c55.08-1.718 123.4 14.248 164.33 52.82 38.41 36.191 58.85 95.081 60.19 146.97 1.5 58.243-20.95 116.56-61.03 158.79-11.74 12.363-24.91 24.143-39.55 32.972-44.8 27.011-101.07 32.517-152.27 33.789-21.37-1.178-42.66-2.694-63.53-7.784-36.05-8.792-68.51-28.346-96.06-52.905-38.76-34.551-65.12-84.589-67.96-136.84-3.13-57.508 31.74-110.68 68.59-151.68 39.18-43.594 91.34-65.61 148.74-73.416 12.41-1.688 25.2-2.034 37.71-2.692zm-12.56 10.967c-51.07 4.069-102.92 15.108-143.45 48.591-12.45 10.287-23.53 23.064-34.01 35.355-31.53 36.968-54.68 81.845-50.81 131.63 3.96 50.875 33.15 97.276 71.48 129.75 28.56 24.191 61.38 41.851 99.52 42.57 54.38 2.721 116.19-5.216 158.04-43.215 42.32-38.433 65.92-95.37 68.37-152 2.22-51.101-18.7-107.24-53.27-144.76-28.53-30.955-67.01-46.712-108.77-48.14l-7.1 0.219z" fill="#040103"/> <path transform="scale(.56229)" d="m1755 713.5 1.91-0.101c2.97 1.59 5.16 5.683 7.05 8.445l-53.17 0.039c-2.63 0.221-4.79-0.543-7.25-1.319 16.27-4.105 34.74-4.97 51.46-7.064z" fill="#F17B3C"/> <path transform="scale(.56229)" d="m1913.5 380.5 3.11-0.096 6.55 8.913-36.74 6.183-3.41 0.585c-3.45-2.277-5.27-6.172-7.28-9.665l37.77-5.92z" fill="#7AC8E8"/> <path transform="scale(.56229)" d="m1825.5 329.12c5.61-1.153 10.61 1.101 15.85 2.929 9.17 3.199 18.18 6.781 26.99 10.872l-12.12 3.252-11.95 3.726-26.66-18.396c1.69-1.529 5.59-1.868 7.89-2.383z" fill="#94B4E5"/> <path transform="scale(.56229)" d="m1864.6 650.84 40.03 3.88-14.28 13.054c-1.87 1.603-3.73 2.823-5.84 4.063-11.24-1.307-21.44-4.081-32.21-7.385 3.32-5.023 8.12-9.301 12.3-13.612z" fill="#94B4E5"/> <path transform="scale(.56229)" d="m1808.7 694.95 26.66 9.166c-14.39 8.004-30.84 11.171-46.84 14.409l-19.43 2.771-6.33-9.64 45.94-16.706z" fill="#F9D45D"/> <path transform="scale(.56229)" d="m1846.8 668.78 33.18 7.534-33.57 22.274-0.53 0.335c-7.61 3.81-24.31-4.061-31.64-6.677 11.64-7.133 22.21-14.5 32.56-23.466z" fill="#F17B3C"/> <path transform="scale(.56229)" d="m1873.5 347.13c0.35-0.049 0.94-0.164 1.32-0.125 9.92 1.013 30.17 21.499 37.47 28.662l-25.59 3.456-13.24 3.173-25.31-28.634 25.35-6.532z" fill="#EA6A5D"/> <path transform="scale(.56229)" d="m1909.4 548.89 47.3 6.428-7.37 25.928-46.78-5.407 6.85-26.949z" fill="#F29C2E"/> <path transform="scale(.56229)" d="m1936.7 436.42 10.62-0.573 7.37 28.025-32.05 3.468-11.25 1.777c-1.76-1.57-2.07-4.813-2.7-7.129l-6.25-22.212 34.26-3.356z" fill="#7AC8E8"/> <path transform="scale(.56229)" d="m1901.7 580.26 46.12 6.059-12.78 26.8-44.68-4.49 11.34-28.369z" fill="#F9D45D"/> <path transform="scale(.56229)" d="m1888.1 612.77 44.04 5.847-20.66 29.139-2 2.147c-11.19 0.142-21.37-0.787-32.41-2.623-2.65-0.441-6.83-0.59-9.06-2.079l20.09-32.431z" fill="#C87AA9"/> <path transform="scale(.56229)" d="m1950.8 469.5c1.44-0.149 2.89-0.724 4.04 0.275 5.01 4.327 4.9 28.194 5.32 35.2l-41.89 1.534c-2.06 0.279-2.07 0.412-3.92-0.796l-3.03-32.339 39.48-3.874z" fill="#F9D45D"/> <path transform="scale(.56229)" d="m1922.6 394.44 3.93-0.465c8.63 8.757 14.57 26.502 19.13 37.855l-35.35 2.579-7.78 0.865c-4.43-2.928-14.67-28.629-17.59-34.874 12.3-3.501 24.99-4.59 37.66-5.96z" fill="#7AC8E8"/> <path transform="scale(.56229)" d="m1927.1 510.5 33.26-0.653-2.68 41.294-13.42-2.043-33.95-4.36 4.09-33.348 12.7-0.89z" fill="#EA6A5D"/> <path transform="scale(.56229)" d="m1733.5 320.43 7.1-0.219c41.76 1.428 80.24 17.185 108.77 48.14 34.57 37.515 55.49 93.654 53.27 144.76-2.45 56.631-26.05 113.57-68.37 152-41.85 37.999-103.66 45.936-158.04 43.215-38.14-0.719-70.96-18.379-99.52-42.57-38.33-32.473-67.52-78.874-71.48-129.75-3.87-49.782 19.28-94.659 50.81-131.63 10.48-12.291 21.56-25.068 34.01-35.355 40.53-33.483 92.38-44.522 143.45-48.591zm-22.55 97.945c-38.7 5.076-73.76 19.281-98.13 50.987-15.36 19.983-21.38 45.525-17.95 70.405 3.32 24.016 16.12 48.108 35.64 62.778 22.19 16.671 49.36 22.21 76.68 19.347 38.37-6.72 73.62-24.86 96.51-57.333 14.22-20.185 25.02-44.868 20.55-70.074-4.41-24.866-19.26-45.302-39.74-59.631-21.01-14.702-48.55-18.86-73.56-16.479z" fill="#F29C2E"/> <path transform="scale(.56229)" d="m1852.1 478.5c1.15-0.239 2.26-0.118 3.43-0.066l1.53 19.621 21.47-13.093 1.85 0.69 0.82 2.348c-3.31 4.307-8.27 6.501-12.98 8.926-1.63 0.837-4.18 1.743-5.28 3.183l11.59 4.116 0.72 1.775c-4.18 4.56-12.56-3.761-18.26-1.5v9.75l-0.29 4.25-2.17 1.303-2-1.209c-1.21-4.221-1.21-8.977-1.54-13.347l-15.46 3.975-1.67-1.722c2.18-3.229 10.81-5.165 14.72-6.565-3.57-2.351-14.03-7.838-15.31-11.435l2.14-2.059 15.94 9.151c-0.22-5.573-1.43-12.887 0.75-18.092z" fill="#040103"/> <path transform="scale(.56229)" d="m1793.2 363.12c3.63 0.427 7.21 0.593 10.42 2.502 5.03 2.991 7.95 7.388 9.36 13.015 1.78 7.119 1.19 15.843-2.78 22.191-4.47 7.121-10.83 9.041-18.44 10.811-3.26-0.415-6.62-1.608-9.44-3.277-5.51-3.259-10.09-8.972-11.56-15.273-1.41-6.033-0.09-13.223 3.18-18.464 4.54-7.272 11.29-9.598 19.26-11.505z" fill="#040103"/> <path transform="scale(.56229)" d="m1787.5 369.5c3.07-0.682 8.19-1.139 11.2-0.254 3.26 0.959 5.74 3.263 7.23 6.253 2.68 5.352 3.23 12.814 1.16 18.469-1.89 5.181-6.8 8.17-11.54 10.346-2.56-0.042-5.27-0.034-7.79-0.516-3.97-0.76-8-4.685-10.07-8.009-2.21-3.572-2.97-8.48-2.01-12.565 1.7-7.29 5.68-10.005 11.82-13.724z" fill="#FCF7FA"/> <path transform="scale(.56229)" d="m1794.2 380.5c1.2-0.482 2.48-0.394 3.75-0.417l1.77 1.917c-0.08 3.071-0.53 3.573-2.27 5.949l-2.5 0.289c-2.11-1.855-2.31-2.011-2.9-4.738l2.15-3z" fill="#040103"/> <path transform="scale(.56229)" d="m1557.4 515.07c5.2-0.205 10.67-0.564 15.5 1.74 5.78 2.755 10.33 7.98 12.33 14.051 2.33 7.069 0.86 16.931-2.61 23.352-4.38 8.088-11.1 10.253-19.42 12.623-3.81-0.022-8.48 0.261-12.12-0.905-5.51-1.76-11.24-6.477-13.73-11.682-3.17-6.629-2.86-14.493-0.26-21.249 3.82-9.918 11.18-13.905 20.31-17.93z" fill="#040103"/> <path transform="scale(.56229)" d="m1557.5 521.99c3.46-0.122 7.92-0.599 11.2 0.557 4.72 1.663 7.91 5.304 9.88 9.771 2.23 5.075 1.55 11.431-0.48 16.464-2.55 6.302-8.15 8.57-14.01 10.941-3.58 0.228-8.11-0.25-11.6-1.157-4.08-1.06-8.03-4.464-10-8.154-2.15-4.006-1.84-9.228-0.5-13.438 2.61-8.23 8.38-11.219 15.51-14.984z" fill="#FCF7FA"/> <path transform="scale(.56229)" d="m1565 534.5c2.74-0.131 2.78 0.231 4.94 2l0.06 4-2.37 2c-1.68 0.074-2.71-0.884-4.14-1.718-0.39-3.325-0.28-3.441 1.51-6.282z" fill="#040103"/> <path transform="scale(.56229)" d="m1711 418.37c25.01-2.381 52.55 1.777 73.56 16.479 20.48 14.329 35.33 34.765 39.74 59.631 4.47 25.206-6.33 49.889-20.55 70.074-22.89 32.473-58.14 50.613-96.51 57.333-27.32 2.863-54.49-2.676-76.68-19.347-19.52-14.67-32.32-38.762-35.64-62.778-3.43-24.88 2.59-50.422 17.95-70.405 24.37-31.706 59.43-45.911 98.13-50.987zm30.83 26.737c-30.5 10.271-52.2 28.835-66.51 57.72-10.64 21.489-10.52 48.804-2.98 71.284 4.76 14.191 12.61 26.969 26.43 33.835 1.42 0.705 3.93 0.323 5.54 0.269 8.4-0.283 16.21-1.786 24.16-4.52l3.66-1.303c33.18-14.954 62.21-38.087 75.34-73.154 5.73-15.294 6.67-35.206-0.32-50.241-6.67-14.355-18.02-24.145-32.85-29.339-9.98-3.5-21.9-5.502-32.47-4.551z" fill="#040103"/> <path transform="scale(.56229)" d="m1625.5 575.5c0.64-0.199 1.04-0.226 1.69-0.086 9.59 2.044 18.96 5.245 28.48 7.591 3.2 0.787 9.79 1.473 12.39 3.179 2.53 1.662 6.5 10.282 8.48 13.316l-0.95 0.356c-2.14 0.666-4.97-0.348-7.08-0.829-8.9-2.033-17.28-5.25-25.33-9.549-4.76-2.541-16.05-8.572-17.68-13.978z" fill="#62B861"/> <path transform="scale(.56229)" d="m1701 439.62c10.26-2.111 20.4-0.477 30.66 0.864l-21.28 10.045c-1.89 1.003-7.13 4.865-8.78 5.098-0.77 0.109-2.31-0.346-3.14-0.471l-31.2-9.344 33.74-6.192z" fill="#7AC8E8"/> <path transform="scale(.56229)" d="m1660.9 448.94 35.22 10.318-16.04 16.962c-2.71 1.421-5.87 0.092-8.65-0.646l-38.41-11.838 27.88-14.796z" fill="#F17B3C"/> <path transform="scale(.56229)" d="m1606.8 498.65 53.79 15.991-0.21 1.021c-1.8 9.128-2.68 17.819-3.34 27.088l-36.52-9.777c-4.92-1.284-12.31-2.126-16.22-5.142-2.21-9.718 0.46-19.66 2.5-29.181z" fill="#F9D45D"/> <path transform="scale(.56229)" d="m1604.1 532.34 53.6 15.282c0.43 7.103 1.82 14.759 3.65 21.639 1.02 3.843 2.85 7.239 3.22 11.244-5.28 0.127-11.08-2.257-16.18-3.627-10.39-2.786-20.38-5.015-30.36-9.066-7.68-10.814-11.2-22.647-13.93-35.472z" fill="#62B861"/> <path transform="scale(.56229)" d="m1627.4 468.5c5.59-1.497 12.23 2.1 17.58 3.756l31.69 9.505-14.64 26.739h-3.06l-49.89-14.122c3.96-10.182 10.69-18.243 18.32-25.878z" fill="#EA6A5D"/> </svg>