<?xml version='1.0' encoding='utf-8'?>
<svg xmlns="http://www.w3.org/2000/svg" version="1.1" width="1025px" height="769px" viewBox="27 680 1025 769"> <g id="layer1"> <g style="fill:rgb(0,174,199); fill-opacity:1.0; stroke-linejoin: miter"> <path d="M26.999,679.3759C26.833746,679.3759,26.67526,679.4415,26.558407,679.5584C26.441553,679.6753,26.375906,679.83374,26.375906,679.999L26.376905,1449.0C26.376905,1449.3441,26.655876,1449.623,27.0,1449.623L1052.001,1449.624C1052.1663,1449.624,1052.3247,1449.5583,1052.4415,1449.4415C1052.5583,1449.3247,1052.624,1449.1663,1052.624,1449.001L1052.623,680.0C1052.623,679.6559,1052.3441,679.3769,1052.0,679.3769L26.999,679.3759 Z"/> </g> <g style="fill:rgb(0,0,0); fill-opacity:0.18039216; stroke-linejoin: miter"> <path d="M891.51227,1289.9631L888.3735,1296.0605Q866.05743,1314.4873,757.7807,1325.5352Q648.7548,1336.5742,501.00964,1334.4878Q360.0062,1331.5714,275.4669,1317.4215Q248.37955,1312.8475,230.84348,1307.4537L216.1049,1301.9086Q203.95898,1296.1852,203.82243,1289.9631Q207.50958,1270.8687,304.53232,1258.1895Q401.555,1245.5101,547.66736,1245.0283Q693.7798,1245.5101,790.8024,1258.1895Q887.82513,1270.8687,891.51227,1289.9631"/> </g> <g> <g style="fill:rgb(0,0,0); fill-opacity:1.0; stroke-linejoin: miter"> <path d="M280.7414,1009.8295Q276.19995,1013.1337,275.08282,1015.54083Q273.65234,1018.2973,274.52405,1021.79767Q275.4027,1025.3721,278.88904,1030.9976Q281.8883,1035.9349,289.76855,1046.4938Q290.4881,1040.4535,291.14362,1039.5056Q291.39203,1039.0912,291.6654,1038.974Q293.19867,1038.6106,293.50623,1038.337Q294.01477,1038.0273,294.60126,1037.3397Q296.15753,1035.4998,298.75342,1030.6101L280.75372,1009.8438"/> </g> <g style="fill:rgb(0,0,0); fill-opacity:1.0; stroke-linejoin: miter"> <path d="M312.8781,1279.1113L293.17114,1279.1798Q286.29065,1293.2102,288.9132,1296.7352Q289.64032,1298.0056,291.28546,1299.07Q291.24457,1299.1561,296.38983,1301.8892Q302.54138,1305.8368,303.57922,1306.3269Q308.23035,1308.8992,313.91174,1310.486Q322.49176,1312.8695,330.10822,1313.14Q336.8282,1313.3447,339.70135,1311.1764Q343.77435,1307.7306,340.10602,1302.9247Q338.94006,1301.5222,336.58893,1300.0005Q335.49268,1299.2936,334.15546,1298.5499Q326.99915,1294.7627,326.0703,1294.1327Q323.56488,1292.623,321.80402,1291.0608Q317.52466,1287.4651,312.8805,1279.1155"/> </g> <g style="fill:rgb(0,0,0); fill-opacity:1.0; stroke-linejoin: miter"> <path d="M416.0359,1288.5616Q414.84436,1287.1095,412.086,1285.7437Q410.92432,1285.1571,409.29266,1284.4609Q401.56335,1281.316,400.91425,1280.9679Q398.56897,1279.9199,396.4179,1278.6274Q392.21796,1276.1694,386.4383,1270.7522L362.6776,1267.4657Q353.97528,1284.4418,357.58698,1287.1532Q358.42706,1288.2025,360.2237,1288.6879Q361.04126,1288.9036,362.17023,1288.9678Q366.53235,1288.9305,366.82245,1289.0228Q368.1303,1289.1344,369.31622,1289.412Q370.34247,1289.6427,371.8933,1290.1514Q379.76147,1292.9353,381.54547,1293.4281Q384.84668,1294.4357,388.23212,1295.1316Q397.46906,1296.9684,406.74982,1297.2633Q413.8838,1297.5189,415.67596,1295.6287Q418.7135,1292.0287,416.05676,1288.5867"/> </g> <g style="fill:rgb(104,60,24); fill-opacity:1.0; stroke-linejoin: miter"> <path d="M271.71802,871.3964Q266.9864,872.9786,263.2036,877.29376Q259.74493,881.4511,260.11896,885.2028Q260.24274,888.18304,263.2976,893.4156Q260.84418,900.69183,263.86987,909.8293Q267.13135,920.17865,276.9655,939.9056L322.661,917.3709L322.63586,914.80756Q322.38,909.83136,317.76794,902.7441Q312.01038,893.9128,305.836,888.53644Q303.06903,886.13116,299.87225,884.65204Q298.19104,883.72797,291.0963,881.7348Q289.7968,881.25885,289.06702,880.75775Q288.0476,880.09,287.10895,878.89325Q283.81366,873.7635,283.52557,873.66864Q282.47803,872.4808,281.11115,871.7963Q276.8891,869.79816,271.7589,871.38324"/> </g> <g style="fill:rgb(218,174,134); fill-opacity:1.0; stroke-linejoin: miter"> <path d="M488.91797,923.90985L343.20227,962.3172L386.29254,1131.8661L396.23914,1142.2572L407.4494,1148.0137L565.35785,1110.3081L528.0342,929.92096L488.98767,923.9206"/> </g> <g style="fill:rgb(0,0,0); fill-opacity:1.0; stroke-linejoin: miter"> <path d="M300.5608,1074.959Q300.63788,1104.1393,305.48834,1121.0497Q307.77325,1129.5546,311.3167,1137.9324Q312.3963,1140.981,324.5102,1166.8441L328.45917,1176.3654Q332.14484,1186.2213,331.9574,1191.9979Q331.8376,1197.7872,328.98975,1202.6058Q327.9853,1204.4174,325.95477,1207.002Q316.38,1217.8247,315.85834,1219.0786Q312.82648,1223.5708,310.72272,1229.2731Q309.59546,1232.2551,308.46777,1236.1699Q303.10303,1257.7639,301.94623,1259.8425Q299.11383,1267.8933,292.78955,1279.0026Q294.47266,1283.294,297.36853,1284.2437Q300.93164,1285.9973,314.73352,1281.7966L325.45483,1255.8196L362.14612,1205.7406Q363.9936,1202.2097,363.61646,1191.4506Q363.35223,1181.1442,360.3316,1149.9281L388.102,1183.0719L388.18097,1184.2872Q388.17633,1186.4863,387.18805,1189.1752L381.2212,1203.6753Q379.40918,1208.4003,378.18964,1212.7045L367.98322,1254.3029L360.84424,1269.0233L388.7649,1272.55L393.58575,1247.9138Q413.90234,1203.6743,420.76746,1189.7178Q422.73657,1185.4232,422.71722,1182.7034Q422.83423,1179.0847,419.30695,1172.9021L400.0702,1141.9918Q395.69128,1134.6289,392.32233,1127.2692Q386.64917,1115.4589,374.6659,1077.8134L363.6397,1082.8284Q360.10712,1084.3087,356.63055,1085.3322Q349.48877,1087.4597,342.25232,1087.2246Q329.41968,1087.134,300.59076,1074.9706"/> </g> <g style="fill:rgb(255,255,255); fill-opacity:1.0; stroke-linejoin: miter"> <path d="M480.39478,919.2316Q405.90198,929.8372,389.3022,931.233Q379.8153,932.1336,373.4546,931.91864Q347.56952,929.20953,344.44153,929.8985Q334.6739,930.2359,325.6687,933.5546Q305.00256,941.56244,281.07904,968.5501Q272.815,978.1263,270.88428,983.8116Q269.02747,988.2331,271.6275,996.5296Q273.84772,1004.57623,280.14264,1012.6397Q283.39148,1016.7989,288.065,1021.7548L302.55304,1036.5098L300.20587,1077.3208Q315.21094,1087.2563,324.2127,1088.9791Q334.93323,1091.395,354.1502,1089.3331L378.79828,1120.718L388.85632,1111.2535L360.2824,1019.0291L347.09674,962.8851Q400.56708,949.38885,458.7838,933.3647Q472.7226,929.8377,482.90002,928.8757L480.495,919.58075"/> </g> <g style="fill:rgb(104,60,24); fill-opacity:1.0; stroke-linejoin: miter"> <path d="M324.34717,924.87445Q321.13995,924.87787,317.15613,926.60175Q315.89935,926.8869,303.92725,933.7763Q301.07812,935.21295,299.05542,935.6823Q296.42853,936.9328,284.31213,934.847Q281.90924,934.85284,280.03748,935.7349Q272.0672,940.11163,267.6989,951.0882Q267.09894,952.83453,267.5174,954.6971Q267.67743,955.7475,270.06537,958.39996Q270.424,958.93756,270.54517,959.6612Q270.88647,960.27826,269.73022,965.88824Q269.62048,967.22064,269.81152,967.7524L273.22687,972.63275Q274.00012,974.46075,273.81488,977.3172Q273.65594,979.59283,272.8919,983.15704Q268.9068,1000.0308,268.40753,1002.9731Q267.30103,1008.58075,266.65076,1013.46515Q265.88916,1019.05975,265.25073,1026.1155Q262.53552,1062.2023,261.68793,1068.079Q260.1667,1082.2018,255.93475,1109.2683Q262.20007,1118.2646,265.1599,1118.2488Q266.63098,1118.1234,267.41357,1116.0564L270.22607,1105.7007Q270.805,1103.8418,271.48932,1103.057Q272.185,1102.2196,273.44232,1102.534L278.46417,1105.0835Q279.68713,1104.8984,279.92175,1102.1967Q280.31,1098.9027,279.773,1091.9381L274.74738,1031.7701Q279.9077,1014.55597,284.2337,1008.38116Q288.39044,1001.6552,299.6864,994.12616Q321.40875,1025.1644,327.2868,1031.1694Q330.84106,1035.0742,333.46875,1036.7383Q334.22382,1037.6392,342.2209,1040.5208Q344.06348,1041.4639,346.16718,1043.3853Q351.06854,1047.6222,363.9112,1064.6884L364.51074,1064.8519Q364.9499,1063.0424,367.0692,1061.282L372.51886,1057.335Q373.0193,1053.5474,366.7751,1044.236L335.3498,1001.64435Q328.877,992.5765,327.84332,989.5688Q327.08716,987.394,328.23285,986.934Q337.56683,986.8056,337.7964,986.25726Q340.67078,985.41876,342.44556,982.534Q346.64,975.61346,346.1129,961.3984Q345.26147,946.5557,339.01758,935.8088Q332.628,925.1601,324.4569,924.87494"/> </g> <g style="fill:rgb(0,0,0); fill-opacity:1.0; stroke-linejoin: miter"> <path d="M284.36957,917.75995Q279.7605,926.4322,279.17566,931.18Q278.37964,936.7255,280.76526,942.21967Q282.727,946.5893,286.18915,948.1546Q287.5545,948.79645,289.45367,949.1972L299.46332,951.00104L284.9403,929.9168L284.37207,917.814"/> </g> <g style="fill:rgb(0,0,0); fill-opacity:1.0; stroke-linejoin: miter"> <path d="M306.4616,903.695Q302.265,903.5361,295.09448,908.43585Q307.36853,912.7868,316.1125,918.02924Q322.4732,921.83966,326.43182,927.7631L323.39874,918.9146Q322.95892,916.9661,322.48108,915.8038Q321.6842,913.7929,320.0099,911.7708Q312.95367,903.918,306.50458,903.6951"/> </g> <g style="fill:rgb(255,190,136); fill-opacity:1.0; stroke-linejoin: miter"> <path d="M295.12427,908.3914Q283.99377,917.52496,284.48004,918.12494Q284.3305,918.47235,284.3266,919.03546Q284.60748,920.805,284.53235,928.6088Q284.6101,931.2504,284.92267,933.3465Q285.6941,939.4838,289.6916,943.74835Q294.5058,948.8481,301.48486,951.49896Q302.6006,952.0755,308.55328,952.5971L312.93774,952.5295Q317.27954,950.9202,318.9027,948.61163Q320.76697,946.33417,321.5573,940.7109Q322.05396,937.71967,322.56708,928.14813Q322.73462,925.41534,322.50104,923.92377Q322.01935,919.582,316.66156,916.6879Q311.73505,913.73444,295.14655,908.39874"/> </g> <g style="fill:rgb(255,190,136); fill-opacity:1.0; stroke-linejoin: miter"> <path d="M388.21497,1110.771L379.19592,1118.9243Q386.97137,1136.4703,391.06256,1140.9741Q393.13562,1143.2518,395.0171,1143.2574Q396.71173,1143.3707,399.39453,1141.1198L388.235,1110.8253"/> </g> <g style="fill:rgb(255,190,136); fill-opacity:1.0; stroke-linejoin: miter"> <path d="M492.0866,917.5805Q488.8111,917.58514,485.6679,918.6723Q482.54022,919.7725,480.5241,921.61444L481.97424,927.3957Q485.6125,929.2559,487.52972,929.8896Q489.53522,930.5949,491.40527,930.5954Q493.4926,930.5628,493.9181,929.90045Q494.00922,929.66705,493.7281,929.35565Q493.6128,929.1656,492.35828,928.2889Q492.18597,928.1397,492.34375,928.10736Q507.57263,929.09344,507.99353,925.98114Q507.7386,923.4727,501.76483,920.1452Q496.98102,917.57477,492.10632,917.5805"/> </g> <g style="fill:rgb(38,0,4); fill-opacity:0.08627451; stroke-linejoin: miter"> <path d="M338.5321,959.3178L338.53107,959.31903L338.53198,959.31964L338.5321,959.3178 Z"/> </g> <g style="fill:rgb(38,0,4); fill-opacity:0.08627451; stroke-linejoin: miter"> <path d="M354.7345,1117.1637L360.41956,1150.8383L360.41956,1150.8389Q360.42065,1150.8497,360.42175,1150.8612L360.42346,1150.8619L360.4618,1151.0887L364.7359,1155.1846L364.7359,1155.185L368.40167,1158.6975L362.95825,1148.7424L354.74146,1117.1885L354.7345,1117.1637 Z"/> </g> <g style="fill:rgb(38,0,4); fill-opacity:0.08627451; stroke-linejoin: miter"> <path d="M347.12036,963.05646L358.6607,1017.215Q374.2984,1066.9679,393.6184,1126.4254L359.95123,969.909L347.19922,963.0983L347.12036,963.05646 Z"/> </g> <g style="fill:rgb(38,0,4); fill-opacity:0.08627451; stroke-linejoin: miter"> <path d="M271.76727,1034.4153L269.99915,1099.9982Q272.11243,1093.654,272.8979,1088.9381Q273.82092,1083.6552,273.9939,1077.0383Q274.3601,1063.9208,271.7729,1034.4735L271.76727,1034.4153 Z"/> </g> <g style="fill:rgb(38,0,4); fill-opacity:0.08627451; stroke-linejoin: miter"> <path d="M302.55096,1036.5453L301.81824,1049.2859L352.21667,1087.9934L302.55096,1036.5453 Z"/> </g> <g style="fill:rgb(38,0,4); fill-opacity:0.08627451; stroke-linejoin: miter"> <path d="M346.77704,972.52594Q345.12122,977.43195,343.9204,979.61957Q342.5235,982.2519,340.79095,983.7823Q339.07245,985.3256,336.2727,986.451Q333.91626,987.4372,328.67877,988.64923L341.40863,990.2398L346.77856,972.52594 Z"/> </g> <g style="fill:rgb(38,0,4); fill-opacity:0.08627451; stroke-linejoin: miter"> <path d="M318.3719,989.4881Q318.93842,989.4926,319.8177,989.4996L319.76904,989.4992Q318.92365,989.4924,318.3731,989.4881 Z"/> </g> <g style="fill:rgb(38,0,4); fill-opacity:0.08627451; stroke-linejoin: miter"> <path d="M276.96124,980.07184Q281.9159,983.4069,285.19647,984.8964Q288.92438,986.63104,293.0484,987.55743Q301.1494,989.39996,317.27588,989.4777L276.96448,980.0723L276.96204,980.07184 Z"/> </g> <g style="fill:rgb(38,0,4); fill-opacity:0.08627451; stroke-linejoin: miter"> <path d="M338.53015,959.3201L329.9743,969.3708Q324.4065,970.73785,322.1034,970.9786Q321.08887,971.11053,319.91986,971.11053Q318.43103,971.11053,316.69165,970.89655L316.69043,970.8973Q321.46045,972.5329,324.06,972.5329Q324.0902,972.5329,324.12012,972.53265Q324.2373,972.53485,324.35413,972.53485Q327.2921,972.53485,330.00226,971.1197Q332.72742,969.66327,334.6001,967.033Q336.65448,964.1823,338.53156,959.3201 Z"/> </g> <g style="fill:rgb(38,0,4); fill-opacity:0.08627451; stroke-linejoin: miter"> <path d="M275.35425,942.1204Q275.11224,942.1453,275.23663,945.9455Q275.32892,949.0478,275.891,958.394L309.90704,963.88043Q293.23975,960.3167,285.56097,955.49384Q282.03546,953.2946,279.54932,950.019Q277.3871,947.2917,275.37878,942.12103L275.35425,942.1204 Z"/> </g> <g style="fill:rgb(38,0,4); fill-opacity:0.06666667; stroke-linejoin: miter"> <path d="M480.6588,929.69574L474.0686,929.86395Q398.4981,947.9528,371.91022,954.6965Q339.7472,962.80804,346.3493,962.49945Q360.49036,961.0466,391.84418,954.0572Q401.92847,951.7255,411.72107,948.9738Q441.33032,940.08185,449.4087,937.85297Q464.94714,933.6309,480.5302,929.72845"/> </g> <g style="fill:rgb(77,97,122); fill-opacity:1.0; stroke-linejoin: miter"> <path d="M380.50146,1084.0787L373.32788,1085.618L387.61334,1107.344Q385.03748,1099.0199,380.50275,1084.0829"/> </g> </g> <g> <g style="fill:rgb(212,168,130); fill-opacity:1.0; stroke-linejoin: miter"> <path d="M756.6983,1088.7227L609.53467,1088.7266L570.80743,1150.6863L570.80743,1313.3408L795.42554,1313.3447L795.42554,1150.6863 Z"/> </g> <g style="fill:rgb(218,174,134); fill-opacity:1.0; stroke-linejoin: miter"> <path d="M609.53467,1088.7227L570.80743,1150.6863L795.42554,1150.6902L756.6983,1088.7227 Z"/> </g> </g> </g> </svg>