<?xml version="1.0" encoding="UTF-8"?>
<svg enable-background="new 0 0 257.226 166.406" viewBox="0 0 257.226 166.406" xmlns="http://www.w3.org/2000/svg">
 <path d="m74.164,97.47c-31.642-2.44-72.336-18.755-74.098-55.526-.89-18.593 7.176-33.533 25.312-40.128 17.09-6.215 35.079,4.505 45.824,17.212 11.055,13.074 9.923,34.423-3.061,45.243-12.919,10.766-34.613,8.985-42.02-7.308-5.903-12.985-1.631-37.91 17.911-29.232 3.748,1.665 6.142,4.326 7.958,7.959 1.984,3.97 6.081,5.047 6.915,10.023 1.55,9.247-14.019,12.583-15.541,3.411-.84-5.059 4.256-18.37-5.207-16.086-7.744,1.869-6.591,15.251-5.306,21.034 1.751,7.876 9.791,13.617 17.812,12.698 8.803-1.009 13.579-8.512 16.14-16.203 5.245-15.755-5.768-36.832-20.602-43.015-18.11-7.549-34.105,6.903-36.771,24.216-3.978,25.827 13.827,47.459 40.099,49.403 5.709.422 10.971-1.128 16.011-3.648 6.439-3.22 8.711-6.436 15.291-1.313 4.726,3.679 7.358,9.956 7.358,15.74-.001,5.649-10.461,6.687-14.025,5.52"/>
 <path d="m81.363,93.3c-16.8-1.529-33.263-3.915-48.89-10.612-14.535-6.23-28.837-21.575-30.471-37.887-1.818-18.149 4.234-33.783 22.132-40.947 15.44-6.181 34.766,1.608 44.499,14.262 10.226,13.294 12.24,34.764-2.43,45.621-14.703,10.881-34.697,5.766-39.996-11.915-1.664-5.552-.479-18.445 5.339-21.354 8.741-4.37 15.806-1.667 19.588,7.411 1.365,3.276 6.195,4.536 6.353,8.802 .138,3.735-3.609,6.055-7.2,5.307-10.565-2.199-1.182-13.906-4.942-19.54-5.671-8.498-14.912-1.759-16.473,6.084-1.31,6.577-1.891,17.568 2.879,23.025 13.056,14.935 35.555,6.256 37.864-12.603 1.862-15.208-5.506-35.537-19.948-42.758-13.481-6.741-37.02-3.99-41.987,13.37-3.912,13.67-4.692,25.763 1.815,38.771 5.538,11.07 18.736,19.675 30.351,22.992 6.265,1.789 12.97,2.94 19.428,1.18 5.596-1.525 11.985-7.486 17.162-7.78 5.638-.32 12.411,5.305 15.54,9.475 6.126,8.16-5.013,8.893-10.613,9.096" fill="#6b7419"/>
 <path d="m78.713,151.667c5.134-9.642 25.278-6.879 34.488-12.129 5.041-2.873 11.161-10.601 4.619-15.272-6.563-4.687-13.851-6.277-21.297-8.984h75.048c-6.94,2.523-17.46,3.81-22.379,9.967-5.781,7.235 4.188,14.261 10.52,15.985 7.413,2.019 17.915,2.094 24.459,6.181 1.8,1.124 4.611,2.329 4.833,4.253 .48,4.158-6.083,6.829-9.011,8.049-15.902,6.625-35.728,7.163-52.685,6.451-8.627-.361-16.929-1.339-25.455-2.689-5.452-.864-20.347-3.358-22.201-9.845-.127-.446-.899-1.855-.939-1.967"/>
 <path d="m85.535,151.667c2.377-5.453 13.857-4.857 18.892-5.488 7.325-.918 15.414-1.301 21.826-5.147 5.718-3.432 5.308-12.416 2.125-17.2-3.921-5.895-12.588-7.132-18.966-8.55h53.82c-7.28,2.647-15.687,4.459-19.414,11.919-3.604,7.21 7.492,12.826 12.372,14.704 7.085,2.726 15.414,3.385 22.826,5.096 2.764.638 8.287,1.453 7.525,5.235-.723,3.584-6.263,4.74-9.193,5.718-14.453,4.822-31.407,4.326-46.437,4.326-8.12,0-16.096-.507-24.153-1.517-5.912-.741-19.328-2.024-21.223-9.096" fill="#6b7419"/>
 <path d="m134.05 120.59c18.279-0.521 36.316-1.806 53.659-8.053 11.417-4.112 39.938-18.998 23.295-34.354-25.617-23.636-69.981-24.22-102.73-20.131-14.022 1.751-26.873 5.93-39.892 11.253-10.829 4.429-22.232 19.545-11.292 29.639 20.402 18.821 50.46 20.891 76.956 21.646"/>
 <path d="m243.961,16.74c-1.728,14.655 4.072,24.435 9.474,37.521 3.541,8.58 3.873,29.185-10.042,29.185-5.883,0-7.915-9.702-7.45-13.869 .7-6.27 5.364-11.231 5.364-17.684 0-6.111-1.007-12.024-1.514-18.098-.268-3.199-.419-5.936.377-9.096 .672-2.668 3.679-6.085 3.791-7.959"/>
 <path d="m243.201,20.15c-.875,13.2 4.263,21.921 9.099,33.734 2.748,6.712 3.704,27.252-7.581,27.667-5.901.216-9.044-6.846-8.438-11.721 .71-5.708 5.513-9.581 6.162-15.568 .629-5.803-2.099-11.756-3.033-17.433-1.127-6.847 1.015-10.972 3.791-16.679" fill="#fc3026"/>
 <path d="m134.806,115.662c18.225,0 36.146-1.008 53.734-6.134 6.668-1.943 17.471-5.359 21.207-11.774 5.325-9.141 3.161-17.03-5.205-23.404-13.948-10.627-33.351-13.303-50.341-14.894-18.644-1.746-37.169-1.223-55.485,2.702-16.459,3.526-54.124,19.472-29.465,38.442 8.923,6.863 21.077,9.179 31.762,11.743 5.136,1.233 10.427,2.04 15.679,2.582 4.468.462 14.702,2.669 18.114.737" fill="#6b7419"/>
 <path d="m135.564,109.976c17.042,0 36.494.687 53.006-4.267 7.04-2.112 18.15-5.131 21.279-12.789 3.758-9.198-2.961-16.947-9.869-21.729-13.209-9.142-34.451-10.107-49.936-10.107-17.051,0-35.762-.542-52.025,5.453-7.376,2.719-16.516,6.071-20.447,13.498-4.531,8.562 1.994,15.365 9.141,19.176 14.727,7.851 33.571,10.765 48.851,10.765" fill="#d1b21b"/>
 <path d="m201.51 73.591c-13.452-7.312-29.608-5.518-44.209-3.429-7.68 1.098-45.398 7.115-27.62 19.552 11.871 8.304 32.387 7.632 46.141 6.484 11.11-0.927 38.484-7.465 25.688-22.607" fill="#d1b21b"/>
 <path d="m200.37 73.971c-9.316-7.768-29.382-5.076-40.357-3.343-6.984 1.103-14.401 2.053-20.999 4.691-6.593 2.635-14.2 9.381-4.08 14.049 11.875 5.478 28.183 7.161 41.178 5.449 7.552-0.995 13.859-2.455 20.373-6.525 5.103-3.189 11.087-9.987 3.885-14.321" fill="#d7ba32"/>
 <path d="m199.615,74.35c-11.615-6.14-25.285-4.347-37.868-2.952-6.623.734-13.684,2.168-19.902,4.559-5.94,2.284-10.771,8.468-3.038,12.333 11.637,5.817 26.297,5.98 38.981,4.571 5.155-.572 34.801-11.633 21.827-18.511" fill="#ddc34a"/>
 <path d="m198.856,74.35c-11.615-4.363-23.258-3.774-35.528-2.331-6.049.712-34.783,7.909-19.143,15.739 9.575,4.794 22.613,5.577 33.07,3.647 4.105-.757 33.129-10.948 21.601-17.055" fill="#e3cc63"/>
 <path d="m197.721,74.729c-7.789-5.594-21.856-3.126-30.659-1.951-4.908.655-31.476,5.305-19.749,13.699 8.512,6.093 22.352,4.841 31.808,2.471 5.037-1.262 10.658-2.524 15.191-5.123 2.781-1.595 9.162-6.922 3.409-9.096" fill="#e8d57e"/>
 <path d="m196.962,75.106c-7.881-4.214-18.402-2.979-26.952-1.838-4.987.666-28.938,4.582-18.64,12.816 6.832,5.463 19.333,3.266 26.993,1.348 4.858-1.216 9.953-1.863 14.36-4.379 2.332-1.331 9.499-5.658 4.239-7.947" fill="#eedf9a"/>
 <path d="m196.206,75.106c-8.831-1.633-16.047-2.43-25.178-1.024-4.464.688-24.998,4.082-16.513,11.637 5.407,4.814 17.35,1.836 23.688.568 2.794-.558 25.349-7.421 18.003-11.181" fill="#f4e9b6"/>
 <path d="m171.189,86.1c7.903-1.396 18.408-1.748 24.447-7.771 4.303-4.292-15.185-4.615-17.352-4.417-5.489.5-20.616,1.821-23.015,8.019-2.766,7.152 13.594,5.055 15.92,4.169" fill="#faf2d4"/>
 <path d="m87.048,61.842c5.252-6.252 15.911-7.199 23.122-10.802 10.96-5.475 16.229-12.064 11.749-24.446h23.122c-5.922,16.265 5.795,22.733 19.568,27.595 3.717,1.313 12.43,3.068 14.352,6.895 2.652,5.281-9.351,7.937-12.696,8.717-12.887,3.003-27.724,4.76-40.955,3.369-8.228-.865-35.945-.453-38.262-11.328"/>
 <path d="m95.388,60.705c2.098-2.478 6.538-2.955 9.475-3.79 4.899-1.393 9.302-3.465 13.806-5.888 11.341-6.101 11.12-13.329 7.42-24.433l16.674.379c-2.282,5.714-4.619,12.897 0,18.192 3.907,4.479 10.643,6.676 16.037,8.58 4.259,1.503 12.192,2.606 15.422,5.823 4.356,4.34-2.234,6.639-6.338,7.758-12.505,3.411-26.495,2.854-39.369,2.854-7.758,0-30.898.237-33.127-9.475" fill="#6b7419"/>
 <path d="m107.52 60.326c1.573-2.833 5.55-3.411 8.339-4.548 4.315-1.76 7.434-3.829 10.955-6.847 7.288-6.247 5.627-16.954 3.068-24.991l12.884 3.033c-2.09 5.232-4.115 10.982-1.121 16.228 2.628 4.604 8.734 7.571 13.607 9.291 3.446 1.217 28.883 7.624 17.666 13.225-8.25 4.12-64.833 8.289-65.398-5.391" fill="#d1b21b"/>
 <path d="m133.289,35.69c6.812.376 15.024-2.768 16.486-10.043 1.729-8.603-9.692-11.345-15.799-12.22-6.646-.952-16.985,3.879-16.985,11.272 .001,7.122 10.473,12.478 16.298,10.991"/>
 <path d="m133.289,32.28c4.159.224 12.646-.779 14.213-5.496 2.253-6.787-5.088-10.609-10.801-11.181-4.702-.47-14.401,1.755-14.401,7.958 0,5.856 5.521,8.559 10.989,8.719" fill="#6b7419"/>
 <path d="m135.564,30.384c4.483,0 10.637-.107 12.316-5.117 2.179-6.496-8.333-9.215-12.697-8.907-12.391.873-8.546,16.576.381,14.024" fill="#d1b21b"/>
 <path d="m134.425,36.448c0,4.603-.719,10.978 1.517,15.161 2.646,4.953 9.481,5.667 11.371,10.991 2.014,5.675.461,6.624 7.958,6.064 5.199-.388 10.103-1.219 14.994-2.849 7.705-2.568-.509-5.585-4.213-6.822-4.506-1.504-9.378-2.513-13.644-4.647-4.273-2.137-8.561-4.281-11.158-8.421-1.303-2.076-1.778-4.235-2.178-6.611-.708-4.219-1.783-1.707-4.647-2.866" fill="#d1b21b"/>
 <path d="m134.425,36.828c.676,4.643.113,9.321 2.274,13.644 2.555,5.11 8.549,5.893 12.297,9.643 3.986,3.99-2.63,7.151 3.243,8.549 4.732,1.126 12.185-1.152 16.748-2.456 12.25-3.5-11.344-9.445-14.854-10.809-8.625-3.352-16.097-8.527-15.538-18.951-1.385.164-2.78.291-4.17.38" fill="#dbc144"/>
 <path d="m134.806,36.828c.635,4.317-.045,8.933 2.272,12.886 2.864,4.887 8.799,6.068 13.195,9.208 5.352,3.822-1.459,8.186 2.347,9.742 3.165,1.294 11.858-1.168 15.09-2.091 13.855-3.958-10.305-9.245-14.334-10.794-8.96-3.445-15.724-8.904-15.161-19.33-1.024.113-2.463-.007-3.409.379" fill="#e6d170"/>
 <path d="m135.184,36.828c-.321,7.898 2.318,14.151 9.476,17.813 3.483,1.782 6.938,2.929 10.138,5.33 3.867,2.903-1.829,6.345-2.936,8.314 6.119,0 12.974-.233 18.571-3.032 5.796-2.898-8.795-7-10.991-7.579-12.56-3.312-21.227-6.854-21.227-21.226-.939.118-2.167.017-3.031.38" fill="#f0e1a1"/>
 <path d="m135.184,36.828c.883,8.214 3.047,14.781 11.582,17.63 2.984.996 9.333,2.666 11.158,5.488 2.604,4.028-2.295,6.041-5.304,7.959 3.209,1.079 14.23.043 17.056-2.274 5.332-4.375-7.116-6.742-10.684-7.761-12.206-3.487-22.152-6.585-21.155-21.422-.803.172-1.916.078-2.653.38" fill="#faf2d4"/>
 <path d="m137.837,16.74c3.965-.23 9.925,2.372 9.476,7.201-.437,4.693-7.41,5.273-11.159,4.647-2.931-.49-7.429-2.528-7.414-6.163 .018-4.815 5.685-5.376 9.097-5.685" fill="#d1b21b"/>
 <path d="m138.215,17.119c3.511-.286 9.688,2.456 9.098,6.822-.595,4.398-7.644,4.837-10.992,4.169-9.752-1.945-5.099-12.196 1.894-10.991" fill="#d9be3c"/>
 <path d="m138.974,17.499c10.194,1.586 9.978,10.232-.757,10.232-2.837,0-6.606-2.19-6.442-5.306 .199-3.782 5.431-4.623 7.199-4.926" fill="#e0ca5e"/>
 <path d="m139.732,17.878c8.816,1.945 8.759,11.667-.759,9.285-8.431-2.111-6.13-7.682.759-9.285" fill="#e8d783"/>
 <path d="m140.491,18.634c3.562.211 4.847,1.748 6.253,4.549 1.622,3.232-5.548,3.411-7.012,3.411-7.01,0-6.184-8.565.759-7.96" fill="#f0e4aa"/>
 <path d="m140.868,19.014c6.69.842 7.438,7.803 0,7.201-7.222-.585-4.606-7.877 0-7.201" fill="#f7f1d3"/>
 <path d="m141.627,19.394c5.102.751 6.805,6.064.568,6.064-6.585,0-4.976-4.824-.568-6.064" fill="#fff"/>
 <path d="m214.02 84.961c14.223 1.978 28.882 3.003 43.208 3.411-4.84 18.132-16.252 23.017-33.805 25.617-15.888 2.353-32.064 1.993-48.06 1.673 8.245-1.901 17.296-3.553 24.31-8.654 6.26-4.552 15.534-13.936 14.347-22.047"/>
 <path d="m178.011,114.526c14.65.324 29.068.467 43.646-1.282 16.185-1.941 29.149-6.795 33.674-23.733-7.222-.208-14.562-1.222-21.794-1.706-4.006-.268-7.961-.908-11.967-1.194-1.928-.138-4.172-1.014-6.036-.891-3.257.214-2.567-.679-3.635,3.059-4.54,15.901-18.188,24.096-33.888,25.747" fill="#faf2d4"/>
 <path d="m245.48 91.405 9.854-1.895c-5.185 16.817-16.253 21.419-32.637 24.57-15.303 2.943-31.865 1.892-47.333 1.581 23.371-8.085 46.743-16.17 70.116-24.256" fill="#6b7419"/>
 <path d="m205.682,86.477c-1.21,19.215-19.007,27.113-36.006,30.321 15.493,0 31.904,1.098 47.281-1.179 8.265-1.225 15.465-2.845 23.141-6.206 7.099-3.107 9.404-12.509 11.065-19.147-7.98,0-15.831-.432-23.785-1.096-5.843-.488-17.128.346-21.696-2.693"/>
 <path d="m205.682,86.477c-3.514,16.366-19.769,27.79-36.006,30.321 15.493,0 31.904,1.098 47.281-1.179 8.265-1.225 15.465-2.845 23.141-6.206 7.099-3.107 9.404-12.509 11.065-19.147-7.98,0-15.831-.432-23.785-1.096-5.843-.488-17.128.346-21.696-2.693" fill="#d1b21b"/>
 <path d="m175.738,113.766c14.871.373 29.54,1.186 44.342-.662 15.575-1.944 25.994-7.564 31.083-22.837-5.175,16.462-20.887,18.306-35.319,20.37-5.871.84-14.755.519-20.396-1.419-3.798-1.305-3.828-4.017-7.454-2.014-3.939,2.175-8.052,5.099-12.256,6.562" fill="#6b7419"/>
 <path d="m205.68 86.477c-2.093 22.854-31.021 31.9-50.03 29.185 19.02-1.467 44.583-8.074 50.03-29.185"/>
 <path d="m169.295,116.798c15.619,0 32.162,1.116 47.662-1.179 8.265-1.225 15.465-2.845 23.141-6.206 7.099-3.107 9.404-12.509 11.065-19.147-5.891,17.679-18.841,21.309-36.075,23.46-7.988.997-15.921.663-23.936.427-4.035-.119-8.071-.209-12.106-.313-3.846-.097-6.149,1.868-9.751,2.958"/>
 <path d="m212.88 85.341-7.199 1.516 15.161 1.516c-0.125-3.3-5.331-2.638-7.962-3.032" fill="#faf2d4"/>
 <path d="m141.25,133.096c3.35,10.963 19.329,12.389 28.592,13.925 2.427.402 13.477.901 13.477,4.457 0,4.872-12.865,6.084-16.24,6.716-12.013,2.251-24.434,2.528-36.631,2.001-6.638-.287-13.147-.631-19.733-1.528-3.859-.526-14.055-.458-16.463-3.587 16.727-2.971 51.142,5.455 46.998-21.984" fill="#d1b21b"/>
 <path d="m164.745,151.667c3.628-.907 7.215-2.048 10.993-1.895 1.935.079 8.002,1.493 3.411,3.789-7.029,3.515-15.169,4.099-22.906,4.868-7.631.759-15.454.44-23.125.44-7.248,0-16.898.823-23.707-1.896 18.804-.913 36.991-.208 55.334-5.306" fill="#d1b21b"/>
 <path d="m163.99,152.047c.921-.058 17.812-2.646 14.4.757-4.855,4.843-14.689,4.408-21.035,5.117-7.119.795-14.254.567-21.414.567-6.408,0-15.275,1.189-21.222-1.514 7.842.291 16.031-.296 23.876-.759 5.345-.314 22.967-.178 25.395-4.168" fill="#d9be3c"/>
 <path d="m163.609,152.804c2.393-.804 13.182-3.553 12.888,0-.347,4.192-15.051,4.66-17.969,4.986-6.597.737-13.67.983-20.313.698-4.811-.206-13.699.984-17.811-1.514 13.051.001 32.277,1.195 43.205-4.17" fill="#e1ca5e"/>
 <path d="m163.231,153.183c1.604-.17 11.324-3.402 11.371,0 .046,3.34-13.232,4.169-15.231,4.169-5.686,0-11.428.76-17.176.76-4.284,0-12.917,1.292-16.487-1.137 10.431,0 29.503,1.617 37.523-3.792" fill="#ead783"/>
 <path d="m162.851,153.563c2.903-.548 7.248-2.336 9.856-.38-2.464,4.729-14.647,4.394-19.331,4.548-6.18.203-16.85,1.839-22.36-.756 4.825,0 30.981.641 31.835-3.412" fill="#f2e5ab"/>
 <path d="m162.474,153.94c1.058.028 7.865-1.883 7.957,0 .126,2.589-8.586,2.886-10.23,3.035-7.282.662-16.999,2.229-23.88,0 5.039,0 23.968.901 26.153-3.035" fill="#faf2d4"/>
 <path d="m55.973 11.434c-7.542-8.07-20.238-13.449-30.891-8.718-11.93 5.299-20.229 17.158-20.276 30.322 6.073-11.81 8.535-21.394 21.089-28.15 9.832-5.291 22.97 2.256 30.078 6.546"/>
 <path d="m69.238,47.44c-1.26,13.513-5.52,20.901-19.499,22.302-11.886,1.191-20.746-7.25-21.571-18.864-.19-2.684 1.842-6.084 2.809-2.216 .761,3.042 1.737,5.951 3.011,8.822 2.446,5.511 7.262,9.671 13.196,10.52 10.003,1.432 22.83-10.805 22.054-20.564"/>
 <path d="m26.029 37.964c4.352-8.726 16.81-13.71 23.5-4.168-2.56-6.001-9.152-8.14-15.16-6.822-7.144 1.566-7.601 5.531-8.34 10.99"/>
 <path d="m57.868,9.918c14.582,10.606 22.54,26.176 14.02,43.207 1.381-7.59.869-16.097-1.514-23.5-1.159-3.599-3.173-6.885-4.971-10.184-1.994-3.657-5.525-6.155-7.535-9.523" fill="#d1b21b"/>
 <path d="m4.806,20.15c-3.522,12.32-3.829,22.806.851,34.838 4.708,12.107 14.481,19.068 25.681,24.667-9.483-6.162-18.393-13.125-23.343-23.638-2.752-5.842-4.712-11.537-5.084-18.053-.174-3.049.001-6.077.377-9.096 .316-2.53 2.132-6.678 1.518-8.718" fill="#d1b21b"/>
 <path d="m49.906,50.471c6.46,1.245 4.788-10.002-.377-10.232-5.866-.26-3.799,10.475.377,10.232" fill="#d1b21b"/>
 <path d="m48.011,40.618c.952-2.764.302-5.669-1.513-7.959 3.439,2.237 3.579,6.312 4.167,9.854-.863-.616-1.901-1.153-2.654-1.895" fill="#d1b21b"/>
 <path d="m66.584 19.772c6.05 6.055 10.75 14.281 7.58 23.118-1.391-7.843-2.627-16.617-7.58-23.118" fill="#fff"/>
 <path d="m49.529 49.334c5.424-1.747-5.057-3.132 0 0" fill="#fff"/>
 <path d="m244.338,44.409c2.98,6.923 7.85,13.9 7.962,21.603 .074,5.092-2.631,15.951-9.856,13.645-8.72-2.784-3.74-11.499-.756-15.919 3.535-5.238 3.637-13.968 2.65-19.329" fill="#ffde38"/>
 <path d="m245.1 48.956c2.867 5.743 5.813 11.492 6.725 17.884 0.637 4.473-2.813 13.67-8.237 13.195-5.633-0.493-6.341-8.506-3.793-12.318 4.066-6.086 6.577-11.734 5.305-18.761" fill="#ffe66a"/>
 <path d="m246.23 53.125c1.849 5.946 5.969 11.374 4.549 17.814-0.751 3.407-3.732 11.202-8.337 8.906-4.386-2.188-3.887-7.68-1.897-11.181 3.232-5.69 5.666-8.626 5.685-15.539" fill="#ffee9c"/>
 <path d="m246.992,57.674c1.865,5.4 4.019,9.073 2.842,14.97-.696,3.491-3.542,9.343-7.77,7.012-3.625-1.999-2.345-7.22-.758-9.854 2.692-4.469 5.451-6.609 5.686-12.128" fill="#fff7cd"/>
 <path d="m247.75,61.842c2.057,3.878 2.473,7.953 1.137,12.129-.521,1.628-4.678,10.002-7.011,5.306-4.104-8.26 5.986-9.652 5.874-17.435" fill="#fff"/>
 <path d="m242.064,88.751c.831-.171 8.082-.988 7.204.76-.805,1.604-7.338.406-7.204-.76"/>
</svg>
